<?xml version="1.0" encoding="UTF-8" standalone="no"?>
<!-- Created with Inkscape (http://www.inkscape.org/) -->

<svg
   xmlns:dc="http://purl.org/dc/elements/1.1/"
   xmlns:cc="http://creativecommons.org/ns#"
   xmlns:rdf="http://www.w3.org/1999/02/22-rdf-syntax-ns#"
   xmlns:svg="http://www.w3.org/2000/svg"
   xmlns="http://www.w3.org/2000/svg"
   xmlns:sodipodi="http://sodipodi.sourceforge.net/DTD/sodipodi-0.dtd"
   xmlns:inkscape="http://www.inkscape.org/namespaces/inkscape"
   viewBox="0 0 744.09448819 1052.3622047"
   id="svg6404"
   version="1.1"
   inkscape:version="0.91 r13725"
   sodipodi:docname="cakes.svg">
  <defs
     id="defs6406" />
  <sodipodi:namedview
     id="base"
     pagecolor="#ffffff"
     bordercolor="#666666"
     borderopacity="1.0"
     inkscape:pageopacity="0.0"
     inkscape:pageshadow="2"
     inkscape:zoom="0.35"
     inkscape:cx="-60.714286"
     inkscape:cy="520"
     inkscape:document-units="px"
     inkscape:current-layer="layer1"
     showgrid="false"
     inkscape:window-width="1920"
     inkscape:window-height="1138"
     inkscape:window-x="-8"
     inkscape:window-y="-8"
     inkscape:window-maximized="1" />
  <metadata
     id="metadata6409">
    <rdf:RDF>
      <cc:Work
         rdf:about="">
        <dc:format>image/svg+xml</dc:format>
        <dc:type
           rdf:resource="http://purl.org/dc/dcmitype/StillImage" />
      </cc:Work>
    </rdf:RDF>
  </metadata>
  <g
     inkscape:label="Layer 1"
     inkscape:groupmode="layer"
     id="layer1">
    <g
       id="g7018"
       transform="matrix(1.5360927,0,0,1.5360927,-205.53519,-522.28956)">
      <path
         style="display:inline;fill:#cac26e;fill-opacity:1;fill-rule:evenodd;stroke:none;stroke-width:0.28222224px;stroke-linecap:butt;stroke-linejoin:miter;stroke-opacity:1"
         d="m 271.66438,515.05848 c -3.71984,13.17608 -2.59546,27.06362 -2.79401,40.56655 2.63358,16.21045 8.91114,31.55675 14.36726,46.95648 6.32425,15.23834 13.76969,31.38974 27.58876,41.18808 17.60903,8.05431 37.52694,7.01663 56.36729,9.20038 18.20377,1.26613 37.8813,3.9337 54.54926,-5.40605 16.63969,-8.17983 29.56517,-23.3569 34.28313,-41.37113 4.93556,-17.1389 8.80483,-34.60318 12.23298,-52.0996 2.20323,-14.38698 3.07584,-30.13831 -3.60316,-43.49564 -8.6801,-10.50116 -23.70518,-4.47899 -35.34661,-5.67989 -21.2997,-0.15173 -42.73717,0.37765 -63.6065,5.06412 -31.02447,5.2399 -62.63487,6.65906 -94.0384,5.0767 z"
         id="path4331-4"
         inkscape:connector-curvature="0" />
      <path
         style="display:inline;fill:#fcf46b;fill-opacity:1;fill-rule:evenodd;stroke:none;stroke-width:0.28481665px;stroke-linecap:butt;stroke-linejoin:miter;stroke-opacity:1"
         d="m 265.9982,414.48923 c -18.90304,-5.25284 -37.45529,10.98636 -40.41215,29.20782 -5.37808,17.04985 -0.009,36.1228 12.53273,48.65729 14.88128,16.26229 37.49303,21.21187 58.5137,23.36681 22.61534,4.47987 45.6806,1.56153 68.23478,-1.56971 15.88925,-0.92021 32.01044,-0.469 47.34805,-5.41618 12.07832,-3.65083 24.65198,-4.60885 37.09849,-5.63272 16.66719,-1.84198 34.14585,-5.26107 46.63969,-17.38825 8.98253,-7.31757 22.8071,-18.73973 9.5348,-29.34132 -11.44033,-10.7732 -5.86677,-26.04469 -5.86268,-39.74147 6.87129,-13.00542 0.28657,-25.94116 -14.24457,-28.56333 -15.71296,-8.14955 -30.76592,-0.75108 -45.95859,3.70107 -9.76738,-9.76633 0,0 -20.11339,-18.1204 5.11864,-11.98417 -7.61136,-22.21251 -18.6995,-22.74237 -14.44005,-1.56419 -27.36181,5.80787 -40.40294,10.69651 -19.89194,4.18449 -41.13868,-1.23299 -60.62597,5.50069 -12.82672,4.66861 -22.17001,15.56964 -27.5706,27.77137 -3.59498,5.83451 -7.36587,12.48888 -6.01185,19.61419 z"
         id="path4319-1"
         inkscape:connector-curvature="0"
         sodipodi:nodetypes="cccccccccccccccccc" />
      <g
         id="g4720"
         style="display:inline;fill:#9497fd;fill-opacity:1"
         transform="matrix(12.793069,0,0,12.793068,-1397.36,-27.693186)">
        <path
           inkscape:connector-curvature="0"
           id="path4384-0"
           d="m 133.98044,39.731373 c -0.2975,-0.03682 -0.59799,-0.02843 -0.89689,-0.01943 -0.17649,0.08246 -0.31412,0.230989 -0.49831,0.299546 -0.17405,0.08819 -0.23443,0.325373 -0.13358,0.490158 0.0779,0.180588 0.17117,0.354109 0.27756,0.519083 0.0836,0.182506 0.10128,0.388192 0.19664,0.566571 0.0496,0.183487 0.22143,0.279235 0.40416,0.274745 0.14737,0.01402 0.2902,0.05234 0.43889,0.05291 0.22979,0.02103 0.46049,0.01289 0.69074,0.01087 0.25955,-0.007 0.50458,-0.130075 0.6937,-0.302575 0.0931,-0.08733 0.13987,-0.21537 0.12133,-0.341543 0.007,-0.182045 0.0266,-0.37801 -0.0791,-0.538906 -0.14201,-0.284596 -0.34443,-0.557792 -0.63835,-0.697263 -0.14116,-0.09051 -0.29669,-0.144208 -0.41662,-0.262106 -0.0484,-0.02947 -0.10346,-0.04854 -0.16016,-0.05206 z"
           style="fill:#9497fd;fill-opacity:1;fill-rule:evenodd;stroke:none;stroke-width:0.28222224px;stroke-linecap:butt;stroke-linejoin:miter;stroke-opacity:1" />
        <path
           inkscape:connector-curvature="0"
           id="path4397-4"
           d="m 134.55418,33.021124 c -0.28078,0.0015 -0.5616,-0.0031 -0.84236,0.0026 -0.1766,0.07059 -0.23324,0.268458 -0.30439,0.426518 -0.0966,0.11798 -0.18424,0.247884 -0.2202,0.397975 -0.0501,0.127378 -0.0651,0.299388 0.0558,0.392866 0.12963,0.147453 0.2884,0.272908 0.47432,0.340189 0.23925,0.128556 0.48353,0.260952 0.75641,0.299443 0.19552,0.02377 0.3978,0.107801 0.59323,0.03947 0.11011,-0.09064 0.20116,-0.21809 0.2004,-0.365484 0.0637,-0.23239 0.0251,-0.474059 0.0354,-0.711 0.0277,-0.116427 -0.0762,-0.190345 -0.13505,-0.276118 -0.0687,-0.07325 -0.11688,-0.16945 -0.20214,-0.224069 -0.10415,-0.06273 -0.22637,-0.108822 -0.29628,-0.214227 -0.0421,-0.0318 -0.081,-0.06793 -0.11513,-0.108168 z"
           style="fill:#9497fd;fill-opacity:1;fill-rule:evenodd;stroke:none;stroke-width:0.28222224px;stroke-linecap:butt;stroke-linejoin:miter;stroke-opacity:1" />
        <path
           inkscape:connector-curvature="0"
           id="path4390-8"
           d="m 141.31431,36.613226 c -0.18723,-0.04989 -0.38197,-0.01985 -0.572,-0.0083 -0.14931,0.06107 -0.28202,0.157871 -0.42587,0.228694 -0.15046,0.104498 -0.16201,0.295779 -0.23573,0.447098 -0.0583,0.161622 -0.0922,0.372288 0.0411,0.507478 0.0859,0.07146 0.15272,0.174809 0.26662,0.20433 0.1174,0.02799 0.23598,0.05025 0.35033,0.08944 0.15247,0.03508 0.29463,0.09835 0.44736,0.126561 0.13336,0.06678 0.28588,0.04095 0.42313,0.09477 0.1864,0.05327 0.40836,0.06537 0.56512,-0.06892 0.13105,-0.08828 0.22244,-0.22833 0.25606,-0.382073 0.066,-0.130545 0.074,-0.273351 0.0572,-0.414461 0.007,-0.174876 -0.002,-0.383111 -0.1557,-0.498032 -0.0916,-0.08927 -0.18169,-0.233034 -0.32959,-0.205923 -0.17412,-0.02939 -0.35066,-0.06608 -0.52752,-0.04142 -0.0609,-0.0056 -0.11829,-0.03584 -0.16051,-0.07924 z"
           style="fill:#9497fd;fill-opacity:1;fill-rule:evenodd;stroke:none;stroke-width:0.28222224px;stroke-linecap:butt;stroke-linejoin:miter;stroke-opacity:1" />
        <path
           inkscape:connector-curvature="0"
           id="path4409-0"
           d="m 141.08981,31.748923 c -0.3446,-0.06165 -0.69728,-0.05527 -1.0454,-0.04389 -0.0935,0.02817 -0.17248,0.09193 -0.25173,0.144768 -0.0623,0.0874 -0.0554,0.199639 -0.0792,0.299017 -0.0631,0.145373 -0.17087,0.287082 -0.14629,0.45438 0.0148,0.09816 0.10931,0.151615 0.18033,0.208293 0.10593,0.07431 0.2341,0.123969 0.36525,0.11055 0.15936,-0.01084 0.32755,0.02746 0.47835,-0.04097 0.11993,-0.0415 0.23924,-0.08888 0.36563,-0.106836 0.075,-0.06628 0.16689,-0.107767 0.25631,-0.133874 0.0834,-0.04432 0.17236,-0.08178 0.23241,-0.157839 0.0655,-0.08508 0.0377,-0.198181 0.0472,-0.297015 -0.004,-0.08595 -0.0455,-0.170532 -0.0228,-0.256993 -0.003,-0.113445 -0.1382,-0.133362 -0.22429,-0.157825 -0.0503,-0.01448 -0.10291,-0.03416 -0.15577,-0.02177 z"
           style="fill:#9497fd;fill-opacity:1;fill-rule:evenodd;stroke:none;stroke-width:0.28222224px;stroke-linecap:butt;stroke-linejoin:miter;stroke-opacity:1" />
        <path
           inkscape:connector-curvature="0"
           id="path4403-4"
           d="m 146.20956,35.528762 c -0.327,0.0026 -0.65409,-0.0055 -0.981,0.0047 -0.16467,0.03475 -0.31271,0.112328 -0.43777,0.216482 -0.0721,0.11443 -0.11156,0.253494 -0.1565,0.381133 0.001,0.166002 -0.0168,0.334073 0.008,0.498851 0.0522,0.145828 0.0596,0.328248 0.21065,0.413624 0.13395,0.07944 0.26841,0.159825 0.41659,0.211671 0.20438,0.0972 0.43483,0.04012 0.65222,0.05756 0.0991,0.0048 0.19763,-0.01423 0.29047,-0.04494 0.18008,-0.01904 0.35425,-0.0885 0.50612,-0.184566 0.11155,-0.109318 0.23247,-0.227187 0.27628,-0.381147 0.0157,-0.155595 -0.005,-0.312147 0.004,-0.468233 5e-4,-0.128635 -2.2e-4,-0.25731 -0.004,-0.385887 -0.1018,-0.05056 -0.18625,-0.144514 -0.28921,-0.177015 -0.13176,0.0093 -0.16528,-0.129391 -0.29063,-0.116792 -0.067,-0.01877 -0.13491,-0.0338 -0.20489,-0.02542 z"
           style="fill:#9497fd;fill-opacity:1;fill-rule:evenodd;stroke:none;stroke-width:0.28222224px;stroke-linecap:butt;stroke-linejoin:miter;stroke-opacity:1" />
      </g>
      <path
         style="display:inline;fill:#000000"
         d="m 335.77838,665.19561 c 0.2661,-18.84407 -20.65441,-18.36658 -32.41354,-23.3088 -14.60432,-17.98341 -28.60812,-38.06552 -30.21442,-62.09457 -4.35911,-18.24059 0.18806,-38.20417 -7.56556,-55.56159 16.15253,-17.00409 6.29611,17.42187 18.25596,18.63996 -10.95394,7.4748 0.41834,28.53815 0.89552,41.35036 5.49245,18.80098 12.0077,38.22791 24.8293,53.3235 12.36654,5.79682 27.47555,5.55271 18.30714,-12.33892 -4.5734,-26.82234 -8.55115,-54.22304 -14.91928,-80.47022 -10.5594,-16.50586 5.47799,-14.10775 4.66115,1.67252 7.73828,31.31392 11.44955,63.57764 17.72506,95.24791 15.35948,4.82849 14.80849,-10.47344 25.6611,1.2165 21.6785,-3.36379 55.09834,-0.48537 52.33773,-30.20934 7.58526,-30.33205 17.92027,-61.47304 12.87443,-93.22145 11.76502,4.37248 5.49398,35.83148 3.18394,50.84129 -2.76433,20.74687 -11.92928,40.72683 -15.289,61.17706 8.28172,-6.11563 35.93292,-6.33782 24.31323,4.35165 -32.15256,6.70638 -63.72049,19.90885 -97.36575,15.25475 -9.97322,-3.21457 1.7689,15.28645 -5.27752,14.12943 z m 106.78759,-39.80268 c 11.52399,-11.78043 -12.46276,-3.49433 2.42224,-18.61186 13.90606,-26.91918 20.51803,-57.70543 15.42665,-87.91504 3.69988,-14.82664 -30.65284,5.07305 -12.86484,-11.84948 -3.13968,-12.60776 17.72915,-3.38376 26.53564,-15.3948 11.96497,-5.66325 33.60739,-13.01144 31.58391,-28.7372 -8.44202,-7.40519 -20.72145,-11.98125 -29.6432,-3.49427 -1.12068,-16.11719 -22.77857,-2.93357 -25.86695,-17.76886 -4.256,-26.62225 24.46969,-5.49386 29.11037,-18.09204 11.43215,4.73238 30.35437,-14.62918 11.53001,-23.09608 -12.39072,-8.88191 -31.20933,-13.93987 -42.52672,-0.44456 -10.14362,17.10019 -17.55746,13.04128 -5.32217,-3.06182 16.21841,-19.72063 51.98233,-11.11023 62.1857,10.05581 7.5332,12.39399 -22.00676,19.64883 -7.94872,25.65959 26.78843,7.70325 -16.30604,17.62218 8.38202,21.592 18.7375,9.53527 0.48614,27.68738 -11.00856,33.88926 -10.46,6.11636 -25.74285,11.95174 -33.67814,17.60424 10.52908,1.47706 12.67345,22.68699 11.57901,35.39013 -5.54106,26.64539 -10.95458,53.76066 -21.58434,78.99238 -2.41188,1.97024 -4.86149,6.56166 -8.31191,5.28254 z m 44.18866,-178.78866 c 17.22549,-1.7404 6.68016,-13.07024 -3.38287,-13.22798 -5.42797,7.89608 -6.72275,11.85991 3.38287,13.22798 z m -27.00156,-1.38515 c 14.18112,-7.175 -15.75441,-14.57341 0,0 z m 8.53554,-9.92172 c 0.81747,-9.38273 -14.94512,-1.38823 0,0 z M 367.3449,618.46205 c 0.94412,-1.8285 2.5265,0.61496 0,0 z m 0.45415,-2.63236 c -0.37868,-28.81143 5.10597,-59.03967 3.80594,-87.11626 12.91895,-4.36726 2.17802,37.92618 4.4406,50.67678 -3.20364,11.09221 -1.14626,28.64231 -8.24654,36.43948 z m -4.63109,-81.40839 c -18.80479,-15.18591 16.92024,-28.82644 29.22039,-22.03652 -3.85839,6.03884 -25.57936,2.68086 -29.06508,13.44999 -2.9364,4.64652 9.97501,9.02609 -0.1548,8.58653 z m -53.05785,-8.33869 c -2.25452,-12.30996 28.69102,-14.18769 40.08197,-16.09954 -16.83172,2.40262 9.71723,18.25897 -11.4521,10.92322 -9.4308,-1.85919 -19.55114,3.12449 -28.62987,5.17632 z m 97.77282,-4.79345 c -6.82446,-13.62698 15.58324,-21.68879 26.19765,-13.32385 10.00226,10.83188 -24.46227,-3.97506 -26.1988,13.32362 z m -111.43224,-0.95794 c -5.78361,-9.93054 -29.73902,7.1877 -27.75149,-9.63345 -2.22804,-11.13671 -18.95869,-15.91522 -28.33012,-21.99078 -17.50744,-12.63606 -15.44264,-39.49316 -0.5872,-53.59392 1.97294,-9.23909 35.61411,-15.11564 16.69418,-8.29399 -14.69783,5.21133 -21.38412,22.47876 -23.2995,36.77717 -1.42067,15.07478 12.24066,25.12129 25.3281,29.02868 11.72395,8.33144 19.33058,22.20719 36.12302,17.16492 2.30826,2.01462 8.41464,11.54528 1.8234,10.54137 z m 15.42665,-9.65689 c -8.30321,-9.14742 -22.36113,-11.92013 -6.94433,-26.546 5.71262,-8.46093 11.02276,7.05546 17.799,12.63483 -2.36199,4.15707 -5.72554,13.43687 -10.85467,13.91117 z m 99.96671,-48.19994 c -11.7764,-3.06091 -21.10728,-10.77661 -5.49321,-21.49353 16.40135,-9.61757 0.64732,17.93657 17.62066,12.09014 7.11589,11.77716 -5.03088,8.35809 -12.12745,9.40339 z M 281.85713,450.71184 c 11.9958,-10.47853 2.30122,-22.14871 -10.99948,-29.17441 -6.67031,-15.98378 8.28313,-30.2104 17.3987,-42.05331 11.3486,-11.32127 27.72591,-28.17906 44.80798,-17.88836 17.4019,20.35757 2.49427,5.93318 -10.85952,0.93159 -21.90481,7.08346 -37.16029,27.97613 -46.91462,47.81071 -4.42269,15.23179 25.68209,17.83443 14.97761,34.7875 -1.69597,3.907 -3.29946,7.06708 -8.41067,5.58628 z m 40.26503,-23.02533 c 6.46844,-19.59876 -23.77144,-7.19435 -15.45492,-24.52468 6.05956,-17.76007 26.0623,-8.27355 14.85275,5.31946 15.95578,-5.67067 9.86564,19.8047 0.60256,19.20522 z m -6.15589,-25.97572 c 2.36966,-6.68844 -5.34457,2.02614 0,0 z m 83.86624,-8.46553 c -18.6615,-3.58348 3.7618,-15.24149 8.84347,-21.11751 13.97156,-12.84988 -26.3087,-15.48812 -32.75435,-0.59859 -7.15031,6.63152 -18.93055,16.70801 -19.7209,21.61955 -7.76054,-9.91806 10.33577,-19.17377 15.38046,-26.82373 12.83618,-13.00957 40.06994,-18.16611 48.81707,1.76349 8.49166,14.99822 1.74626,33.51995 -3.31762,7.50537 -5.8078,1.45234 -5.73808,19.36834 -17.24813,17.65146 z m -53.70313,-12.23762 c -3.05434,-3.40956 4.83194,1.16928 0,0 z m -1.4057,-3.1659 c -6.39615,-2.93613 6.25543,-0.52388 0,0 z"
         id="path4235-6-7"
         inkscape:connector-curvature="0"
         sodipodi:nodetypes="ccccccccccccccccccccccccccccccccccccccccccccccccccccccccccccccccccccccccccccccccccccccccccccccccccccccccccccccccc" />
    </g>
    <g
       style="display:inline"
       transform="matrix(19.651339,0,0,19.651339,-2384.5684,-542.67372)"
       id="g4994">
      <path
         style="fill:#cac26e;fill-opacity:1;fill-rule:evenodd;stroke:none;stroke-width:0.28222224px;stroke-linecap:butt;stroke-linejoin:miter;stroke-opacity:1"
         d="m 131.72723,70.439446 c -0.0138,1.218003 -0.0425,2.495503 0.48882,3.62355 0.1195,1.028672 0.76242,1.886697 1.19591,2.800336 0.77522,1.323748 1.96377,2.544963 3.51545,2.867255 0.95437,0.218315 1.89342,0.526768 2.86557,0.651633 1.16311,0.07084 2.3258,-0.08002 3.48884,-0.09156 1.22334,-0.09466 2.57975,-0.703366 3.01128,-1.936055 0.42449,-1.141464 0.11998,-2.392635 0.48267,-3.550272 0.25098,-1.113946 0.87673,-2.11343 0.97658,-3.266586 0.40699,-0.78775 -0.28072,-1.319807 -1.01272,-0.931552 -0.65576,0.186814 -1.34897,0.08837 -2.01217,0.253038 -1.15245,0.234718 -2.34673,-0.106335 -3.48823,0.232718 -0.78625,0.05695 -1.54457,0.294474 -2.30942,0.437734 -0.83286,0.04033 -1.67276,0.103933 -2.50399,0.06197 -0.95037,-0.177339 -1.88112,-0.465704 -2.795,-0.771962 -0.58598,-0.26014 -1.25071,-0.68585 -1.90359,-0.380253 z"
         id="path4340-6"
         inkscape:connector-curvature="0" />
      <path
         style="fill:#fcf46b;fill-opacity:1;fill-rule:evenodd;stroke:none;stroke-width:0.28222224px;stroke-linecap:butt;stroke-linejoin:miter;stroke-opacity:1"
         d="m 138.45435,71.564485 c 1.21637,-0.403146 2.61453,0.20014 3.74815,-0.526325 1.12714,-0.461346 2.37341,-0.05331 3.51474,0.118644 1.20253,0.05877 1.85669,-1.114998 2.57096,-1.883453 0.9034,-1.104516 2.05309,-2.135755 2.27723,-3.625001 0.34755,-1.279526 -0.42416,-2.536169 -1.44423,-3.254399 -1.27706,-0.825614 -0.84159,-2.587136 -1.73195,-3.673565 -0.99015,-1.511821 -2.99112,-1.89949 -4.66906,-1.634427 -1.35336,0.563889 -1.5062,-1.328059 -2.45543,-1.733076 -0.96731,-0.514523 -2.49171,-0.437131 -2.88669,0.76472 -0.32606,1.10226 -1.45904,1.297502 -2.417,0.954727 -0.8142,-0.125516 -2.0254,-0.288735 -2.20156,0.811461 -0.18111,0.999691 -0.75203,1.910939 -0.76639,2.937846 0.55826,0.922315 -0.10547,1.806089 -1.10231,1.865369 -1.08431,0.531857 -1.58329,1.708063 -1.67543,2.853223 -0.10962,1.111336 -0.10568,2.277911 0.63268,3.17947 0.44493,0.980162 1.34047,1.642736 2.34834,1.962327 1.59584,0.640007 3.32667,0.881882 5.02895,1.027696 0.41134,0.0028 0.84845,0.04714 1.229,-0.145237 z"
         id="path4326-6"
         inkscape:connector-curvature="0" />
      <path
         style="fill:#9497fd;fill-opacity:1;fill-rule:evenodd;stroke:none;stroke-width:0.28222224px;stroke-linecap:butt;stroke-linejoin:miter;stroke-opacity:1"
         d="m 141.83662,58.285536 c -0.63743,-0.01228 -0.74522,0.08278 -1.38302,0.09768 -0.0758,0.157363 -0.34503,0.08207 -0.35232,0.242395 0.0681,0.147395 0.16469,0.278856 0.2574,0.411371 0.0174,0.199727 0.20125,0.319623 0.35242,0.421985 0.13764,0.0643 0.29627,0.02161 0.43809,0.06973 0.17327,0.01707 0.519,0.05903 0.519,0.05903 0.16791,0.05689 0.40084,0.07856 0.51534,-0.08713 0.15618,-0.06937 0.34124,-0.09156 0.47442,-0.188228 0.13826,-0.02138 0.25804,-0.125 0.33685,-0.224088 -0.0229,-0.150382 0.0336,-0.320438 -0.0516,-0.454768 -0.0724,-0.09274 -0.19553,-0.136245 -0.31079,-0.128488 -0.12449,-0.11107 -0.3069,-0.08932 -0.45878,-0.128017 -0.14923,-0.02135 -0.28973,-0.13777 -0.44511,-0.08338 -0.0351,0.01132 -0.0903,-0.0091 -0.0759,-0.0542"
         id="path4370-6"
         inkscape:connector-curvature="0"
         sodipodi:nodetypes="ccccccccccccccc" />
      <path
         style="fill:#9497fd;fill-opacity:1;fill-rule:evenodd;stroke:none;stroke-width:0.28222224px;stroke-linecap:butt;stroke-linejoin:miter;stroke-opacity:1"
         d="m 146.685,62.501945 c -0.0893,0.02335 -0.1742,0.0694 -0.26621,0.07874 0.11736,-0.03888 0.0348,0.08101 -0.0289,0.08289 -0.12369,0.02911 -0.22864,0.09326 -0.3171,0.177079 -0.10062,0.07974 -0.10783,0.220222 -0.17954,0.320456 -0.0763,0.117663 -0.0525,0.256666 -0.0549,0.386815 -0.0513,0.14486 0.0663,0.241132 0.15698,0.331669 0.0871,0.133295 0.24354,0.135482 0.38286,0.163956 0.12239,0.0516 0.24675,0.09431 0.38217,0.08753 0.16578,0.04354 0.33805,0.03329 0.50713,0.02534 0.0844,0.0042 0.22873,0.03499 0.26504,-0.03831 0.0108,-0.07223 0.12528,-0.104144 0.16387,-0.173376 0.0827,-0.100784 0.0948,-0.236806 0.0823,-0.361648 -10e-4,-0.130701 1.7e-4,-0.261406 8.2e-4,-0.392107 -0.0557,0.03174 -0.0529,-0.117597 -0.10098,-0.144429 -0.0363,-0.113874 -0.0612,-0.259871 -0.18574,-0.31053 -0.0753,-0.09701 -0.20842,-0.04867 -0.31212,-0.05758 -0.1189,0.0017 -0.23221,0.01049 -0.33476,-0.04073 -0.11411,0.01718 -0.11291,-0.06649 -0.16106,-0.13575 z"
         id="path4376-8"
         inkscape:connector-curvature="0" />
      <path
         style="fill:#9497fd;fill-opacity:1;fill-rule:evenodd;stroke:none;stroke-width:0.28222224px;stroke-linecap:butt;stroke-linejoin:miter;stroke-opacity:1"
         d="m 142.98564,64.876089 c -0.2076,-0.07769 -0.43231,-0.0457 -0.64858,-0.04989 -0.17167,0.08382 -0.41321,0.01003 -0.539,0.18434 -0.0558,0.0589 -0.2105,0.116314 -0.22591,0.09278 -0.005,0.08138 -0.19911,0.09098 -0.13167,0.218725 0.002,0.20628 -0.0126,0.415344 0.004,0.619541 0.0314,0.169564 0.1319,0.330142 0.28916,0.407511 0.16587,0.121743 0.38288,0.117752 0.56821,0.192853 0.22826,0.05129 0.45122,0.152975 0.69032,0.129867 0.20177,0.01692 0.40066,0.06976 0.60456,0.05118 0.17865,-3.53e-4 0.35733,-0.0029 0.53596,9.79e-4 0.16956,-0.145293 0.39747,-0.191792 0.60964,-0.235208 0.18661,0.0038 0.39189,-0.154062 0.34756,-0.355388 0.009,-0.191862 0.0124,-0.405395 -0.14936,-0.530858 -0.12746,-0.280048 -0.31966,-0.537636 -0.56981,-0.718673 -0.2126,-0.145902 -0.473,-0.188208 -0.72375,-0.212925 -0.22513,-0.0094 -0.42976,0.101171 -0.62986,0.187791 l -0.0311,0.01736 -2e-5,8e-6 z"
         id="path4354-9"
         inkscape:connector-curvature="0" />
      <path
         style="fill:#9497fd;fill-opacity:1;fill-rule:evenodd;stroke:none;stroke-width:0.28222224px;stroke-linecap:butt;stroke-linejoin:miter;stroke-opacity:1"
         d="m 135.90064,67.28895 c -0.44118,-6.54e-4 -0.88236,0.0018 -1.32353,-0.0024 -0.1428,0.07673 -0.3446,0.06293 -0.43732,0.217026 -0.12926,0.160922 -0.3398,0.230315 -0.46234,0.39894 -0.16784,0.195465 -0.2397,0.451966 -0.40011,0.652532 -0.0299,0.185833 -0.0591,0.399134 0.0488,0.565156 0.11238,0.120039 0.13383,0.327546 0.30636,0.386122 0.18021,0.03813 0.36502,-0.01362 0.5461,0.01715 0.17717,0.02024 0.32828,-0.0759 0.47798,-0.145161 0.20005,-0.03886 0.41735,0.05034 0.60501,-0.05607 0.17259,-0.04373 0.35067,-0.0033 0.52566,-0.01474 0.0362,-0.08789 0.2212,-0.07702 0.18386,-0.1813 0.11166,-0.06857 0.0307,-0.197816 0.12829,-0.261658 0.0412,-0.144673 -0.0596,-0.343825 0.11358,-0.424865 0.068,-0.157654 0.0239,-0.33489 0.034,-0.501234 -0.004,-0.138923 0.0134,-0.278658 0.005,-0.416883 -0.017,-0.149765 -0.32485,-0.127968 -0.28928,-0.244041 0.0635,0.05256 -0.0522,0.04006 -0.0621,0.01142 z"
         id="path4347-8"
         inkscape:connector-curvature="0" />
      <path
         style="fill:#9497fd;fill-opacity:1;fill-rule:evenodd;stroke:none;stroke-width:0.28222224px;stroke-linecap:butt;stroke-linejoin:miter;stroke-opacity:1"
         d="m 135.52404,59.537826 c -0.13613,0.03984 -0.30693,0.02317 -0.40263,0.147516 -0.0279,0.155456 -0.13514,0.271984 -0.23158,0.387937 -0.0849,0.118228 -0.15863,0.25749 -0.13699,0.407568 0.005,0.366447 -9.8e-4,0.73293 0.004,1.099378 0.0509,0.154368 0.19999,0.290488 0.37104,0.266336 0.16934,0.0198 0.35911,0.01378 0.49173,-0.108702 0.10855,-0.0987 0.22013,-0.195545 0.35999,-0.246618 0.15093,-0.0694 0.30334,-0.160051 0.38326,-0.311968 0.0917,-0.131125 0.18828,-0.260702 0.26513,-0.400777 0.054,-0.148682 0.008,-0.30874 0.0272,-0.462137 0.006,-0.143602 -0.0855,-0.259464 -0.17303,-0.362793 -0.0749,-0.09634 -0.13279,-0.215159 -0.25321,-0.262699 -0.17305,-0.08508 -0.36777,-0.09646 -0.55619,-0.113899 -0.0503,-0.0077 -0.10119,-0.01981 -0.14773,-0.03914 z"
         id="path4362-9"
         inkscape:connector-curvature="0" />
      <path
         style="display:inline;fill:#000000"
         d="m 143.02435,80.129073 c -2.10272,0.595926 -4.52864,0.571996 -6.47939,-0.439529 -0.79111,-1.133084 0.99397,-0.428911 0.93676,-1.149293 -0.34482,-1.686027 -0.53001,-3.492666 -0.9652,-5.145089 0.88364,0.146643 0.68131,2.097914 1.04482,2.952329 0.35943,0.813361 0.062,2.211396 0.78193,2.710039 1.94145,1.180721 1.54577,-0.86461 1.49924,-2.284048 -0.10754,-1.231123 0.22807,-2.66323 -0.41429,-3.780871 -0.43445,-0.992944 1.10501,-0.275117 0.76671,0.856948 0.27548,1.861241 0.0179,3.741599 0.0818,5.596597 1.5027,0.15329 2.84211,-0.45879 4.23813,-0.850068 1.46442,-0.428391 1.56686,-2.190401 1.99328,-3.424734 0.70227,-1.661275 1.01409,-3.489731 0.85914,-5.270054 -1.27627,0.213716 -1.59493,-0.587241 9.9e-4,-0.687904 1.09778,-0.918392 2.10924,-2.026945 2.69998,-3.348446 0.0596,-1.423618 -0.65855,-2.961167 -1.82161,-3.775571 -0.30858,-0.41247 -1.14225,1.789689 -0.37358,0.876155 1.20466,-0.135933 -0.35425,1.849803 -1.02648,1.135817 -1.09982,0.404204 -0.49617,-1.081588 0.0442,-1.75722 0.99579,-1.206374 -1.13467,-0.447902 -1.18662,0.122099 -0.96158,0.725349 0.37231,-1.926352 1.48141,-1.268906 0.82707,-0.385553 0.2586,-2.057543 -0.32149,-2.644952 -0.8021,-0.963649 -2.13855,-1.378302 -3.36433,-1.21748 0.16828,1.002892 0.42749,1.409275 -0.62799,1.590112 -1.34567,1.478297 0.20822,-1.7989 -0.75266,-0.650073 -0.88928,0.666928 0.13862,1.663155 -0.79217,1.22822 -1.17628,1.331697 -1.12442,-1.598406 0.0907,-1.803607 0.27638,-1.179614 -1.18474,-1.99689 -2.16278,-1.889335 -0.34463,0.268822 -1.39879,0.147966 -1.65886,1.108605 -0.84046,1.077055 1.06782,0.95593 1.33942,1.806472 1.14505,0.441142 -0.35976,3.424134 -0.11208,1.834022 0.70391,-1.153114 -0.46786,-2.374803 -1.59138,-2.487057 -0.13727,1.186936 -1.40181,-1.439511 -2.64468,-0.481112 -1.89978,0.06742 -0.0379,0.840346 -0.4181,0.955492 -1.07473,-0.383356 -1.95722,1.18633 -2.03443,2.113536 -0.0903,1.660915 1.90723,1.590492 2.48255,2.827141 -0.9018,1.48409 -1.33229,-2.062593 -2.87342,-0.795518 -1.04813,0.300992 -2.3473,1.288073 -0.73847,1.469303 -1.4931,-0.40253 -1.00229,1.638917 -1.39322,2.042737 0.0282,1.035916 0.78006,2.26171 1.96398,2.381194 0.0142,0.17496 -1.16887,0.335656 0.12072,0.72988 2.29168,1.202884 -1.16603,0.2077 -1.646,-0.678707 -1.07681,-0.733514 -1.19725,-2.150205 -0.80828,-3.31801 0.0113,-1.721437 1.3822,-2.896984 2.98421,-3.167445 -1.01672,-1.482043 0.081,-3.257742 1.12348,-4.389816 1.00084,-1.202563 2.94144,0.264555 3.66032,-0.831542 0.52795,-1.277536 1.99076,-2.12342 3.31996,-1.454867 0.8116,0.351533 1.65259,0.984185 1.65854,1.959239 0.97692,-0.325908 2.35554,-0.797031 3.50993,-0.242882 1.66411,0.553587 3.1044,2.336617 2.47192,4.147702 0.38964,0.585152 1.40495,0.883545 1.7197,1.63212 0.59749,1.116678 1.56527,2.504282 0.65221,3.720529 -0.7665,0.950431 -1.43007,1.984613 -2.29953,2.849129 0.10596,2.729596 -0.51417,5.507188 -1.77892,7.894557 -0.33277,0.593393 -0.28297,1.575152 -1.01974,1.807043 -0.52159,-0.571843 -1.26511,0.772199 -1.92486,0.786674 l -0.29558,0.100445 z m -3.84834,-0.206685 c -0.76618,-0.485962 -1.36132,-0.06116 0,0 z m -1.53605,-0.375995 c -0.83016,-0.792265 -1.27394,-0.03123 -0.0941,0.07127 9.9e-4,0.0928 0.14009,-0.07334 0.0941,-0.07127 z m -3.29219,-15.895042 c -0.44709,-1.205954 -1.22641,-0.20006 0,0 z m 6.61628,-4.032335 c 0.75962,-1.199092 -0.35474,-1.286158 -0.0865,0.04178 l 0.0862,-0.04177 2.7e-4,-1.1e-5 z m -6.54759,18.563999 c -1.28653,-1.538319 -1.57521,-3.675309 -2.39796,-5.491751 -0.50963,-1.394628 0.92616,-0.72987 0.88188,0.383234 0.26756,1.061319 0.56873,2.040806 0.92937,3.09532 0.0488,0.69531 1.11787,1.59804 0.58597,2.013227 z m 6.21417,-0.29184 c 0.0864,-0.0806 0.0577,0.08325 0,0 z m 3.46798,-0.477649 c -0.38635,-1.151183 0.34262,-2.402176 0.40307,-3.614612 -0.0697,-0.981528 0.84327,-2.505862 0.53673,-0.510011 -0.11362,1.410603 -0.43202,2.795775 -0.73401,4.177161 -0.0907,0.08326 -0.13032,-0.05313 -0.20579,-0.05254 z m -0.37907,-4.932706 c -0.4993,-1.046742 0.89385,-1.492969 -1.01876,-1.483985 -0.87622,0.301506 -2.87768,1.921637 -1.33357,0.117491 1.4096,-1.20426 2.69577,0.320805 4.0855,0.04551 1.82182,0.465016 0.62864,0.828927 -0.56997,0.464208 -0.29404,0.378066 -0.69177,0.759455 -1.1632,0.856773 z m -8.25991,-0.03498 c 0.0161,-1.969341 -1.86768,-0.179418 -2.38208,-1.147192 -0.70961,-0.0073 -1.75137,-0.158549 -0.72526,-0.658995 -0.1931,-0.601908 2.00916,0.20662 2.79964,0.464343 1.02058,1.275431 2.88158,-0.572918 4.24719,0.377465 0.66992,0.875345 -1.77267,-0.23624 -2.42073,0.375048 -0.62365,-0.0549 -0.96037,0.731237 -1.51876,0.589331 z m -1.70359,-1.144507 c -0.1498,-0.519679 -0.42427,0.129508 0,0 z m 0.96291,-1.535484 c -0.0467,-1.083381 -1.38204,-0.286864 -0.93532,-1.63264 0.2078,-0.497989 1.21873,-2.173195 1.05981,-0.974305 -0.0249,0.931623 1.36383,2.054988 0.0847,2.631799 l -0.20856,-0.02486 -6.2e-4,1.7e-5 z m 9.19667,-3.113285 c 0.37398,-1.941006 -1.83597,-0.149159 -2.38419,-0.636099 0.35475,-0.465622 1.52447,-2.049892 1.72951,-1.32693 -0.99869,1.192739 2.41988,-0.398851 1.06776,1.396265 -0.18203,0.09749 -0.12635,0.656476 -0.41308,0.566764 z m -8.46525,-4.782616 c -0.75156,-0.57156 -0.63204,-2.900544 0.68853,-2.265973 0.1677,1.106792 0.75851,1.641891 -0.32888,2.232523 -0.10489,0.05327 -0.24572,0.110169 -0.35965,0.03345 z"
         id="path4235-6-7-4"
         inkscape:connector-curvature="0"
         sodipodi:nodetypes="ccccccccccccccccccccccccccccccccccccccccccccccccccccccccccccccccccccccccccccccccccccccccccccccccccccccccccccccccccc" />
    </g>
  </g>
</svg>
