<?xml version="1.0" encoding="UTF-8" standalone="no"?>
<!-- Created with Inkscape (http://www.inkscape.org/) -->

<svg
   xmlns:dc="http://purl.org/dc/elements/1.1/"
   xmlns:cc="http://creativecommons.org/ns#"
   xmlns:rdf="http://www.w3.org/1999/02/22-rdf-syntax-ns#"
   xmlns:svg="http://www.w3.org/2000/svg"
   xmlns="http://www.w3.org/2000/svg"
   xmlns:sodipodi="http://sodipodi.sourceforge.net/DTD/sodipodi-0.dtd"
   xmlns:inkscape="http://www.inkscape.org/namespaces/inkscape"
   viewBox="0 0 744.09448819 1052.3622047"
   id="svg2"
   version="1.1"
   inkscape:version="0.91 r13725"
   sodipodi:docname="dave-chef.svg">
  <defs
     id="defs4" />
  <sodipodi:namedview
     id="base"
     pagecolor="#ffffff"
     bordercolor="#666666"
     borderopacity="1.0"
     inkscape:pageopacity="0.0"
     inkscape:pageshadow="2"
     inkscape:zoom="0.85966495"
     inkscape:cx="449.04717"
     inkscape:cy="538.20184"
     inkscape:document-units="px"
     inkscape:current-layer="layer1"
     showgrid="false"
     inkscape:window-width="1920"
     inkscape:window-height="1138"
     inkscape:window-x="-8"
     inkscape:window-y="-8"
     inkscape:window-maximized="1"
     showguides="false" />
  <metadata
     id="metadata7">
    <rdf:RDF>
      <cc:Work
         rdf:about="">
        <dc:format>image/svg+xml</dc:format>
        <dc:type
           rdf:resource="http://purl.org/dc/dcmitype/StillImage" />
        <dc:title />
      </cc:Work>
    </rdf:RDF>
  </metadata>
  <g
     inkscape:label="Layer 1"
     inkscape:groupmode="layer"
     id="layer1">
    <g
       id="g5764"
       style="fill:#ffffff;fill-opacity:1"
       transform="matrix(1.2626148,0,0,1.2626148,-41.722382,-115.02801)">
      <g
         style="fill:#ffffff;fill-opacity:1"
         id="g5749">
        <path
           style="opacity:1;fill:#ffffff;fill-opacity:1;fill-rule:nonzero;stroke:none;stroke-width:1;stroke-linecap:butt;stroke-linejoin:round;stroke-miterlimit:4;stroke-dasharray:none;stroke-dashoffset:0;stroke-opacity:1"
           d="m 111.42835,540.24233 c -3.04375,1.27834 -5.45073,3.77423 -8.06548,5.75335 -12.755142,10.61921 -22.919433,24.15634 -30.592498,38.77594 -3.273069,4.66058 -8.04843,7.98823 -12.11012,11.91189 -7.537656,6.86244 -15.633546,13.87346 -19.453663,23.61249 -3.394636,8.58105 -2.643178,18.03107 -2.584924,27.06416 0.488968,18.37895 5.251736,36.29836 10.389109,53.8415 8.658886,28.11735 18.692362,55.78474 28.234225,83.60872 1.083527,3.38281 2.355171,6.68503 4.220691,9.72022 3.975081,7.24889 7.333697,14.86506 11.856733,21.79835 3.325144,4.65421 7.102137,9.29655 12.162477,12.11784 1.73807,0.2901 2.16266,-2.15385 3.10535,-3.13381 11.35112,-18.17963 22.1701,-36.82182 35.89286,-53.36474 1.40148,-1.47039 1.20256,-3.68223 2.62013,-5.14769 4.15766,-4.75606 10.84967,-6.29769 15.02335,-11.03776 1.51653,-1.65182 0.86403,-4.08239 -0.61911,-5.49928 -5.58911,-5.83429 -7.53463,-14.15591 -8.60846,-21.96191 -1.45131,-9.49086 0.71137,-19.00438 1.0735,-28.53753 0.5363,-10.02584 0.59509,-20.1324 -0.5447,-30.11654 -0.61791,-1.57237 -0.24298,-3.34308 -0.72371,-5.01494 -0.69751,-4.33751 -1.68791,-8.80481 -2.74785,-12.96024 1.59951,-1.00242 3.46475,0.0969 3.95037,1.75168 2.45816,6.43476 1.83561,13.47403 3.51757,20.09379 0.40106,1.2871 1.95313,0.66494 2.20493,-0.40214 2.07307,-4.1203 1.65513,-8.95558 1.74255,-13.43508 -0.27353,-13.46917 -6.16585,-25.91274 -11.29782,-38.09546 -3.69703,-8.24868 -7.00552,-16.64051 -9.7225,-25.26345 -7.30543,-19.56331 -16.42072,-38.56446 -28.30617,-55.7806 -0.13645,-0.19587 -0.37911,-0.31186 -0.61684,-0.29876 z"
           id="path5739"
           inkscape:connector-curvature="0" />
        <path
           style="opacity:1;fill:#ffffff;fill-opacity:1;fill-rule:nonzero;stroke:none;stroke-width:1;stroke-linecap:butt;stroke-linejoin:round;stroke-miterlimit:4;stroke-dasharray:none;stroke-dashoffset:0;stroke-opacity:1"
           d="m 172.63035,756.632 c -10.31852,2.48297 -18.57027,10.03593 -25.32034,17.88376 -8.41835,10.72759 -16.23506,21.93855 -23.35464,33.56926 -5.072,8.06376 -10.98834,16.20732 -12.7496,25.71497 8.51144,13.98898 23.94372,22.17735 39.49358,25.91592 4.75285,0.96685 9.62358,2.33593 14.49603,1.97921 3.76234,-2.37405 4.28576,-7.43652 4.97298,-11.46011 0.39833,-5.66797 2.3777,-11.0563 5.49168,-15.78616 8.55011,-14.34778 23.18499,-23.32385 36.19938,-33.18082 3.67018,-3.00165 8.04084,-5.04932 11.6052,-8.1552 1.49151,-1.16195 0.9291,-3.30653 -0.77411,-3.92508 -6.84497,-3.5847 -12.02426,-9.55687 -18.07321,-14.25755 -9.17574,-7.80945 -19.23592,-15.50072 -31.19252,-18.27652 -0.26337,-0.0313 -0.52975,-0.0406 -0.79443,-0.0217 z m 15.77441,18.92639 c 2.34405,-0.0262 5.91998,2.52895 4.06931,5.01475 -1.20544,1.66045 -3.15907,2.55751 -5.02197,3.27007 -0.93493,-2.26937 -2.85463,-5.33167 -1.14866,-7.69924 0.58577,-0.46912 1.36793,-0.61286 2.10132,-0.58558 z"
           id="path5741"
           inkscape:connector-curvature="0" />
        <path
           style="opacity:1;fill:#ffffff;fill-opacity:1;fill-rule:nonzero;stroke:none;stroke-width:1;stroke-linecap:butt;stroke-linejoin:round;stroke-miterlimit:4;stroke-dasharray:none;stroke-dashoffset:0;stroke-opacity:1"
           d="m 421.81829,592.00318 c -4.26946,0.18764 -5.36259,5.08685 -6.58833,8.33334 -6.01897,13.88158 -13.37121,27.22171 -19.69191,40.99803 1.58841,3.43055 4.66124,6.17112 6.4301,9.63349 1.25999,2.11264 1.97053,5.1526 4.83401,5.5682 16.9391,7.40158 34.28443,14.67261 49.10766,25.96273 7.96365,6.21486 15.061,14.56917 17.35563,24.49079 0.85844,3.94218 0.66473,8.18694 0.1574,12.1551 10.24956,6.47702 21.5942,11.58992 33.36663,14.78783 1.88313,-0.68583 -0.67165,-2.39739 -1.25444,-3.23466 -8.03519,-8.5213 -17.64228,-17.04137 -19.71143,-29.17605 -0.003,-3.01493 -1.20915,-5.79876 -1.53039,-8.75627 -0.49894,-2.53264 1.19205,-5.1443 3.94418,-5.11924 4.21481,-0.57525 8.63401,1.05784 12.94453,0.37272 2.21543,-1.05837 0.14827,-3.47156 -0.77039,-4.66131 -16.92639,-22.9303 -34.14503,-45.66597 -52.19616,-67.72599 -6.57589,-7.57783 -12.63986,-15.90412 -20.86102,-21.81174 -1.64696,-1.05326 -3.54001,-1.90295 -5.53607,-1.81697 z"
           id="path5743"
           inkscape:connector-curvature="0" />
        <path
           style="opacity:1;fill:#ffffff;fill-opacity:1;fill-rule:nonzero;stroke:none;stroke-width:1;stroke-linecap:butt;stroke-linejoin:round;stroke-miterlimit:4;stroke-dasharray:none;stroke-dashoffset:0;stroke-opacity:1"
           d="m 359.68778,511.48686 c -4.19211,-0.006 -9.23481,0.24614 -11.69626,4.24121 -1.79533,3.2619 -0.73102,7.27054 -0.9478,10.82608 0.34427,14.78404 4.43877,29.15832 8.57406,43.25319 4.44901,14.46152 10.13804,28.515 16.60246,42.18736 1.72243,1.0149 2.01654,-2.35989 2.77365,-3.55202 0.96913,-3.09428 0.89033,-6.6386 3.29256,-9.14832 3.9333,-3.96586 7.64089,-9.67957 5.5682,-15.46837 -1.52802,-6.21952 -5.64475,-11.86249 -5.33445,-18.4364 1.19414,-3.55846 1.65529,-7.28373 1.21262,-11.02864 -0.063,-6.22399 -1.1488,-12.57948 0.28064,-18.64377 0.99487,-2.91606 2.6642,-5.80935 5.54329,-7.15383 3.30918,-2.42974 4.49781,-6.59196 4.20908,-10.54117 0.29516,-2.47518 0.3376,-5.4854 -3.08309,-4.60285 -9.01304,-0.48517 -17.93651,-2.16147 -26.99496,-1.93247 z"
           id="path5745"
           inkscape:connector-curvature="0" />
        <path
           style="opacity:1;fill:#ffffff;fill-opacity:1;fill-rule:nonzero;stroke:none;stroke-width:1;stroke-linecap:butt;stroke-linejoin:round;stroke-miterlimit:4;stroke-dasharray:none;stroke-dashoffset:0;stroke-opacity:1"
           d="m 497.06041,690.46109 c -4.46513,-0.15382 -7.45035,4.24014 -7.3932,8.36836 -0.70746,7.15626 2.87964,13.88364 7.80388,18.82852 17.14036,18.66759 41.35659,30.90729 66.65683,33.01256 15.65015,1.05305 31.14146,-5.79628 42.24003,-16.59486 9.19979,-10.29949 11.59678,-24.40397 14.91975,-37.33419 -0.0498,-1.42476 1.68947,-3.86482 -0.005,-4.74054 -3.30838,0.53943 -5.97443,3.12625 -8.94427,4.57098 -8.31029,5.54902 -18.41954,7.00257 -27.79521,10.02826 -11.25836,3.29792 -22.85591,5.77513 -34.60885,4.89734 -6.06083,-0.0275 -11.95699,-1.42438 -17.8215,-2.56387 -1.5903,0.35835 -3.07964,1.4686 -4.8051,0.69562 -7.019,-2.20706 -13.25085,-7.01688 -17.74079,-12.84733 -2.2975,-4.20824 -7.38891,-5.87423 -11.87779,-6.32245 -0.20962,-0.005 -0.41937,-0.007 -0.62895,0.002 z m 4.58339,9.5114 c 1.27523,0.28256 4.72227,0.80328 3.77934,2.77606 -1.45417,1.47505 -4.03903,1.90182 -5.94091,1.78243 -0.68193,-1.80124 -0.48259,-4.85663 2.16157,-4.55849 z"
           id="path5747"
           inkscape:connector-curvature="0" />
      </g>
      <path
         inkscape:connector-curvature="0"
         id="path5756"
         d="m 156.47237,530.58775 c -2.66569,-0.0968 -5.85896,2.22356 -5.15843,5.11193 -0.51375,9.92951 4.41108,18.95669 6.70533,28.37408 1.42877,5.96519 2.75678,11.98233 5.3473,17.58737 5.66177,13.06282 12.02113,25.83945 18.95469,38.27156 1.05215,1.37298 2.14903,3.89203 4.14161,3.75202 5.017,-6.60301 12.64573,-10.70317 20.53037,-12.98905 8.64003,-2.59656 17.43561,-4.82726 25.90686,-7.83063 5.03789,-1.65143 10.81616,-1.12291 15.39206,-4.02915 2.80559,-2.60825 1.96913,-6.97821 1.79849,-10.40221 -0.77969,-4.64969 -1.07775,-9.58336 -2.96081,-13.92369 -1.86392,-0.64031 -2.41083,2.26572 -2.98561,3.50922 -1.99693,5.36357 -1.46576,11.3871 -3.6718,16.64536 -1.75875,2.69773 -5.25067,0.58147 -7.20524,-0.82656 -5.3902,-3.80645 -10.00301,-8.79527 -16.2644,-11.25205 -11.20058,-5.58024 -24.08517,-7.36631 -34.55542,-14.35345 -5.81042,-4.65605 -11.60538,-9.63072 -15.84991,-15.80573 -4.02399,-6.32771 -5.89193,-13.7569 -6.07345,-21.23336 -0.6711,-1.24292 -2.82682,-0.37283 -4.05164,-0.60566 z"
         style="opacity:1;fill:#ffffff;fill-opacity:1;fill-rule:nonzero;stroke:none;stroke-width:1;stroke-linecap:butt;stroke-linejoin:round;stroke-miterlimit:4;stroke-dasharray:none;stroke-dashoffset:0;stroke-opacity:1" />
      <path
         inkscape:connector-curvature="0"
         id="path5758"
         d="m 315.74104,542.21895 c -2.00787,1.32486 -2.40271,4.25393 -3.98818,6.05978 -5.49421,8.48876 -13.77569,14.53758 -21.79243,20.43733 -5.68294,5.44479 -6.76952,14.19463 -12.767,19.35615 -3.39404,2.40342 -7.48515,-0.25712 -9.2664,-3.36165 -3.5646,-5.19987 -6.5335,-11.25268 -11.8259,-14.92935 -1.93406,-1.59972 -3.76733,0.97981 -3.6505,2.84833 -0.65194,5.68971 2.14411,11.28062 0.72293,16.92709 -0.004,2.43016 -0.60507,6.12963 2.1423,7.3193 8.37,-1.98363 16.87311,-3.50721 25.49102,-3.96056 15.11896,-1.261 31.23746,-1.02693 44.90743,-8.59278 1.68352,-1.27576 -0.57437,-3.40668 -0.70885,-4.98599 -3.80169,-11.97455 -6.28702,-24.33511 -8.4957,-36.69594 -0.14347,-0.27578 -0.45546,-0.45835 -0.76872,-0.42171 z"
         style="opacity:1;fill:#ffffff;fill-opacity:1;fill-rule:nonzero;stroke:none;stroke-width:1;stroke-linecap:butt;stroke-linejoin:round;stroke-miterlimit:4;stroke-dasharray:none;stroke-dashoffset:0;stroke-opacity:1" />
      <path
         inkscape:connector-curvature="0"
         id="path5760"
         d="m 313.25014,518.23844 c -5.74099,0.14614 -10.10308,4.5577 -14.60761,7.56969 -11.32306,8.8885 -19.79007,20.7668 -30.32517,30.50598 -2.51172,2.69008 -5.90955,4.56845 -8.30886,7.2394 -0.21317,8.33975 5.35885,15.59276 11.53527,20.59682 1.44655,1.13488 4.40716,3.05888 5.46066,0.42554 6.4038,-9.0059 11.72203,-19.66465 21.90592,-24.89165 9.20416,-6.66886 15.03749,-17.38237 17.19055,-28.40808 0.98441,-3.16884 4.66536,-5.76741 3.43635,-9.46802 -0.88378,-2.57155 -3.76315,-3.67123 -6.28711,-3.56968 z"
         style="opacity:1;fill:#ffffff;fill-opacity:1;fill-rule:nonzero;stroke:none;stroke-width:1;stroke-linecap:butt;stroke-linejoin:round;stroke-miterlimit:4;stroke-dasharray:none;stroke-dashoffset:0;stroke-opacity:1" />
      <path
         inkscape:connector-curvature="0"
         id="path5762"
         d="m 169.40565,531.5364 c -4.21273,-0.24874 -5.88503,4.61892 -5.61478,8.09846 0.33553,7.03445 5.4217,12.69009 9.98093,17.58623 11.86572,12.021 28.34736,17.48134 43.93215,22.73568 7.74365,2.61591 12.62043,10.79949 20.95953,11.96305 2.74714,0.45783 2.60108,-3.05781 3.28775,-4.78261 1.82225,-7.14311 0.34778,-15.34511 -5.18022,-20.51364 -8.31805,-7.87131 -19.84759,-10.6343 -30.20209,-14.76678 -5.89988,-2.40335 -12.52674,-4.18583 -16.82233,-9.21854 -5.29616,-4.43777 -10.97719,-8.98965 -17.75765,-10.82955 -0.84809,-0.18063 -1.71519,-0.28718 -2.58329,-0.2723 z"
         style="opacity:1;fill:#ffffff;fill-opacity:1;fill-rule:nonzero;stroke:none;stroke-width:1;stroke-linecap:butt;stroke-linejoin:round;stroke-miterlimit:4;stroke-dasharray:none;stroke-dashoffset:0;stroke-opacity:1" />
    </g>
    <path
       style="opacity:1;fill:#ffe680;fill-opacity:1;fill-rule:nonzero;stroke:none;stroke-width:1;stroke-linecap:butt;stroke-linejoin:round;stroke-miterlimit:4;stroke-dasharray:none;stroke-dashoffset:0;stroke-opacity:1"
       d="m 303.92019,784.40955 c -15.73053,0.45466 -28.85949,10.18821 -42.92531,15.77295 -16.63969,-1.12648 -32.49702,7.74351 -44.56427,18.58638 -1.6804,1.31707 -4.61624,4.85893 -0.96958,5.77894 34.61857,15.03066 73.08069,16.19937 110.09568,19.87699 33.23042,1.77919 66.728,3.70703 99.90597,0.26658 36.64433,-5.14093 73.8379,-14.21907 105.39855,-34.24105 4.93713,-2.66257 -0.86105,-8.04868 -3.26168,-10.33883 -7.28654,-5.14973 -17.15481,-2.74997 -25.51138,-2.87223 -9.85341,0.88488 -20.66168,3.28176 -29.29639,-3.10956 -6.81579,-3.15017 -14.32651,-11.19586 -22.34096,-7.15219 -4.07457,1.3968 -4.49248,6.98494 -8.07714,8.39763 -21.38006,-2.22551 -43.03283,-0.69199 -64.50561,-1.9351 -16.13604,-0.94915 -32.54002,-0.28116 -48.48519,-2.86209 -8.38262,-2.25976 -16.6724,-5.89874 -25.46269,-6.16842 z"
       id="path4179"
       inkscape:connector-curvature="0" />
    <path
       style="opacity:1;fill:#fff1f1;fill-opacity:1;fill-rule:nonzero;stroke:none;stroke-width:1;stroke-linecap:butt;stroke-linejoin:round;stroke-miterlimit:4;stroke-dasharray:none;stroke-dashoffset:0;stroke-opacity:1"
       d="m 509.74619,469.23951 c -1.88116,0.60402 -2.43774,2.94016 -3.64236,4.31065 -3.30916,5.14985 -7.04396,11.0097 -5.91111,17.42507 0.54957,3.60317 3.42273,6.27455 6.42159,8.02945 1.14349,-0.15053 0.89266,-1.82414 1.39824,-2.6288 2.40233,-6.22807 6.90287,-11.52229 8.60157,-18.03173 0.8789,-3.39696 -1.25662,-6.95606 -4.45368,-8.19959 -0.77656,-0.33348 -1.52616,-0.9462 -2.41425,-0.90505 z m -26.89469,27.53586 c -5.40097,0.1316 -11.48767,2.38216 -13.92822,7.55103 -1.0914,2.78845 -0.31435,6.04062 1.71883,8.20207 1.75569,2.26566 4.29583,3.64869 6.53009,5.34637 2.13257,2.32359 4.18056,4.9097 5.79274,7.61761 -6.04144,-2.92296 -11.71526,-7.55557 -18.70495,-7.79515 -3.30084,-0.46126 -6.53212,1.50867 -7.93327,4.46601 -2.20699,4.89555 -1.57939,10.54153 -0.58692,15.65937 0.76392,4.42083 2.58777,8.64037 2.89021,13.0947 -0.0436,3.36071 -3.42441,5.14024 -6.24896,6.00975 -2.93371,1.07391 -6.11007,1.31575 -9.07997,2.28109 -1.16806,1.95313 -1.28624,4.42046 -1.62513,6.64107 -0.69091,6.75187 3.48644,12.56899 7.10961,17.83443 1.0224,1.41725 2.38982,3.71808 0.59432,5.14416 -2.5989,2.25442 -6.32654,2.14412 -9.23041,3.73853 -0.73913,2.1238 -0.2429,4.53557 -0.26386,6.75943 0.25976,5.503 1.99618,11.36335 6.54981,14.84065 4.84582,3.82408 10.99378,5.35173 16.74445,7.27237 11.02657,3.09164 22.58103,3.23871 33.88345,4.56712 8.15491,0.82565 16.34582,2.04854 24.06366,4.98387 -4.04182,0.21014 -8.26267,-0.49718 -12.17733,0.76201 -2.02038,0.71399 -3.11316,3.06703 -2.18985,5.04552 1.90015,5.00107 6.43612,8.25433 9.89871,12.11568 6.68811,6.94002 13.91933,13.39468 20.03907,20.86028 1.87203,2.7014 3.38821,5.63769 5.47955,8.19713 18.58931,25.12248 40.16728,47.98203 57.28375,74.18355 3.06758,4.6243 5.60415,9.80732 10.13546,13.2402 9.24152,7.74968 21.53658,10.39975 33.27927,11.24516 9.4687,0.26794 18.9693,0.32192 28.42116,-0.36005 14.62438,-1.78019 28.95961,-5.35753 43.14838,-9.23287 3.92477,-1.27068 7.51714,-3.36247 11.30189,-4.97401 3.10415,-1.61418 7.11535,-3.55874 7.57815,-7.45978 0.30368,-3.93616 -2.9862,-6.80771 -4.3575,-10.20203 -5.47836,-11.58274 -12.2603,-22.72552 -21.5335,-31.68128 -3.94363,-4.08036 -8.51168,-7.45926 -13.16128,-10.6755 -5.16464,-4.4963 -9.65498,-9.71568 -14.90231,-14.13044 -17.26279,-15.2846 -36.81369,-28.11135 -52.06313,-45.57744 -4.75984,-5.75695 -8.36015,-12.36909 -13.15635,-18.10569 -10.07364,-12.84476 -21.55109,-24.65509 -30.24111,-38.53935 -5.96758,-9.63471 -10.15401,-20.547 -10.85553,-31.91802 -0.0492,-1.868 -0.38132,-3.76639 -1.62266,-5.23295 -4.18926,-7.64938 -6.10364,-16.24116 -9.04545,-24.39904 -1.44595,-3.62631 -2.39966,-7.8312 -5.46722,-10.48809 -1.37997,-1.35698 -3.53745,-0.61059 -4.41915,0.91738 -4.13729,5.59588 -4.24732,12.84989 -6.12318,19.2598 -0.22771,1.52835 -1.83141,2.16739 -3.14668,1.55854 -4.18778,-1.771 -7.33792,-5.34002 -11.01089,-7.96533 -8.95422,-6.9563 -17.72211,-14.18405 -27.06731,-20.61613 -5.29813,-3.37976 -10.57436,-6.97191 -16.46084,-9.25012 -1.88725,-0.57933 -3.86755,-0.8294 -5.8396,-0.79161 z m 52.37385,370.50594 c -3.65922,0.5425 -5.70168,4.12132 -8.82597,5.70643 -12.74052,7.95453 -26.95953,13.0848 -41.20515,17.62975 -10.45264,3.50764 -21.00143,6.74824 -31.39274,10.44125 -1.16211,-0.98488 -2.41036,-2.56631 -1.30699,-4.09858 2.78675,-3.68495 7.31374,-5.48618 10.57192,-8.69774 2.18152,-1.75362 3.01018,-4.52186 3.92349,-7.05041 0.7142,-1.62357 0.61333,-4.10945 -1.37606,-4.73481 -3.59446,-0.93656 -7.23554,0.76131 -10.5966,1.88159 -5.03335,2.20453 -9.38193,5.68993 -13.75806,8.95913 -12.84616,10.04747 -24.43963,21.76601 -38.24589,30.52965 -2.15388,1.24935 -4.33872,2.63615 -6.65091,3.46478 -41.43299,-2.39638 -82.9257,-5.69564 -123.76094,-13.29197 -12.59636,-2.27624 -25.0013,-5.31374 -37.44194,-8.28837 -4.25758,-0.89531 -8.43631,1.42296 -11.7729,3.83962 -5.71405,4.68013 -10.56886,10.42185 -16.92693,14.29073 -7.83593,5.84922 -14.98841,12.83348 -20.26595,21.10935 -4.58839,7.34162 -7.28833,16.14977 -6.29088,24.84538 0.81988,0.91964 2.47656,0.18313 3.64482,0.42663 13.07486,0.69898 25.93757,3.57769 38.85992,5.66699 10.49482,1.78277 21.25317,3.23759 31.85637,2.41178 13.06729,-0.46624 26.11018,0.24731 39.05475,1.95063 17.46319,2.03845 34.85425,5.06071 52.44043,5.91605 6.55601,0.0977 13.14357,0.31817 19.68151,-0.24414 12.05492,-2.44534 24.47812,-1.93424 36.69968,-3.21325 4.18409,-0.15718 8.29834,0.96283 12.49544,1.03327 12.11956,0.55342 24.2834,0.43084 36.38649,-0.4217 4.9474,-0.25942 9.78961,-1.35895 14.44856,-3.01597 6.25861,-1.8611 12.76108,-2.68437 19.06253,-4.39942 7.94598,-1.9153 15.84248,-4.05641 23.60991,-6.59173 4.57521,-1.15624 9.65701,-1.29268 13.67175,-4.0172 1.43002,-1.50708 0.93001,-3.89029 0.99381,-5.79026 0.0558,-3.31101 -2.89293,-6.71919 -6.39199,-5.9851 -3.81102,0.69228 -6.57537,3.94319 -10.45356,4.47094 -0.89988,0.35411 -3.07739,-0.0349 -2.17998,-1.36865 2.77632,-3.98715 7.56016,-5.7392 11.79756,-7.69406 5.98509,-2.54674 12.90348,-4.39244 16.88253,-9.96529 1.61221,-1.50082 2.62277,-5.20879 -0.54992,-5.4105 -4.84338,-0.33244 -9.49187,1.64596 -13.90849,3.39328 -1.623,1.1411 -4.33264,1.11 -5.06773,-1.06533 -1.16115,-2.75592 0.46714,-5.86794 3.01105,-7.16881 3.71317,-1.90704 7.31042,-4.13075 10.1675,-7.2255 3.66654,-3.89617 6.96801,-8.32136 8.8679,-13.35856 0.84512,-1.83232 -1.01513,-3.302 -2.65346,-3.5733 -3.33174,-1.06312 -7.13111,-0.29346 -10.17491,-2.19231 -1.41949,-0.98909 -1.32825,-3.24842 0.20961,-4.08377 4.47261,-3.82173 10.93374,-5.38641 13.89617,-10.85059 2.04508,-3.63958 3.56414,-8.21794 1.99503,-12.30557 -0.582,-1.08215 -1.7519,-1.97036 -3.03078,-1.86434 z"
       id="path4187"
       inkscape:connector-curvature="0" />
    <path
       style="opacity:1;fill:#a78a5d;fill-opacity:1;fill-rule:nonzero;stroke:none;stroke-width:1;stroke-linecap:butt;stroke-linejoin:round;stroke-miterlimit:4;stroke-dasharray:none;stroke-dashoffset:0;stroke-opacity:1"
       d="m 226.37546,151.99521 c -0.25628,-0.004 -0.53963,0.018 -0.84585,0.0691 -0.48511,-0.0296 -0.97206,-0.0182 -1.45743,-0.003 -10.6791,1.43389 -21.58957,1.24409 -32.28545,3.05543 -20.18827,3.34188 -40.12481,9.4581 -57.87315,19.80233 -19.13234,11.27231 -38.22604,22.95527 -54.997732,37.60964 -8.145394,7.3297 -15.564165,15.48097 -22.29057,24.12284 -8.682422,12.20082 -10.538781,27.68813 -11.040481,42.26802 -0.520146,21.88633 2.544775,43.64516 5.388311,65.28113 1.073816,5.00857 1.679693,10.68126 5.250204,14.63351 2.541682,2.29528 5.879745,-0.2372 7.583088,-2.35262 2.209475,-2.18899 3.366397,-5.40656 5.911109,-7.21317 19.626426,-8.56055 36.222771,-22.36656 53.407131,-34.84767 11.55141,-8.50092 23.54048,-16.41897 36.25332,-23.10191 10.66578,-5.74739 21.35067,-11.84025 29.95997,-20.50517 6.22857,-5.93877 12.64929,-11.92657 16.74691,-19.61739 4.31899,-6.99254 7.76218,-14.4979 11.94799,-21.54335 2.88275,2.16792 5.44883,4.88496 8.72732,6.55474 7.43957,3.91271 12.89224,10.59514 19.84674,15.22783 8.27694,5.60512 17.58642,9.43262 26.31516,14.2562 31.42689,16.22229 62.57979,33.09186 95.08329,47.10146 2.6993,-1.33551 6.04658,-2.51035 9.02572,-1.11219 6.12493,3.7755 8.22997,11.11579 10.47083,17.46699 0.16867,1.07284 1.80942,5.52475 2.01229,2.49811 -0.31958,-8.92704 -0.80813,-17.91081 -3.2034,-26.56671 -7.37337,-29.22946 -22.77516,-55.81907 -40.9536,-79.61871 -14.787,-18.93346 -31.62992,-36.54464 -51.34058,-50.39854 -6.83652,-3.89964 -14.42639,-6.25988 -21.69626,-9.21068 -10.50126,-3.79355 -21.45707,-7.42602 -32.77867,-6.82602 -5.02217,-0.26006 -9.94321,1.18282 -14.20936,3.79772 -1.35101,0.78276 -2.96847,1.04754 -4.47339,0.94943 0.0692,-3.81986 3.42671,-6.55583 5.75081,-9.22794 2.04217,-1.24264 1.55967,-2.52273 -0.23427,-2.5499 z M 384.52537,378.6395 c -0.0738,-0.0101 -0.15198,-0.0101 -0.23427,0.003 -2.37704,1.74825 -2.32458,5.45246 -3.35876,8.03438 -3.92852,14.60132 -6.36222,29.61048 -9.38577,44.35182 -6.88095,24.38435 -16.55989,47.87428 -24.97115,71.75696 -1.0406,3.07165 -2.04059,6.16033 -2.81377,9.31179 -4.44223,0.12665 -10.48608,1.2335 -11.57562,6.39938 -1.17413,7.08098 1.79657,14.1448 4.66823,20.47064 1.77965,2.88873 5.91402,1.31064 8.61143,0.98148 8.3188,-1.88883 16.3015,-5.1485 23.7258,-9.25506 6.09153,-2.39327 11.87985,-5.67376 18.1427,-7.59296 7.4463,-1.22712 14.94313,2.03357 22.31523,0.40691 2.98686,-1.86321 0.64648,-5.98211 -0.31565,-8.38209 -7.30977,-13.31228 -12.61382,-27.83094 -13.99973,-42.99301 -2.18007,-20.79989 -1.40034,-41.89529 -5.04306,-62.57589 -1.66363,-9.91773 -2.1652,-20.09085 -4.75207,-29.82435 -0.18314,-0.44729 -0.49694,-1.02282 -1.01354,-1.09246 z M 66.284774,438.08105 c -2.58418,1.1061 -2.176495,4.86334 -2.357541,7.21317 0.269972,7.61924 4.340542,14.93544 2.120801,22.56677 -3.620674,23.41697 -20.413414,41.71175 -27.83918,63.80151 -4.785222,14.31425 -7.973577,29.20759 -9.546063,44.21371 -1.138728,18.50123 -1.298852,37.37321 3.314364,55.44903 1.517953,1.73368 4.051971,-0.5522 5.699027,-1.05794 8.496463,-4.56016 11.426854,-14.54165 16.31782,-22.19687 10.835799,-18.30969 27.053038,-32.49194 42.84753,-46.39863 1.880336,-1.86236 4.294048,-2.82821 6.843268,-3.16394 3.97312,-2.35396 7.66835,-5.27527 12.11567,-6.80627 9.27783,-3.95678 19.63413,-6.08214 29.60241,-4.06405 6.69356,3.83043 14.74626,6.39171 22.40402,4.04185 5.5626,-1.4082 9.97926,-6.47856 9.85924,-12.34501 1.07665,-8.08995 -1.35899,-16.35538 -6.58679,-22.60871 -7.9897,-10.47061 -18.57275,-18.96693 -24.86021,-30.70718 -4.78413,-6.64452 -12.02298,-11.01893 -19.76288,-13.40295 -8.68805,-2.89887 -18.56542,-6.43549 -22.66049,-15.36347 -0.87231,-2.90935 -2.69727,-4.6704 -5.770537,-3.47958 -4.28457,0.28427 -8.471199,3.76718 -12.665605,1.23549 -6.189427,-2.95927 -11.166276,-7.95695 -14.865321,-13.6619 -1.183347,-1.22995 -2.37994,-3.03484 -4.209533,-3.26503 z"
       id="path4216"
       inkscape:connector-curvature="0" />
    <path
       style="opacity:1;fill:#abfdfd;fill-opacity:1;fill-rule:nonzero;stroke:none;stroke-width:1;stroke-linecap:butt;stroke-linejoin:round;stroke-miterlimit:4;stroke-dasharray:none;stroke-dashoffset:0;stroke-opacity:1"
       d="m 349.4089,698.12298 c -13.02387,0.0942 -26.03356,1.01576 -38.86981,3.31684 -28.89423,4.68646 -57.42378,12.38369 -84.07731,24.62099 -19.34132,8.47702 -40.15809,16.99617 -53.44659,34.25089 -5.07343,6.83046 -9.15394,14.70811 -10.75688,23.09204 1.64671,8.71369 8.5208,15.24255 14.81352,20.97865 6.92986,5.7179 14.60662,11.1831 23.44714,13.35609 7.87679,0.8201 14.30381,-5.02872 20.40407,-9.12683 5.9373,-4.09742 11.6151,-9.09139 18.69508,-11.02816 8.59226,-0.5848 17.43996,-0.94453 25.41259,-4.64602 9.74355,-3.75422 18.44841,-10.15815 28.11291,-13.65449 11.25703,-2.52603 22.22182,3.00406 33.16336,5.35378 6.44654,1.69188 14.88111,3.13515 19.79988,-2.614 5.88308,-7.64711 10.72079,-16.12927 17.18093,-23.33125 6.10135,-7.03415 12.35224,-14.17068 19.04527,-20.51997 7.95612,-2.90564 18.27308,-4.57598 22.38675,-13.00344 2.23623,-4.36144 2.03244,-9.80322 5.78041,-13.33145 1.48869,-2.03214 4.43381,-5.78013 1.22562,-7.66939 -4.01816,-1.96191 -8.21923,-3.97796 -12.54231,-4.95921 -14.71857,-0.76756 -29.45231,-1.16118 -44.19151,-1.0752 -1.86066,-0.0187 -3.72258,-0.0234 -5.58312,-0.01 z m 107.61324,13.66683 c -5.12108,0.21953 -6.40627,6.17308 -7.14165,10.21436 -0.79212,4.22386 -1.85617,8.42663 -3.42781,12.36967 6.55199,10.09185 6.92726,22.50673 7.62748,34.15225 -0.0188,7.12885 3.69535,14.44021 10.50288,17.25245 4.83975,1.61795 9.28385,4.15278 14.01946,6.00236 8.20617,2.11849 16.89183,1.93768 25.27696,1.15904 3.77503,-0.17784 7.06006,-2.20181 10.3352,-3.6177 6.20318,-1.86085 10.96299,3.89885 15.03301,7.60529 3.10113,2.45746 5.68555,6.70363 9.97269,6.96657 4.51379,-2.59546 7.76585,-7.1232 10.34751,-11.57561 2.33183,-4.53492 1.96675,-9.99097 1.14918,-14.86532 -3.1619,-8.14779 -8.88455,-14.99898 -14.43869,-21.6272 -9.533,-10.69485 -21.28709,-19.15064 -34.03882,-25.59509 -13.80834,-7.25224 -28.48955,-12.64781 -43.02015,-18.20434 -0.71865,-0.16842 -1.45822,-0.26354 -2.19725,-0.23673 z M 158.03149,790.5824 c -1.99542,1.42453 -1.63027,4.6837 -1.96789,6.89999 -0.52949,13.05985 5.52418,25.58794 13.79751,35.36309 1.81445,2.39187 4.55859,3.68518 7.5461,3.41054 16.91851,2.36545 30.39479,14.0707 43.24209,24.52234 4.90969,4.38569 10.16793,8.38961 15.99477,11.4671 9.32098,6.43765 12.76729,18.0239 20.49036,25.92553 5.99709,5.72695 14.69513,5.74632 22.42128,6.32048 20.57502,2.53624 41.03723,6.10822 61.69305,8.10589 16.97915,1.81281 34.109,3.35935 51.08164,4.34516 18.8094,-7.37294 31.43016,-24.02282 46.43562,-36.73666 7.22563,-5.64622 15.16155,-11.56135 24.56674,-12.419 5.30815,-0.15138 11.79625,4.14306 11.25996,9.96775 -0.72258,4.03818 -3.56167,7.46961 -4.42409,11.366 1.94757,1.41717 4.73228,-0.57348 6.86054,-0.86558 15.57332,-5.50868 31.59251,-10.61878 45.57743,-19.62231 4.25803,-2.86311 8.10935,-6.35969 11.61507,-10.05654 1.58524,-16.96718 7.44813,-33.16821 10.14532,-49.95712 -1.76296,-0.90014 -4.15811,2.50538 -6.16512,3.33655 -37.02775,24.06456 -80.75638,36.10227 -124.38975,40.4308 -24.77964,2.67036 -49.73536,1.06827 -74.51894,-0.75215 -40.22308,-3.03607 -80.9454,-5.36499 -119.88923,-16.55209 -9.69055,-3.93719 -18.3993,-9.93892 -27.4668,-15.07986 -12.4916,-7.45556 -24.4618,-16.47172 -32.89458,-28.49515 -0.15982,-0.42828 -0.47169,-0.97896 -1.01108,-0.92476 z m 350.32632,179.38995 c -2.58751,0.16723 -5.26091,1.16802 -7.85189,1.64979 -23.23113,5.35788 -46.84754,9.31562 -70.55108,11.67665 -14.9713,-2.86111 -30.23124,-1.13758 -45.1878,0.8361 -14.3105,1.42663 -28.86743,0.89974 -43.25442,0.5375 -34.16759,-2.39729 -68.14067,-9.78733 -102.55787,-7.74333 -6.94684,0.63594 -13.41595,-2.76712 -20.19691,-3.84456 -4.32224,-0.78277 -10.62972,-2.65539 -13.36843,2.09121 -2.2723,4.96614 1.64206,10.05413 3.76319,14.34499 9.95866,17.8651 27.16693,30.5046 45.71801,38.3963 21.5607,9.5782 45.2381,13.2344 68.59795,15.0996 37.83318,2.3095 75.90884,-0.8238 113.14953,-7.6496 16.66612,-2.7987 33.27587,-8.7938 45.85117,-20.4459 10.2805,-9.4594 16.75287,-22.13932 23.45702,-34.18939 1.73988,-3.2853 2.82826,-7.06445 2.43153,-10.75936 z"
       id="path4251"
       inkscape:connector-curvature="0" />
    <path
       style="opacity:1;fill:#c79c85;fill-opacity:1;fill-rule:nonzero;stroke:none;stroke-width:1;stroke-linecap:butt;stroke-linejoin:round;stroke-miterlimit:4;stroke-dasharray:none;stroke-dashoffset:0;stroke-opacity:1"
       d="m 562.83767,438.51508 c -0.32311,0.004 -0.65464,0.0315 -0.99876,0.0864 -7.65983,0.97037 -13.51715,6.88734 -18.65563,12.16747 -8.03904,9.65803 -16.46519,19.22436 -22.55198,30.28057 -2.62178,4.70403 -3.85646,9.96677 -4.62383,15.23522 -1.37747,2.63759 -4.1653,5.06504 -3.21325,8.40675 2.06317,6.56398 8.75529,10.09109 14.0022,13.84191 4.40166,2.81681 8.94751,5.39448 13.45721,8.0319 2.07667,-1.07955 2.8472,-4.08811 4.39941,-5.89137 13.46044,-22.05376 20.03806,-47.39639 25.5285,-72.39815 -0.0175,-4.3125 -2.49742,-9.81281 -7.34387,-9.76059 z M 457.96418,625.17985 c -6.71004,0.38092 -11.78807,6.63755 -13.02318,12.97633 -6.98063,20.53741 -17.22153,39.85854 -24.03901,60.48467 -1.82163,5.10053 -5.48881,9.28076 -6.90493,14.57679 -3.22159,8.09916 -4.50369,17.18455 -9.73841,24.24368 -2.99523,3.79315 -8.28366,1.35842 -12.28336,2.84583 -11.13594,3.24294 -17.79048,13.65383 -24.60619,22.23632 -4.31059,6.01955 -9.34979,11.45972 -13.97507,17.20313 -2.14871,3.40751 0.99431,7.36567 4.52024,7.96286 6.68076,1.79961 15.42908,0.5918 19.36832,-5.68917 1.39446,-5.33956 6.36791,-8.61154 10.00475,-12.42393 9.0753,-8.12797 21.12914,-14.90164 33.66645,-13.1095 8.0513,4.49116 12.04767,15.74193 7.48443,24.00449 -0.89482,1.83457 -3.52355,1.20545 -3.44013,-0.89025 -1.18129,-4.51721 0.83312,-9.62357 -1.37605,-13.85177 -3.76166,-4.331 -10.29736,-5.33269 -15.41771,-2.93705 -8.79593,3.70343 -16.65318,9.61915 -23.23014,16.48304 -2.00618,2.00101 -3.8425,6.05509 -0.83353,8.05409 5.50794,3.2421 12.29825,1.71374 18.34984,1.52895 6.77768,-0.31672 13.65979,-2.0258 20.38926,-1.49936 -0.59528,1.21668 -3.60396,2.05126 -2.37726,3.1886 10.0058,-0.64368 21.34626,-4.12169 26.29297,-13.62736 1.91966,-3.95736 1.57619,-8.51564 3.08502,-12.61629 2.07226,-10.41952 -5.20044,-19.34611 -7.20579,-29.0722 -0.62304,-7.77547 2.977,-15.13062 4.76686,-22.55937 6.02821,-20.28366 13.89938,-40.10803 24.92678,-58.23071 2.50779,-5.48211 5.30782,-10.8198 8.06397,-16.18713 1.59681,-2.88283 2.39996,-7.52585 -1.2281,-9.26245 -6.09662,-2.89215 -13.1581,-3.96186 -19.87631,-3.82978 -0.46116,-0.0286 -0.91639,-0.0279 -1.36372,-0.003 z"
       id="path4260"
       inkscape:connector-curvature="0" />
    <path
       style="opacity:1;fill:#fff1f1;fill-opacity:1;fill-rule:nonzero;stroke:none;stroke-width:1;stroke-linecap:butt;stroke-linejoin:round;stroke-miterlimit:4;stroke-dasharray:none;stroke-dashoffset:0;stroke-opacity:1"
       d="m 217.71648,229.58273 c -1.28489,2.29229 -2.93718,4.49392 -3.63899,7.04316 0.86398,4.49012 0.3239,9.26782 -1.99899,13.27345 -4.1984,7.3942 -10.43835,13.27652 -16.15337,19.47518 -18.49366,19.48814 -40.59235,35.15321 -63.50186,49.00161 -12.73953,7.87624 -25.83614,15.16128 -38.578025,23.02955 -1.697408,1.31898 -3.112547,2.94161 -5.050206,3.95222 -7.713428,4.94801 -16.498564,8.47958 -23.091737,15.00709 -1.574164,1.84474 -3.725749,3.92819 -3.473428,6.55459 0.853957,2.48348 3.840572,3.13159 5.878849,4.33422 1.193978,0.7786 3.681393,1.28092 3.10905,3.21504 -0.539869,2.19944 -1.494192,4.37898 -1.029928,6.69579 -0.02689,0.56545 0.172019,2.6641 -0.492394,1.20895 -3.058925,-4.92107 -9.458349,-7.99901 -15.106619,-5.92248 -5.385949,1.8509 -8.93901,7.60877 -8.345909,13.24758 0.411662,5.72092 3.482178,10.7452 5.56096,15.95844 6.152103,13.1154 15.723444,24.16378 24.368075,35.65379 1.952647,2.23226 3.308809,5.0527 5.642764,6.91717 2.496279,0.47735 4.886055,-1.32826 6.44022,-3.12681 3.467596,-3.99967 5.04892,-9.23414 8.324105,-13.35 0.831962,-1.26095 1.923719,0.0883 2.193225,1.00001 0.840192,2.16899 1.413448,4.4594 2.854488,6.35096 7.81545,11.59067 18.87865,20.71221 30.88808,27.70183 4.58835,2.52871 9.59059,4.65268 13.01745,8.80151 6.50721,7.50028 10.85412,16.59603 17.25826,24.16958 1.21987,1.1336 2.34309,2.94618 4.13188,3.10095 1.16337,-0.50662 0.006,-2.03319 -0.0528,-2.91333 -0.52108,-2.08923 -1.58923,-4.18457 -1.81182,-6.25866 3.19078,2.02439 5.33674,5.30997 7.91284,8.03201 6.71509,7.02648 14.39978,13.03291 21.243,19.92626 1.56003,1.59386 3.44735,3.26011 4.70043,4.95681 -3.86685,-1.34544 -7.11538,-3.98818 -10.56703,-6.12681 -2.47356,-1.48601 -4.68389,-3.54486 -7.33881,-4.66538 -1.33658,0.32419 -0.17969,2.00404 0.009,2.81361 2.04416,5.58675 5.26775,11.24312 4.61494,17.36303 -0.22578,2.35659 -2.02326,4.08331 -4.02184,5.10605 -2.09933,2.19217 -2.65013,5.53452 -2.48075,8.47725 0.27443,4.81653 3.88282,8.53006 7.33069,11.51225 9.36277,7.72769 21.1802,11.64934 30.82886,18.94743 2.91192,1.6521 6.42515,1.68046 9.56285,2.73752 4.05982,0.88539 14.89607,6.24924 19.02174,6.44106 10.75242,6.83424 17.46472,14.82055 24.15452,14.59247 8.09937,-0.27613 15.82369,-10.36951 26.22757,-20.41349 5.43441,-4.73066 10.38432,-10.10996 15.37083,-15.34849 6.76107,-7.28591 13.52476,-14.5733 20.20248,-21.93274 0.81334,-1.1244 -0.81089,-2.2133 -1.08112,-3.29973 -2.40414,-4.79661 -3.37977,-10.26979 -6.37988,-14.76229 -0.92355,-1.56171 -3.11032,-1.81117 -4.38797,-0.53957 -3.65349,2.75064 -4.80272,7.77187 -8.91589,10.0371 -4.96465,2.97694 -10.94982,4.17909 -16.69792,3.39507 -0.59518,-0.03 -1.34114,-0.6608 -0.52587,-1.04212 2.85927,-2.49076 6.10667,-4.58085 9.7998,-5.58219 4.64083,-1.67027 10.18554,-2.7664 13.04726,-7.23128 4.431,-5.69495 7.69101,-12.53439 13.64363,-16.86831 1.542,-0.88738 3.23891,-1.92928 5.03552,-1.96351 1.67715,1.03174 3.74092,-0.20536 4.43868,-1.86359 3.0207,-5.49994 4.55877,-11.69916 5.6716,-17.83309 0.42914,-4.27955 0.58864,-8.67692 1.99583,-12.78431 0.1592,-0.72873 0.95518,-0.99051 1.3159,-0.27739 1.16009,1.24394 1.86044,3.35216 3.64558,3.77589 1.83149,-0.92154 1.98381,-3.41172 2.85498,-5.06545 3.68142,-9.21497 7.80452,-18.52615 8.76226,-28.50835 0.28998,-4.61329 -0.27753,-9.39417 1.33976,-13.80005 1.95011,-6.56711 4.3375,-13.121 4.50044,-20.05109 0.2498,-2.55494 0.13465,-5.22255 0.58684,-7.70397 4.79669,-6.28639 5.39766,-14.4652 7.76172,-21.74613 0.99545,-2.94205 2.27234,-5.77802 2.88295,-8.84612 2.49242,-10.23158 5.82132,-20.54402 5.14829,-31.21023 -0.23055,-5.88689 -0.17793,-12.06253 -3.00887,-17.41523 -1.77405,-3.48655 -3.97051,-7.35707 -7.78353,-8.87583 -2.51236,-0.88533 -4.59332,1.53266 -5.27543,3.69729 -0.65801,1.53823 -0.86197,3.28729 -1.33772,4.83067 -1.69729,0.0258 -2.93901,-1.37169 -3.2257,-2.93866 -0.98559,-3.4293 -1.54577,-7.79302 -5.20642,-9.46105 -2.67132,-1.38596 -5.77103,-0.95735 -8.60861,-1.57911 -12.28995,-4.46406 -24.26565,-9.73904 -36.13265,-15.2045 -26.11338,-12.29199 -51.59897,-26.37105 -74.41244,-44.17172 -3.27394,-2.80477 -6.989,-5.18504 -9.65533,-8.60914 -1.35633,-1.78685 -2.13423,-3.9306 -3.32951,-5.79265 -2.08084,-1.49953 -4.41519,-2.6813 -6.33765,-4.42588 -1.34132,-0.95859 -2.47399,-2.31498 -3.93576,-3.0331 l -0.21421,0.14671 -0.0916,0.0628 z m -20.36124,288.47099 c 5.00717,2.27596 10.0279,4.60622 14.75165,7.43818 1.15696,1.73676 2.76155,3.72992 5.0969,3.62375 5.42411,0.24479 9.37261,-4.31233 13.73033,-6.62378 -0.48328,2.24632 -2.58873,4.18689 -2.17699,6.57866 1.36666,3.30339 4.56923,5.3556 7.09846,7.71631 1.65287,1.56354 3.78872,2.81525 4.92699,4.82031 -3.2841,0.82699 -6.03442,-1.62807 -8.81904,-2.90165 -11.51862,-6.33305 -23.01896,-12.78647 -33.92067,-20.15381 -0.21433,-0.15499 -0.49805,-0.34785 -0.68763,-0.49797 z m 73.82618,13.57263 c 0.7701,1.59409 1.48956,3.38629 1.59281,5.14709 -1.13113,0.72714 -2.68073,1.89936 -1.81441,3.43206 1.79362,1.86202 4.61682,2.22512 6.95087,3.12529 1.79117,0.40986 3.60213,1.31382 5.4402,1.26677 0.77136,-0.93789 -0.98951,-1.40236 -1.50001,-1.93716 -1.01868,-0.83297 -2.40694,-1.63392 -2.927,-2.82355 1.98122,-0.59057 4.0481,0.47847 5.97418,1.04008 2.54997,1.12371 5.58482,2.40122 6.72876,5.1324 0.1525,0.70961 -0.05,2.6216 -1.14555,1.64706 -1.46453,-0.52054 -2.75866,-1.83595 -4.2627,-1.9635 -2.52117,1.86165 -5.82024,2.53738 -8.80687,2.92699 -6.07603,0.24941 -11.97642,-1.76156 -17.53971,-4.06036 -6.66783,-2.979 -13.1467,-6.65302 -18.71668,-11.37943 -0.52947,-0.44655 -1.32207,-1.44575 -0.0431,-0.73071 5.70558,2.41126 10.65163,6.30001 16.16798,9.09185 2.73592,1.23967 6.20556,1.51003 8.61975,-0.57556 2.90157,-2.31386 3.66939,-6.24801 5.28149,-9.33932 z"
       id="path4290"
       inkscape:connector-curvature="0"
       sodipodi:nodetypes="cccccccccccccccccccccccccccccccccccccccccsccccccccccccccccccccccccccccccccccccccccccccccccccccccccccccccccccccccc" />
    <path
       style="opacity:1;fill:#895e4b;fill-opacity:1;fill-rule:nonzero;stroke:none;stroke-width:1;stroke-linecap:butt;stroke-linejoin:round;stroke-miterlimit:4;stroke-dasharray:none;stroke-dashoffset:0;stroke-opacity:1"
       d="m 375.55703,391.38905 c -0.53969,0.0836 -1.37459,0.87981 -2.577,2.55729 l -0.7349,1.09986 c -10.52407,11.03956 -18.82289,53.38028 -34.2287,68.44507 -9.39163,4.48328 -29.34099,-3.83986 -38.01654,-7.20578 -2.90641,-3.26554 -6.45562,-3.89192 -14.37458,-5.42776 -15.65503,-1.13154 -52.1208,4.58831 -57.7597,6.04427 l -19.52119,15.36345 c -1.56567,2.07217 -4.54132,6.11813 -6.01716,9.35371 -4.95978,6.13193 -10.84647,20.32444 -12.36227,18.99841 -20.90275,-16.19617 -56.88019,-49.95252 -81.38935,-51.02246 -7.85912,-6.62377 44.24357,36.61173 45.74019,38.7021 14.55375,24.26713 3.79534,13.99264 31.701,39.98198 14.21265,8.6804 93.5775,46.53364 133.43769,8.0837 39.86019,-38.44994 47.39163,-60.16361 48.95591,-100.74286 0.24308,-10.53897 10.92446,-44.81647 7.1466,-44.23098 z m -71.33774,76.95786 c 6.91191,7.10376 20.12618,17.86696 18.95156,19.89112 -7.5914,13.08173 -17.29214,22.1449 -27.1043,28.01179 -11.93269,7.13482 -10.69945,-23.13714 -26.37682,-19.85413 -1.61675,0.53442 -11.37529,1.99051 -12.45352,2.85815 -7.12601,5.73414 1.81506,17.04942 -5.68669,22.69009 -6.05048,4.54943 -16.12922,-2.09684 -19.60259,-2.69046 -8.94422,-0.6964 -6.02851,-4.39419 -18.0046,-6.36239 -1.60417,-0.26363 -7.24179,-19.86325 -2.7389,-24.67033 0.78175,-2.55206 37.47513,-11.98712 54.16086,-13.25251 5.5927,-0.6492 10.82259,-2.83903 16.0219,-4.81865 4.2392,-1.05028 16.0633,-0.0769 22.8331,-1.80268 z"
       id="path4309"
       inkscape:connector-curvature="0"
       sodipodi:nodetypes="cccccccccccccscccsscsscscccc" />
    <path
       sodipodi:nodetypes="zccssccccccccccccccssssccccccccccccccccccccccccccccczzzscccsccccccccccccccccccccccccccccccccssccccccczzcccccccsscccccccccccccccccccccccccccccccccccccccscccccccccsccccccccccccccscccscccscccscccccscccccscccccccccccsccccccccccccccccccccccccccsccccccccccccccscccccccccccccccsccccccscssscccccccsccccccsccccscsccsccscccsccccccccccccccscsccssscscccccsccscccccccccccscssccccccscccccc"
       inkscape:connector-curvature="0"
       id="path4164"
       d="m 37.856647,282.30722 c -1.438282,23.11217 16.221508,89.47123 11.937469,90.65254 -19.148616,20.52675 0.04318,43.5789 10.935343,59.77667 -7.327876,4.50581 3.538301,12.70005 1.15658,25.69124 -3.007637,16.40528 -15.393851,33.84745 -21.773402,52.51759 -6.379551,18.67015 -7.425943,22.57323 -8.32043,32.38903 -8.395719,23.62651 -7.862959,53.61283 -5.533801,80.97998 4.080001,8.50074 -0.01301,17.95144 -7.728592,24.61606 -13.1990472,9.004 -15.1501155,24.88865 -16.2216335,40.1102 -0.8580604,46.71507 16.1519375,91.66359 30.1251945,134.79402 8.362488,20.14653 12.090712,42.17251 21.323886,61.21463 5.391063,11.87265 10.904599,25.85754 20.211712,37.94009 10.058154,10.00967 18.508368,20.29602 29.543207,29.24729 20.88855,17.59205 40.46864,27.16007 61.60919,27.47913 15.14797,0.97102 12.12007,-20.18725 31.97967,-8.48566 21.22678,79.62237 113.07094,76.14927 169.24465,76.38577 27.33996,-0.1124 44.96235,-3.7553 65.55979,-5.6546 59.38169,-10.0253 62.91545,-28.3348 84.32641,-71.63128 16.04132,-5.79646 9.90026,-18.9699 16.1008,-27.39775 10.05563,-5.09965 8.63594,-12.1616 3.73605,-17.77772 -2.04081,-2.3391 -3.68684,-5.35037 1.25029,-13.66928 4.93714,-8.31891 7.93898,-10.18377 2.86061,-15.33634 -5.07838,-5.15257 -3.39688,-7.80763 0.72996,-10.48809 4.12682,-2.68046 2.19778,-21.00063 -0.76695,-25.2523 3.49362,-20.74896 5.02161,-42.96751 14.66556,-61.85084 17.2482,8.03264 34.81815,20.75319 54.6303,18.40655 27.89828,19.01775 68.11723,30.37501 98.8292,12.02689 21.88621,-9.18015 41.72811,-49.98713 35.29156,-69.88523 -4.85146,18.59882 -8.40627,41.95593 -21.86149,54.22338 -12.16426,10.52201 -29.45818,19.86986 -48.89919,19.12911 -31.77794,-2.15443 -62.31797,-16.45036 -85.12787,-40.65521 -16.49013,-14.2669 -15.22688,-46.41054 11.50164,-30.02409 4.40933,10.41528 27.49217,25.30531 30.19672,18.54711 34.71713,9.13626 53.4718,1.29313 90.1438,-9.27725 7.99147,-1.80495 19.31034,-12.08408 24.0168,-12.0269 -0.86287,-2.62868 -2.16828,-4.90417 -4.01225,-6.67312 -8.92092,-11.40987 -13.52105,-26.40242 -22.48046,-38.18916 -25.72999,-20.5852 -49.76001,-44.80971 -76.79017,-64.5364 -19.63198,-21.86092 -35.46089,-47.40097 -55.5008,-68.80757 -2.9839,-28.57911 -21.77955,-54.21405 -24.92184,-81.63348 3.31098,-21.25548 21.17586,-43.5171 10.74948,-64.27746 -19.72988,-6.28179 -31.99212,15.18098 -42.77354,27.85151 -5.87868,18.32506 -20.07965,-11.04516 -27.0969,8.95915 -9.01374,9.57855 3.69975,24.02655 -25.16106,20.85534 -18.06467,-0.0622 -4.67107,21.25645 -18.69261,23.89349 -5.83458,3.61618 -6.94094,8.88912 -7.03563,14.41158 -6.84408,-2.94307 -30.95514,0.68578 -41.17062,-32.22381 -13.51279,-43.14055 -9.65896,-62.37369 -17.83351,-106.81118 8.93455,-15.90515 -8.77891,-27.61822 -1.50182,-50.72408 6.72371,-16.92358 3.21043,-23.91841 2.97899,-28.50009 -7.78539,-48.40096 -50.97855,-108.73786 -88.40616,-135.83772 -14.99963,-13.38478 -46.84466,-19.20813 -64.1798,-24.74391 -16.59305,-6.23518 -32.99054,-5.13358 -52.16572,-1.19395 -19.17518,3.93964 -16.5168,-0.20857 -75.77284,30.58874 -59.256044,30.79729 -72.467503,77.7652 -73.905773,100.87738 z M 743.52968,759.02196 c 0.009,0.0284 0.0203,0.0553 0.0296,0.0838 0.008,-0.0288 0.0146,-0.06 0.0222,-0.0888 -0.0159,-4.3e-4 -0.0357,0.005 -0.0518,0.005 z M 213.2783,153.47484 c 8.74304,-0.0714 6.97642,-2.02286 15.15286,-0.80355 -2.36271,0.95427 -14.71032,15.36476 -3.37848,10.74702 17.00961,-12.06474 50.09606,3.8558 67.35358,10.75405 41.61881,28.3335 89.69963,91.40712 96.25805,145.01634 1.78235,38.85228 -0.43994,-19.63028 -20.39172,-6.62133 -34.99857,-14.48519 -79.64465,-39.50098 -114.19109,-56.88988 -10.17489,-3.38882 -34.91817,-31.36979 -21.99465,-11.67919 32.06521,28.44037 81.48924,52.49402 120.42278,67.37797 17.43275,-1.14985 8.53136,14.05524 16.76663,13.50899 2.85222,-20.59233 17.40081,0.4182 16.30303,11.72358 2.25377,15.1333 -2.76722,27.30356 -5.5412,40.4012 -4.75013,9.25702 -3.84986,19.80068 -10.06639,27.21282 -0.86349,20.46062 -1.40475,13.57732 -6.31893,32.92355 1.78781,12.19096 -4.07595,25.97192 -9.06765,37.82173 -3.90538,13.98493 -6.5559,-15.67162 -9.42029,11.94058 1.73671,-6.08179 -3.60719,26.31655 -9.86911,20.89234 -9.06404,1.7014 -13.42851,12.09664 -19.09458,19.58039 -4.7184,6.59026 -15.32649,5.18536 -20.84302,11.04048 -9.8181,4.80124 15.51544,5.25049 20.46571,-5.37597 9.89281,-16.21887 10.2174,4.46476 16.17725,12.55464 -19.51492,20.41548 -37.21845,43.40333 -62.13692,56.90151 -15.14329,-11.68771 -32.79756,-18.21352 -51.70803,-22.09331 -11.63641,-10.54965 -47.78266,-19.39822 -36.75886,-38.93144 14.06175,-5.36259 -8.7375,-32.65813 2.46605,-23.55811 33.2736,22.64374 4.72564,-2.18807 -8.81364,-14.17977 -23.18795,-28.10967 2.01794,11.429 -13.18348,-5.33159 -8.34731,-11.32949 -13.01501,-22.13735 -21.6494,-27.99701 -13.47699,-5.95311 -31.19376,-19.04819 -39.89815,-33.95003 -4.372906,-18.21923 -7.956952,13.8715 -18.906474,11.38256 -11.604681,-16.42532 -24.850079,-29.41536 -31.987956,-48.6474 -11.07466,-21.0979 12.505897,-31.17862 20.873498,-15.23796 0.992428,-5.5614 -1.142427,-2.63242 1.372841,-9.48154 1.386478,-3.7754 -11.186641,-4.18206 -9.005044,-9.25095 4.604011,-10.69726 27.56143,-17.82731 30.649899,-23.24882 37.922636,-22.64624 70.492836,-39.32025 102.070736,-71.39728 8.40357,-9.82265 22.95104,-21.14563 18.77399,-34.59121 -5.3158,9.66604 -10.62862,21.77614 -19.88618,29.76022 -17.5394,18.8376 -32.2527,22.44734 -53.50725,36.05401 -27.33765,17.75139 -46.739926,37.07286 -72.432308,47.81337 -14.756179,25.73556 -17.275816,-5.21553 -18.675892,-18.2573 -11.966381,-85.06022 6.016461,-93.34812 20.251471,-109.65529 14.235011,-16.30718 44.744499,-35.28717 64.842799,-47.05954 20.0983,-11.77238 52.29641,-20.9548 78.52552,-21.16888 z m 171.17648,224.94825 c 2.11661,-0.23615 2.99322,13.52282 5.17375,28.74669 8.47159,44.67304 -3.1492,67.85371 20.02089,108.66318 6.72454,16.09478 -14.6594,2.71099 -25.24489,7.92093 -10.5855,5.20996 -18.68606,7.50186 -20.85287,9.89133 -7.39503,3.08327 -22.4025,8.97453 -26.33489,6.10098 -4.9598,-11.32052 -11.1884,-28.38616 6.58927,-27.12896 5.68917,-21.64219 16.15915,-41.59178 21.98479,-63.12334 10.20241,-25.91123 5.97691,-26.58652 12.96491,-52.82453 2.71312,-12.92463 4.42903,-18.10459 5.69904,-18.24628 z M 66.455619,438.24063 c 1.650389,0.0239 4.244558,2.61625 7.972719,9.19835 18.013928,16.0601 15.092388,4.75219 27.649302,6.62379 8.99399,23.18504 29.95497,12.03155 44.49168,32.62647 7.83847,17.16037 30.81226,27.82554 31.25219,48.01636 1.50344,17.8289 -14.82345,20.94628 -28.37185,15.06507 -8.35778,-8.165 -36.9371,-0.057 -45.84377,9.05532 -1.57327,-0.6627 -3.861168,-0.12537 -7.141666,2.63373 -13.544941,12.55521 -28.151917,24.70259 -38.645384,40.25324 -8.028513,9.78627 -10.957122,27.74998 -25.538354,30.22631 -8.090432,-32.90357 -4.264128,-68.89079 5.906171,-99.85014 10.9047,-30.11766 26.624558,-40.75464 29.001367,-71.87357 -3.431624,-9.65246 -4.363269,-22.02748 -0.732405,-21.97493 z m 496.352451,0.33609 c 3.77541,0.0819 6.63062,2.82368 7.34387,10.01708 -6.37814,26.69609 -13.23584,55.19325 -29.54814,77.93933 -8.228,-5.36786 -38.10382,-18.68235 -24.22643,-29.52102 -0.0113,-14.70606 12.00284,-27.39196 21.1562,-39.40986 4.20917,-6.51027 16.96859,-19.20568 25.2745,-19.02553 z m -53.47618,30.75897 c 16.66519,5.19782 -0.69817,19.18166 -2.33288,29.49882 -14.35523,-7.81736 -2.12896,-22.80849 2.33288,-29.49882 z m -26.72206,27.72328 c 3.33706,0.0205 7.04336,0.92728 9.5214,2.32548 15.54452,8.04313 26.62834,18.20932 41.76247,29.6887 19.34261,17.50899 9.40279,-1.92672 19.30913,-15.03793 7.76526,-6.63032 11.49632,27.41414 19.37571,36.69968 0.54227,37.3427 34.1708,58.92962 51.69323,88.54826 19.5398,24.16039 48.02534,39.31226 68.88895,62.58574 17.31065,10.44114 28.67481,27.04559 36.63309,45.21 10.46491,12.40033 -6.53463,14.65979 -14.13783,19.4423 -18.32975,4.64691 -35.16869,9.30602 -52.54402,10.02201 -19.35536,0.53055 -44.37879,0.53726 -58.1148,-16.11314 -18.6632,-31.5699 -44.38264,-57.06766 -65.5302,-86.75792 -8.03868,-17.05183 -58.33682,-46.61378 -16.01203,-42.07811 -17.18318,-7.67253 -39.38815,-5.54637 -58.44279,-9.83706 -15.73449,-5.22747 -26.38059,-6.8809 -24.73936,-29.26702 25.62792,-5.33732 -5.27496,-10.75008 3.18366,-33.21762 27.65008,-4.31513 9.41616,-11.51238 12.00963,-33.844 5.7361,-23.23862 42.05265,16.95477 21.93548,-8.00723 -16.50678,-8.95919 -6.60698,-20.01855 5.20828,-20.36214 z m -286.26832,20.29801 c -2.47039,-0.0519 29.53517,19.07486 41.4542,24.69743 11.8645,1.49827 -12.26289,-9.97877 -8.51772,-15.14644 8.4951,-15.54403 -10.78629,11.67556 -16.95406,-1.8964 -10.50588,-5.48931 -15.15897,-7.6373 -15.98242,-7.65459 z m 197.74471,9.89871 c -1.8447,17.64069 -3.38261,43.66864 4.51286,64.35636 5.10764,11.51854 16.87996,59.2807 29.26703,69.52273 -4.43407,11.52061 -8.58302,24.74582 -13.16129,34.90687 -24.1696,-4.58435 -41.73029,-4.11748 -83.48794,-1.49196 -41.75765,2.62552 -120.83589,25.04297 -145.7605,48.66739 -24.92463,23.62442 -25.2411,33.49043 -21.66175,1.62019 9.46445,-29.11458 -3.46164,-56.29117 -14.62116,-82.37576 -4.64496,-12.44276 -24.26958,-66.20565 -28.06852,-73.15028 -2.01308,-2.37162 -11.62055,-9.35388 -14.5398,-19.60752 0.29132,-1.47443 0.36928,-4.45762 -0.28113,-6.96904 10.7754,-6.37319 27.17585,-13.12799 37.17809,-6.4709 5.0574,16.83407 10.1041,36.88514 14.96149,55.22954 10.03903,22.69623 18.28142,47.36823 33.35572,67.40193 0.74266,-3.164 21.09236,-15.52056 32.40137,-19.14637 12.95082,-2.44798 20.38943,-6.04994 33.20775,-9.59538 31.92677,-12.36749 66.80465,-9.79605 99.78603,-17.12422 15.8736,-10.51584 26.85346,12.83682 16.61867,-13.84438 -7.18769,-26.43807 -3.5974,-57.49955 -7.61022,-81.34987 5.36477,0.1048 15.73103,-2.0658 27.9033,-10.57933 z m 19.20062,3.8125 c 12.54358,-0.0881 28.93854,3.57352 36.54186,2.53017 0.20163,8.06159 1.26491,16.16864 -8.05411,20.05633 -11.81081,13.42056 0.31784,29.59116 -6.27362,44.79323 -0.75926,15.51593 15.20949,24.67973 3.07763,39.20025 1.74785,-0.2595 -7.13593,4.15072 -6.51776,13.46214 -0.99011,2.11761 -1.95119,4.41342 -2.90253,6.77176 -15.25069,-29.77527 -34.55716,-86.09037 -32.21394,-116.84119 -0.2032,-7.75183 6.9939,-9.907 16.34247,-9.97269 z m -142.1798,0.12336 c -1.60604,0.43421 -2.54613,16.60984 -15.81229,9.02079 -39.94229,-25.8198 7.47763,16.72771 27.86633,7.41786 12.56607,-3.56883 -21.28941,-4.65987 -9.86912,-10.67305 -0.97552,-3.97723 -1.54656,-5.57828 -2.02709,-5.75821 -0.0536,-0.0201 -0.10606,-0.0213 -0.15783,-0.008 z m 8.55224,8.09108 c -2.55441,0.0897 -1.26865,2.54797 11.60768,9.17862 4.06163,-4.37833 -7.87428,-9.30953 -11.60768,-9.17862 z m 74.63238,0.44883 c 6.94669,0.0776 10.78396,6.16479 2.89513,13.93807 -2.15561,15.11187 -9.5551,27.49548 -20.86027,37.19289 -15.07115,6.32156 -20.88963,21.81621 -29.9723,33.62452 -8.23184,-1.55628 -22.18506,-20.05115 -18.83073,-28.41623 21.685,-15.46496 34.74862,-40.32995 57.70052,-53.41206 3.1548,-2.06878 6.34939,-2.95756 9.06765,-2.92719 z m -197.68554,15.50401 c 1.20319,0.0203 2.58267,0.21391 4.16023,0.59679 -1.12569,14.85641 6.62769,29.91594 18.51506,39.16819 16.23796,19.41262 44.24013,17.13152 63.1554,32.14735 30.9678,28.69901 16.25593,-6.23129 27.87123,-17.73086 -0.32749,4.23228 6.37468,20.99595 2.22684,30.24112 -1.04781,2.33547 -4.69858,3.23043 -19.19323,5.23294 -19.55932,9.09453 -44.86619,8.34261 -59.24918,25.97978 -0.22988,4.51027 -4.79088,-3.21846 -5.05786,-2.69292 -10.49872,-20.3278 -21.85916,-40.79605 -29.00315,-62.58575 0.51005,-12.32782 -21.47304,-50.66097 -3.42534,-50.35664 z m 15.40539,1.28481 c 8.76955,-0.39422 24.03302,11.84021 30.20905,18.63097 27.24753,14.75866 73.3707,16.15022 59.39715,56.58586 -8.68678,1.35153 -18.02315,-10.49443 -26.20666,-14.57926 -26.65797,-7.89864 -58.78718,-19.8458 -69.59425,-47.025 -1.20965,-9.73398 1.60113,-13.40607 6.19471,-13.61257 z m -73.115768,10.91225 c 15.160308,21.31412 26.712308,46.16556 36.248398,70.93825 8.09322,31.34431 31.8836,60.11755 25.24982,93.93656 -6.66992,16.33008 -0.65843,-33.33082 -13.61749,-24.74922 7.60886,26.13133 6.52803,52.73589 3.68427,79.60391 -1.8915,14.74028 2.12905,38.0454 11.84934,46.04107 7.34172,9.50242 -20.7434,12.93442 -20.96137,24.76895 -18.98631,22.36644 -33.74283,48.25512 -48.630399,72.22798 l -0.727493,0.47841 C 74.989103,920.65638 68.693338,899.02968 58.837317,882.55112 48.625439,853.66318 38.743331,824.35521 28.56908,795.26546 17.3861,759.44253 4.8186629,722.0205 7.8271837,683.96547 7.8457441,656.51573 33.178318,642.59572 49.880642,625.42898 61.456371,602.34576 77.764898,581.992 98.895742,567.43253 Z m 258.357638,0.6831 c 1.66261,15.58587 8.13925,42.29955 12.7889,53.88554 -26.24757,14.47611 -58.55472,7.08691 -86.87381,15.578 -6.95246,3.0665 -4.84504,-9.91682 -3.71633,-13.1884 -7.83676,-35.98644 8.96041,-15.28211 16.86281,0.0494 15.06468,16.67185 19.66904,-12.73644 28.12031,-21.02796 13.46847,-8.94088 27.07143,-19.91342 32.81812,-35.2965 z m 102.71323,57.02975 c 4.66711,-0.15971 10.11298,0.98651 16.02435,2.64607 14.03009,3.58111 -1.62602,16.53528 -2.54495,24.91197 -15.08893,22.97775 -23.37419,48.784 -30.64061,75.37219 -4.18217,13.46892 13.42689,25.46049 5.34146,40.69221 1.52488,13.81169 -15.2856,22.05329 -28.63818,21.28936 l 0,-0.003 c 21.5393,-11.1433 -55.71721,12.03628 -32.4359,-13.10703 9.38683,-7.48832 27.829,-24.05801 37.67131,-9.44741 -3.90294,33.04136 18.05065,2.12929 -4.16022,-11.70879 -16.41283,-1.25316 -33.0479,10.59659 -42.54667,23.20549 -1.64072,14.91531 -38.28392,11.1008 -20.28321,-4.14789 11.8449,-12.27717 21.17645,-34.82266 39.7921,-35.22745 12.49466,4.74425 13.09632,-28.07241 22.63088,-37.6195 5.75354,-20.06592 16.87744,-40.82934 24.39658,-61.4933 1.99975,-11.20084 7.61454,-15.09729 15.39306,-15.36345 z m 31.28671,7.71132 c 7.58025,-0.0439 18.1358,12.66008 23.81705,19.36831 25.78029,30.40536 49.80373,62.36482 73.45854,94.40019 15.58662,17.68866 -28.98957,-8.15935 -17.73332,19.51628 -0.16293,19.66943 18.39768,34.08005 29.39771,45.4196 -15.64963,-3.78675 -30.08518,-10.52684 -43.6983,-18.84303 4.24005,-22.24232 -10.60711,-39.08087 -29.47171,-51.83626 -14.85072,-10.00394 -40.69602,-21.78076 -58.26176,-28.86352 -3.13324,-9.46638 -7.1071,-11.03455 -10.53063,-16.97524 6.28222,-14.92167 20.14707,-39.01648 25.26671,-52.46518 1.47886,-7.04779 4.31014,-9.70121 7.75571,-9.72115 z m -34.44969,66.62268 c 0,0 4.87419,5.02461 7.71579,10.60059 -5.2391,-1.96467 -4.32098,-2.27854 -9.48665,-3.70765 0.33947,-4.70919 0.014,-1.87353 1.77086,-6.89294 z m -101.04468,-1.31936 c 21.25066,0.0603 32.35591,0.68478 45.52813,1.53142 10.01078,5.38212 17.35233,2.97997 6.0344,15.78269 -2.34479,17.09769 -11.53871,18.22932 -25.30162,22.54211 -11.54636,11.87595 -23.72404,24.64773 -32.8995,39.70332 -10.68851,21.93192 -40.57259,-7.71413 -60.76088,3.05049 -15.37334,8.37167 -29.6046,17.73623 -48.03854,16.26357 -12.73764,2.50099 -25.82728,20.50037 -38.12012,20.92439 -16.95508,-3.14452 -40.43101,-24.73365 -39.76003,-35.63188 10.07529,-35.17765 38.7027,-44.9267 72.07508,-59.60184 33.37239,-14.67512 83.59592,-24.43061 111.48002,-24.5544 3.48551,-0.0154 6.72726,-0.0184 9.76306,-0.0102 z m 101.38157,13.7408 c 1.6509,-0.0667 3.66545,0.52544 6.15032,1.97531 29.19931,10.60631 63.12706,24.42245 80.49909,51.97436 11.68939,13.68627 9.57936,26.93409 -3.71632,37.75267 -7.69721,2.5374 -17.45866,-23.64424 -30.24851,-12.03923 -12.16793,3.08961 -30.09036,3.03835 -38.66758,-3.70645 -28.30796,-6.87254 -8.89938,-29.09233 -24.64812,-53.7006 5.01764,-7.63679 1.71629,-21.89591 10.63112,-22.25606 z m -306.1915,17.03298 c -0.0436,-0.003 -0.0895,0.12008 -0.12575,0.47101 0.35241,0.65029 0.25634,-0.46518 0.12575,-0.47101 z m 440.38625,39.21997 c -2.64996,0.053 -4.71484,1.87626 -2.70279,7.18113 14.95535,-0.92728 7.76181,-7.28222 2.70279,-7.18113 z m -287.13391,16.26352 c 4.28188,-0.0199 8.64932,0.66147 13.1095,2.27861 21.74749,10.0348 49.72475,3.19836 75.82594,7.662 16.08922,2.27035 38.00818,-3.18029 50.29004,1.4747 9.06225,-22.1249 25.13413,-1.89622 36.74653,2.19232 16.61925,3.11867 49.04274,-11.24149 52.8868,11.27722 -38.83098,26.2426 -101.26179,37.28566 -134.46603,37.28906 -33.20421,0.004 -29.30591,1.8265 -59.59442,-1.17383 -30.2885,-3.00031 -88.41002,-4.07596 -126.12093,-21.67899 3.54785,-9.72644 32.64293,-27.52578 48.40353,-22.93423 13.42537,-7.29768 27.62659,-16.31548 42.91904,-16.38686 z m -146.48798,5.62258 c 14.28722,21.55191 38.28493,32.34174 59.26398,44.68965 45.26124,13.1733 90.94815,14.64324 144.94672,18.6729 53.99856,4.02966 130.35551,-7.6541 182.4503,-45.44427 -2.61518,16.79528 -8.92091,33.56841 -10.4437,50.80545 -12.42582,14.14952 -34.93171,21.67359 -53.22218,28.04879 -22.63463,8.98078 0.47917,-6.2366 -7.57815,-14.70256 -8.05731,-8.46595 -15.90986,-4.72152 -29.29167,3.8791 -13.38182,8.60062 -30.84231,33.4389 -51.63159,40.79576 -38.03017,-2.41947 -76.22847,-6.55278 -113.7981,-13.11441 -32.82932,2.42104 -22.68035,-24.95778 -48.31228,-35.08196 -16.33601,-13.69702 -35.82778,-32.75696 -57.2936,-32.94881 -11.03191,-9.9828 -20.61134,-31.18991 -15.08973,-45.59964 z m 384.31333,12.10089 c 0.0684,-0.0386 0.19385,0.0307 0.39456,0.32057 -0.29526,0.89267 -0.59974,-0.20471 -0.39456,-0.32057 z m -365.66264,38.48755 c 23.63307,5.37831 40.91794,24.97414 59.22699,39.63674 13.85608,4.31341 -2.11685,9.14402 -7.23537,13.63968 -18.66649,14.78515 -41.37752,27.31007 -51.51567,49.39487 -6.47225,8.97568 -1.81235,23.77103 -10.41657,29.42733 -25.174,-1.92663 -53.76164,-12.58682 -67.189856,-35.24225 3.123386,-16.56839 16.373186,-30.1148 24.103126,-45.17054 14.90912,-19.421 27.71308,-44.7731 53.02735,-51.68583 z m 19.65684,22.8923 c -3.62301,-0.19243 -6.43389,2.76523 -1.27493,11.82715 13.59825,-4.53389 6.5701,-11.54592 1.27493,-11.82715 z m 339.24637,4.08375 c 5.62451,-0.28879 4.24043,14.02215 -4.64849,19.12419 -3.82164,2.19353 -9.89667,5.34316 -9.92584,7.31182 -0.096,6.49102 12.73299,2.15353 14.15757,6.81861 0.64353,2.10734 -7.9414,16.77655 -17.29438,20.589 -9.35298,3.81246 -4.80019,13.69766 0.44142,9.81487 1.40011,-0.63748 16.0513,-6.66144 15.92819,-1.33168 -5.15553,11.39633 -18.24649,9.90589 -28.73682,18.43863 -5.84805,5.78247 2.72171,4.48344 6.30815,1.69664 12.03362,-8.34262 12.82572,8.26531 9.54852,9.60278 -3.27718,1.33747 -7.28183,2.52031 -13.55584,3.27244 -1.79005,1.51384 -28.11324,8.24173 -36.10044,9.53373 -7.5229,1.09036 -8.69967,4.1544 -24.20422,4.82112 -15.50455,0.66672 -27.82031,1.20111 -43.77476,-1.08507 -13.0503,1.77982 -26.34336,0.64621 -39.40739,3.69661 -38.59029,2.10161 -76.31606,-11.02681 -115.13964,-7.55597 -23.09543,-0.13367 -46.30618,-8.18927 -68.65468,-8.5843 -2.07609,-19.21991 12.66837,-35.77092 27.30404,-46.32958 9.77392,-5.1137 17.51625,-20.76967 29.45939,-17.03051 52.15344,13.73218 106.02539,18.06479 159.67639,21.32143 21.35622,-10.62757 36.29768,-30.30123 56.67463,-42.34445 7.18742,-3.06391 18.08157,-6.27091 11.99237,4.98387 -1.27258,6.70597 -19.95281,11.27872 -11.50656,17.06009 24.43719,-9.17794 52.362,-14.60697 75.096,-29.62459 2.66328,-2.89278 4.78754,-4.11881 6.36239,-4.19968 z M 507.9361,970.07839 c 2.77571,5.73947 -6.53048,17.78981 -12.11321,28.01667 -5.58272,10.22704 -20.63575,28.73624 -50.29744,35.32124 -29.66168,6.5851 -202.82375,36.8743 -240.67363,-52.74378 -1.94439,-18.44232 25.87086,-0.62165 36.60843,-3.55111 41.06103,-2.31474 79.63288,8.90211 120.25667,8.46347 22.46771,1.03118 45.56508,-7.28781 67.38961,-1.93344 25.77343,-2.46973 52.88531,-7.12916 78.82957,-13.57305 z"
       style="fill:#000000" />
    <path
       style="opacity:1;fill:#8193c0;fill-opacity:1;fill-rule:nonzero;stroke:none;stroke-width:1;stroke-linecap:butt;stroke-linejoin:round;stroke-miterlimit:4;stroke-dasharray:none;stroke-dashoffset:0;stroke-opacity:1"
       d="m 392.8976,528.43199 c -1.62423,-0.0558 -3.71301,2.30364 -5.26255,2.66086 -6.45542,3.58677 -13.54905,6.16408 -20.95399,6.72983 0.20967,9.8965 1.2919,20.5476 1.58567,30.74665 1.24224,19.78817 1.00218,40.20992 8.36237,58.94587 0.69853,1.69948 1.78122,6.178 -1.69911,4.40435 -6.11422,-2.77357 -13.0208,-1.83536 -18.9121,0.98395 -31.85916,7.28206 -65.59269,5.18249 -96.65169,16.39673 -13.22547,4.71013 -26.98902,7.74838 -40.1842,12.50039 -9.93208,4.12278 -19.46255,9.44128 -27.59504,16.53236 -12.84144,-17.21706 -20.43965,-37.62277 -28.85271,-57.22703 -8.69849,-20.50161 -11.80711,-42.81527 -19.25982,-63.72753 -3.1877,-4.55763 -9.97973,-3.508 -14.80613,-3.37354 -7.91435,0.99406 -15.28446,4.95668 -22.1796,8.50291 -1.32511,8.67797 3.91335,16.31541 9.91596,21.97246 8.01611,7.92184 10.07982,19.61868 14.52501,29.57035 9.22215,25.26853 19.28164,50.22872 28.99328,75.29573 6.87588,17.52362 8.65702,36.95526 4.15282,55.26653 -1.07724,6.77407 -2.22578,13.81209 -1.41305,20.6334 2.51987,-0.18197 4.2022,-3.82548 6.35254,-5.23049 11.18927,-10.75814 21.37338,-23.19901 35.79464,-29.76515 33.5758,-16.88798 70.27884,-27.12977 107.24827,-33.24228 25.81152,-3.6555 52.07014,-4.61103 78.11937,-3.83717 8.35594,0.16286 16.77894,2.01164 24.86514,2.72497 4.35577,-11.48959 8.97568,-23.03741 12.60148,-34.69724 -11.10999,-13.43056 -15.36216,-30.80793 -21.25484,-46.8647 -6.14563,-18.80312 -14.2657,-37.68429 -13.28458,-57.84356 0.0816,-9.29237 0.30709,-18.58225 0.45622,-27.8737 -0.21018,-0.11945 -0.43133,-0.17697 -0.66336,-0.18495 z m 63.90754,170.87223 -0.3206,0.17756 -0.0296,0.0147 c -0.40857,2.15804 -2.52851,4.68526 -1.23055,6.86301 2.24562,1.47352 5.04927,1.94593 7.3932,3.27245 0.65302,0.61695 2.35877,0.42276 1.60538,-0.72503 -2.21549,-3.36743 -4.46594,-6.89421 -7.41785,-9.60277 z"
       id="path4328"
       inkscape:connector-curvature="0" />
    <g
       id="g6253"
       transform="matrix(1.2121388,0,0,1.2121388,-27.28512,-94.901136)">
      <path
         sodipodi:nodetypes="ccccccccccccccc"
         inkscape:connector-curvature="0"
         id="path5970"
         d="m 169.29526,360.74533 c -6.95876,-0.56451 -13.1438,-1.83376 -22.66678,1.03179 -5.0766,2.37587 -10.81984,2.82317 -15.99404,4.86644 -0.68503,0.96086 -0.12508,2.42819 -0.3069,3.58505 -0.0381,2.78641 -0.16022,5.70572 1.23112,8.23362 0.53996,1.42047 1.6026,2.55272 3.01531,3.10881 4.03216,2.41162 7.52308,5.77409 12.05797,7.28725 3.84279,1.42522 7.97321,1.93078 12.04824,1.50322 8.9201,-0.58549 17.08585,-4.66708 25.07013,-8.34707 2.23315,-1.21882 4.86366,-1.91337 6.72529,-3.70945 1.26674,-1.17317 0.82061,-3.24502 0.0221,-4.55569 -0.74485,-0.75655 -1.17784,-1.71553 -1.75994,-2.55838 -3.962,-3.28256 -8.48495,-5.83335 -12.98027,-8.30972 -2.01383,-1.00755 -4.16749,-2.07485 -6.46222,-2.13587 z"
         style="opacity:1;fill:#ffffff;fill-opacity:1;fill-rule:nonzero;stroke:none;stroke-width:1;stroke-linecap:butt;stroke-linejoin:round;stroke-miterlimit:4;stroke-dasharray:none;stroke-dashoffset:0;stroke-opacity:1" />
      <path
         sodipodi:nodetypes="cccccccccccc"
         inkscape:connector-curvature="0"
         id="path5972"
         d="m 275.57732,343.18488 c -2.77298,0.24749 -5.62677,0.43675 -8.28281,1.29806 -6.32449,3.43542 -21.89666,-3.90741 -34.31645,16.98533 -0.8992,2.08716 -1.87459,4.99886 0.0225,6.83694 3.58657,3.7419 8.54511,5.64044 13.08108,7.93821 3.57287,1.93916 7.80301,1.00456 11.57766,0.30995 6.58689,-1.51175 13.04387,-3.71547 19.12653,-6.66534 5.44399,-2.99674 10.66759,-6.38549 16.00333,-9.5616 0.81047,-0.9889 1.84029,-2.04555 1.739,-3.45953 -0.0383,-1.59317 0.35682,-3.362 -0.31763,-4.8534 -2.14712,-2.10196 -4.90604,-3.47462 -7.38237,-5.15305 -3.38017,-2.02503 -7.27159,-3.57132 -11.25084,-3.67557 z"
         style="opacity:1;fill:#ffffff;fill-opacity:1;fill-rule:nonzero;stroke:none;stroke-width:1;stroke-linecap:butt;stroke-linejoin:round;stroke-miterlimit:4;stroke-dasharray:none;stroke-dashoffset:0;stroke-opacity:1" />
      <path
         style="fill:#000000"
         d="m 231.78483,352.11432 c -8.72677,16.14508 5.28224,24.43184 19.5413,28.94301 13.84983,-1.40488 27.63045,-4.67264 38.52573,-14.58365 14.92488,-17.28955 -8.52443,1.83064 -17.04879,4.63837 -9.48752,3.88729 -21.27593,7.34767 -25.9349,4.9341 -4.65897,-2.41359 -14.31815,-6.35407 -14.42995,-10.20196 -0.19485,-6.70909 11.68252,-19.59098 16.47005,-7.16212 2.68863,17.45664 32.24161,6.58611 22.31072,-7.43229 -6.38494,-7.06506 -5.6208,-6.25938 2.79365,-7.40405 11.84587,-1.41981 23.29913,14.03582 20.28559,6.05276 -4.70668,-12.4684 -14.61636,-8.64635 -33.18477,-9.24244 -16.79639,3.74274 -23.73569,6.98633 -29.32895,11.45828 z m -70.49478,1.62955 c -9.02235,-0.20357 -15.53924,0.95456 -22.60787,3.37776 -8.07851,2.76942 -5.97582,5.21009 -12.69675,12.13944 10.15878,-5.18488 15.54391,-3.65963 22.26399,-7.77225 -2.89877,4.05555 -7.01039,20.54825 8.60911,21.86041 7.24645,0.60875 14.74479,-2.83433 14.3622,-11.60864 -12.95451,-21.515 12.12756,-4.11612 19.94147,1.75001 -5.30693,-10.91469 -11.2587,-17.51346 -21.50717,-19.147 -1.33493,-0.10293 -7.07604,-0.57065 -8.36498,-0.59973 z m 37.24598,2.92691 c -0.74988,0.0632 -4.04226,-3.0788 -4.96597,-1.65871 -1.82307,6.15821 2.42351,18.13334 -4.4146,23.80699 -14.77919,6.88542 -32.07714,17.24308 -48.13518,6.57218 -19.74093,-15.35777 -2.25261,7.78953 10.22957,9.13176 12.4823,1.3422 24.11692,-2.66902 33.91963,-8.18253 10.57802,-10.26831 16.92515,-14.84657 16.79201,-2.75057 -0.61913,11.28343 -1.29273,27.00207 -1.73818,39.11748 -4.25689,14.9654 12.86283,19.68841 24.23495,19.49172 1.64338,0.0662 3.2941,-0.0271 4.92944,0.18794 7.99885,-0.34099 15.34939,-18.98759 5.72632,-11.64702 -8.19629,2.45952 -21.98874,12.69153 -26.23293,3.61683 -8.76143,-18.73321 0.62194,-36.16225 -2.37785,-50.66268 -1.61311,-7.79751 -2.71813,-27.46581 -7.9672,-27.02344 z m 62.71776,-3.17148 c 6.67812,0.40848 4.29207,10.36319 -1.43201,9.43999 -5.72409,-0.9232 -5.24611,-9.84846 1.43201,-9.43999 z m -104.16077,12.67858 c 5.41061,-1.30804 12.02862,7.07102 2.75179,9.77598 -9.27681,2.70496 -8.1624,-8.46793 -2.75179,-9.77598 z"
         id="path4164-6"
         inkscape:connector-curvature="0"
         sodipodi:nodetypes="cccszccccsccccccsssccccccccccccssccczzzzzz" />
    </g>
    <path
       sodipodi:nodetypes="cccccccccccccc"
       inkscape:connector-curvature="0"
       id="path4164-64"
       d="m 279.08225,454.1732 c -2.36367,-0.81834 -2.12217,5.68701 -7.90165,7.19913 -12.03255,2.08739 -23.49495,-4.46217 -32.44923,1.63944 -5.75677,-5.24662 -19.02639,1.03518 -23.23997,6.7397 0.75679,3.61352 5.60649,2.90838 7.12957,2.08903 7.12446,-10.786 15.73529,2.79316 21.51758,-6.74246 11.07301,7.35593 14.35495,7.43047 29.18839,0.21586 7.90971,11.29503 14.19697,-8.21779 5.75529,-11.14064 z m 30.50556,18.04023 c -14.95857,6.91261 -31.86673,13.1414 -61.07176,18.03051 -8.76623,1.6515 -24.39115,-1.05955 -34.22751,-0.76171 7.9859,7.59964 38.59327,10.88034 54.59857,5.07524 22.57511,-8.52154 35.19249,-11.11782 40.7007,-22.34404 z"
       style="fill:#000000" />
  </g>
</svg>
