<?xml version="1.0" encoding="UTF-8" standalone="no"?>
<!-- Created with Inkscape (http://www.inkscape.org/) -->

<svg
   xmlns:dc="http://purl.org/dc/elements/1.1/"
   xmlns:cc="http://creativecommons.org/ns#"
   xmlns:rdf="http://www.w3.org/1999/02/22-rdf-syntax-ns#"
   xmlns:svg="http://www.w3.org/2000/svg"
   xmlns="http://www.w3.org/2000/svg"
   xmlns:sodipodi="http://sodipodi.sourceforge.net/DTD/sodipodi-0.dtd"
   xmlns:inkscape="http://www.inkscape.org/namespaces/inkscape"
   viewBox="0 0 744.09448819 1052.3622047"
   id="svg7338"
   version="1.1"
   inkscape:version="0.91 r13725"
   sodipodi:docname="foods.svg">
  <defs
     id="defs7340" />
  <sodipodi:namedview
     id="base"
     pagecolor="#ffffff"
     bordercolor="#666666"
     borderopacity="1.0"
     inkscape:pageopacity="0.0"
     inkscape:pageshadow="2"
     inkscape:zoom="0.69999999"
     inkscape:cx="501.84345"
     inkscape:cy="492.59329"
     inkscape:document-units="px"
     inkscape:current-layer="layer1"
     showgrid="false"
     inkscape:window-width="1920"
     inkscape:window-height="1138"
     inkscape:window-x="-8"
     inkscape:window-y="-8"
     inkscape:window-maximized="1"
     showguides="false" />
  <metadata
     id="metadata7343">
    <rdf:RDF>
      <cc:Work
         rdf:about="">
        <dc:format>image/svg+xml</dc:format>
        <dc:type
           rdf:resource="http://purl.org/dc/dcmitype/StillImage" />
        <dc:title />
      </cc:Work>
    </rdf:RDF>
  </metadata>
  <g
     inkscape:label="Layer 1"
     inkscape:groupmode="layer"
     id="layer1">
    <g
       id="g8083"
       transform="matrix(0.50783776,0,0,0.50783776,717.50467,789.14246)">
      <path
         sodipodi:nodetypes="cccccccccccccccccccccccccccccccccc"
         inkscape:connector-curvature="0"
         id="path7408"
         d="m -890.57422,-959.54102 c -43.45201,-3.03139 -84.39308,-0.80088 -129.67588,12.4986 -47.0414,6.89659 -96.5028,20.48107 -131.1776,55.11859 -46.9071,27.41149 -92.6325,57.14803 -138.8595,85.45006 -36.069,34.43667 -36.2464,88.21222 -59.2228,130.10909 -19.3846,42.75088 -12.8595,92.26952 12.328,131.07076 31.0509,54.7413 77.2009,98.6707 118.634,145.31012 55.3157,48.24987 132.5825,49.25092 200.4857,65.43024 46.48209,8.25618 84.08672,-25.49299 129.03698,-27.86288 53.85555,-7.57142 98.45716,-40.47669 144.09497,-67.39056 82.66122,-46.06463 149.31707,-131.63018 151.54771,-228.98507 8.74756,-57.26966 5.57216,-122.68233 -37.1726,-166.60584 -37.6282,-42.87408 -85.19616,-76.18388 -133.62521,-105.63948 -38.91927,-19.83315 -82.86589,-28.73451 -126.39377,-28.50363 z m -75.47656,151.8125 c 12.61673,7.38467 23.94049,8.2456 38.9082,12.94727 14.63548,-1.64335 28.16075,7.81712 37.81408,13.72554 26.53038,11.64751 54.9913,22.59228 80.75623,37.70415 14.83706,11.50529 28.00809,26.8298 35.48665,43.36308 6.14473,23.45909 1.78201,49.24549 3.08562,73.7795 -2.83145,22.07375 -12.89021,43.92822 -24.27047,61.40726 -14.88657,10.70618 -22.84986,27.71299 -41.44437,34.30758 -18.67923,7.17816 -29.51906,17.08086 -51.42774,22.85547 -20.20299,0.18636 -40.71098,-1.20013 -59.68814,2.85742 -24.22852,-1.34925 -50.42927,3.0301 -73.16928,-2.85742 -23.1985,-12.75897 -45.9915,-26.00982 -61.4038,-47.1619 -12.2697,-14.8171 -26.0413,-26.16219 -22.8814,-47.92728 2.9819,-14.20957 4.4017,-29.13579 5.7129,-43.48113 3.6925,-14.12382 -0.054,-32.02227 5.7149,-45.71485 11.2344,-14.93159 11.8049,-31.80083 24.2851,-47.14258 4.945,-15.84474 16.5074,-27.11804 31.4297,-35.71484 19.9413,-13.51458 38.23173,-33.60344 64.84409,-32.85742 2.08013,-0.0648 4.17376,0.1198 6.24773,-0.0898 z"
         style="fill:#fccbf8;fill-opacity:1;fill-rule:evenodd;stroke:none;stroke-width:1px;stroke-linecap:butt;stroke-linejoin:miter;stroke-opacity:1" />
      <path
         sodipodi:nodetypes="cccccccccccccccc"
         inkscape:connector-curvature="0"
         id="path7981"
         d="m -1337.442,-588.12553 c 13.9427,39.89127 47.9828,83.38369 75.879,112.97714 28.1606,25.27987 53.1407,66.36749 84.5627,87.88847 27.9057,13.74641 83.5623,19.48501 113.9101,23.90872 71.33016,14.26961 129.08107,20.47949 192.33871,-20.72351 37.38653,-10.29693 74.2408,-23.00222 108.18838,-41.90342 26.98192,-5.87895 136.54205,-150.2016 162.26813,-149.97206 9.2668,34.90939 -114.26976,178.96062 -139.68148,170.09288 -26.54292,9.43778 -48.90641,18.85482 -79.89796,27.2842 -33.6361,22.44169 -80.00913,14.0287 -114.13471,35.7014 -30.63346,15.89575 -66.32577,10.62607 -99.53617,11.0832 -36.8483,-3.74089 -73.0665,-15.18549 -110.5069,-13.87433 -30.0636,-4.51161 -58.5897,-19.97255 -81.9594,-38.90992 -21.7764,-22.11126 -29.1232,-55.34276 -56,-72.97402 -24.2754,-18.40676 -42.7505,-43.84671 -50.3123,-73.57424 -4.7446,-17.7904 -19.1998,-40.01177 -5.1181,-57.00451 z"
         style="fill:#e3af75;fill-opacity:1;fill-rule:evenodd;stroke:none;stroke-width:1px;stroke-linecap:butt;stroke-linejoin:miter;stroke-opacity:1" />
      <path
         sodipodi:nodetypes="cccccccccccccccccccccc"
         inkscape:connector-curvature="0"
         id="path7959"
         d="m -981.79855,-808.41797 c -27.36465,-2.65775 -67.74245,27.77904 -76.35365,52.36089 -11.8868,18.20634 -28.3803,26.56658 -33.9328,49.24315 -14.1301,33.33738 -20.7691,70.66182 -16.0399,106.64208 8.3071,29.38924 22.1971,60.64531 52.6816,70.206 18.828,13.11173 43.8319,23.31178 67.25322,23.75259 32.00365,11.32029 66.50417,10.21001 99.88692,9.00661 20.14776,-1.53079 39.52555,-10.40515 52.96993,-25.62491 20.5802,-19.35137 40.57131,-40.17099 55.26875,-64.35297 13.83579,-34.96864 15.2901,-83.49156 5.73557,-118.77958 -8.95395,-27.7674 -30.36629,-47.81486 -56.86924,-62.43128 -19.17671,-7.76653 -40.2184,-9.39326 -59.3455,-17.33462 -31.94813,-9.00426 -58.08062,-23.12845 -91.2549,-22.68796 z m -10.37137,52.93945 c 41.47232,5.14316 86.69499,8.67749 120.20531,36.52032 23.93357,21.2868 22.44784,58.5585 8.98873,85.20152 -10.4022,23.58035 -25.35909,44.93003 -42.51089,64.07738 -20.99002,11.67546 -45.12828,1.72551 -67.09362,-0.99128 -26.29356,-5.19488 -55.30781,-12.49789 -71.49671,-35.87628 -19.625,-23.21463 -32.7358,-55.47494 -22.5299,-85.67981 8.2867,-29.9454 34.0056,-53.17481 64.0422,-60.16726 3.43643,-1.12144 6.90497,-2.14344 10.39488,-3.08459 z"
         style="fill:#e3af75;fill-opacity:1;fill-rule:evenodd;stroke:none;stroke-width:1px;stroke-linecap:butt;stroke-linejoin:miter;stroke-opacity:1" />
      <path
         sodipodi:nodetypes="ccccccccccccccccccccccccccccccccccccccccccccccccccccccccccccccccccccccccccccccccccccccccc"
         inkscape:connector-curvature="0"
         id="path7357"
         d="m -1009.4081,-316.00641 c -85.6708,-22.5532 -201.8078,-18.913 -228.0529,-89.5219 76.9847,77.66412 179.4734,52.39384 225.7646,78.2599 38.14487,-17.4078 59.55307,3.193 2.2883,11.262 z m 40.88327,-11.1838 c 81.4498,-45.2082 186.453,-83.5783 250.37848,-110.0816 56.59231,-60.38213 136.58652,-99.31276 108.74408,-186.29879 24.25864,-77.28871 -71.20628,-294.34607 -81.90392,-253.85595 48.36246,74.73317 115.50452,132.99555 90.37283,248.88438 15.72072,84.67661 -4.38818,113.35238 -24.47902,134.53264 -147.50616,120.53802 6.40194,34.47438 -343.11245,166.81932 z m -150.06987,-71.5651 c -81.0852,-27.8971 1.1708,-43.1145 0,0 z m 127.29527,-26.6188 c -20.80607,-47.76028 33.8927,-12.5517 0,0 z m 171.83061,-15.3988 c -67.66671,-61.57129 18.5911,-9.8997 7.1534,0.5144 z m -356.96888,-36.96914 c 1.085,-43.22623 41.2593,3.65389 0,0 z m 166.3593,0.62311 c 9.4141,-44.41161 -60.3367,-7.93062 -67.9404,-63.41721 -79.0071,-46.54718 -20.7751,-222.05638 52.5585,-254.59083 69.40436,-23.95108 -94.9949,71.70767 -70.1097,125.52822 -58.7197,117.36516 81.7787,178.23584 164.72977,165.27569 69.8051,-14.1732 159.80237,-66.27196 116.44911,-144.03053 50.55669,44.33634 -20.06341,-73.24664 5.7579,-76.55882 -49.71655,-46.34862 -121.314,-97.17827 -150.19901,-87.00184 63.5083,36.09868 174.36113,26.16893 171.77372,99.84974 36.36366,75.11581 -6.21261,155.05971 -69.92312,195.76486 -46.5103,32.11943 -110.3236,10.3356 -153.09677,39.18072 z m -235.635,60.71835 c -28.1066,-41.83787 -85.1153,-150.59104 -79.2941,-148.33633 7.4238,61.75229 45.055,93.34853 79.2941,148.33633 z m 460.53292,-102.68198 c -39.34174,-33.18717 32.82572,-41.17598 0,0 z m -435.94732,-11.15804 c -9.3813,-26.92333 30.5562,2.43027 0,0 z m 466.52434,-10.5301 c -37.03186,-20.78215 23.41101,-30.68374 0,0 z m -231.8565,-5.38924 c -42.92134,5.41846 -121.01254,-123.55012 -53.97604,-30.9022 -97.7426,-68.94204 3.0598,-252.08442 124.94987,-193.12511 102.90001,41.52104 107.52291,204.33063 -14.6167,216.93906 l -13.6994,0.90871 z m 54.71123,-17.74936 c 111.36741,-18.81818 86.0185,-138.86387 33.2642,-179.99688 -82.18649,-43.37698 -219.13457,29.08843 -141.67787,132.52792 37.029,33.57692 53.70244,65.21832 108.41367,47.46896 z m -276.12737,-9.01629 c -2.1658,-40.4799 28.4314,-2.84453 0,0 z m -134.4302,-8.55245 c -37.8762,-98.37022 47.8126,-187.81071 103.6293,-259.44298 108.477,-101.23046 274.54167,-164.16007 418.62838,-110.39826 52.64407,22.72233 139.7549,76.60565 39.34328,30.50178 -32.27269,-26.05618 -92.92845,-44.10899 -195.99139,-37.33269 -169.23887,24.88121 -331.36877,149.85316 -368.22407,321.96855 -3.4743,18.44694 6.3178,36.32669 2.6145,54.7036 z m 680.65596,-2.78089 c -63.19291,-23.97503 15.97733,-40.26487 0,0 z m -580.68196,-26.33037 c 3.2437,-53.90098 47.6052,-29.16248 0,0 z m 101.0487,-22.16083 c -15.3272,-29.23193 27.0956,-1.06854 0,0 z m 419.66061,-29.59905 c 24.46023,-52.14556 108.92553,-45.05466 26.99186,-11.58975 -7.06466,5.53041 -16.5247,15.27324 -26.99186,11.58975 z m -521.09681,-40.27556 c 29.3196,-34.12971 56.9419,19.04094 0,0 z m 97.1849,-6.77285 c 13.4809,-34.43145 51.1228,11.67937 0,0 z m 440.67018,-23.57599 c -21.70847,-38.7844 83.55841,-45.77533 12.31648,-5.89714 z m -27.10961,-12.43468 c -28.13073,-51.60127 34.66937,-14.73955 0,0 z m -344.12727,-101.05509 c -23.2872,-11.90126 20.9181,-19.93781 0,0 z m 186.41817,-6.26819 c -47.342,-11.42858 22.4856,-19.97485 0,0 z m 83.21491,-6.89896 c 26.47954,-39.5632 62.78012,2.89927 0,0 z m -132.39281,-11.33122 c -29.1071,-29.20946 26.6094,-8.88384 0,0 z m 241.29721,-11.15068 c -102.55185,-48.9654 12.32309,-9.06497 0,0 z m -205.39041,-14.70542 c -53.3318,-22.84794 24.5136,-37.4989 0,0 z"
         style="fill:#000000" />
    </g>
    <g
       id="g8089"
       transform="matrix(0.45114082,0,0,0.45114082,562.6695,1216.6292)">
      <path
         sodipodi:nodetypes="ccccc"
         inkscape:connector-curvature="0"
         id="path7989"
         d="m -111.42857,-1007.6378 c -157.0846,51.13755 -364.13541,211.96861 -313.38391,401.04354 132.23301,196.36012 441.691038,255.85841 623.48807,84.27459 209.43944,-77.16448 191.73473,-356.1773 17.1722,-449.44632 -94.78347,-63.66671 -224.2382045,-60.00181 -327.27636,-35.87181 z"
         style="fill:#a8855d;fill-opacity:1;fill-rule:evenodd;stroke:none;stroke-width:1px;stroke-linecap:butt;stroke-linejoin:miter;stroke-opacity:1" />
      <path
         inkscape:connector-curvature="0"
         id="path7996"
         d="m -238.57143,-727.6378 c -20.7142,11.2705 -62.4958,8.13444 -60.02454,41.34081 5.14725,24.75919 33.05215,43.01195 57.83626,40.51901 31.23217,-4.23503 12.40612,-39.66054 16.99251,-59.73464 0.23824,-9.4599 -3.35447,-21.86759 -14.80423,-22.12518 z"
         style="fill:#513a1e;fill-opacity:1;fill-rule:evenodd;stroke:none;stroke-width:1px;stroke-linecap:butt;stroke-linejoin:miter;stroke-opacity:1" />
      <path
         inkscape:connector-curvature="0"
         id="path8002"
         d="m -34.285714,-741.92351 c -21.913646,15.63619 -28.999883,55.41259 -9.329305,74.63966 15.33569,21.1524 56.523932,21.93503 55.217349,-10.93845 -4.0223518,-19.80264 11.866874,-59.22849 -20.0041858,-59.03048 -8.6599512,-0.94827 -18.0199962,-0.29346 -25.8838582,-4.67073 z"
         style="fill:#513a1e;fill-opacity:1;fill-rule:evenodd;stroke:none;stroke-width:1px;stroke-linecap:butt;stroke-linejoin:miter;stroke-opacity:1" />
      <path
         inkscape:connector-curvature="0"
         id="path8007"
         d="m 202.85714,-643.35208 c -20.03122,6.67799 -28.45285,29.2222 -23.79645,48.57317 13.86111,16.47483 51.38483,2.02022 50.98781,-21.26693 9.01966,-14.3788 -20.8875,-37.13312 -27.19136,-27.30624 z"
         style="fill:#513a1e;fill-opacity:1;fill-rule:evenodd;stroke:none;stroke-width:1px;stroke-linecap:butt;stroke-linejoin:miter;stroke-opacity:1" />
      <path
         inkscape:connector-curvature="0"
         id="path8011"
         d="m 70,-923.35208 c -17.056874,5.74801 -32.864018,21.85325 -24.264271,40.92704 8.735453,18.7405 41.21488,29.53626 55.934551,13.35846 10.74323,-20.72945 6.97103,-53.13117 -23.055785,-49.40007 -3.227103,-0.84301 -6.314585,-2.4462 -8.614495,-4.88543 z"
         style="fill:#513a1e;fill-opacity:1;fill-rule:evenodd;stroke:none;stroke-width:1px;stroke-linecap:butt;stroke-linejoin:miter;stroke-opacity:1" />
      <path
         id="path7372"
         d="m 81.613281,-1026.0625 c -68.361008,-0.2416 -140.856826,16.7581 -196.884761,32.7168 -73.40111,22.9391 -213.33338,100.67416 -269.29883,191.81836 -6.45609,7.62081 -20.09057,30.06603 -41.26367,73.73046 -29.10618,15.46302 44.83621,220.51131 76.44921,206.38086 82.08448,42.00285 162.99044,100.14863 259.958989,101.72852 16.65128,-0.82964 33.322219,-0.17968 49.980469,-0.63477 40.6267213,-22.28308 -35.242876,16.12494 -160.238278,-42.23437 -146.46159,-60.57543 -169.13665,-100.36468 -157.40039,-83.87109 -55.95748,-6.61658 -66.2168,-182.19922 -66.2168,-182.19922 -0.25679,0.0379 -0.50683,0.0887 -0.75195,0.14843 26.86486,-33.81597 41.80489,-63.94469 43.69335,-73.21289 53.97969,-62.20521 137.51385,-123.68277 209.04297,-152.65429 0,0 42.80751,-23.89673 72.064457,-27.26758 29.256942,-3.37085 5.068564,-4.11671 85.402344,-21.87892 l 51.417968,-7.4785 38.916016,-3.7051 c 80.114625,22.14054 57.591145,1.2391 111.283205,27.82033 57.93768,53.27358 66.92142,53.84802 94.34765,90.44531 49.39525,90.08076 81.29426,155.0914 42.82227,249.18164 -90.53057,102.35287 -227.199521,171.63805 -351.441406,220.02735 66.23188,-6.67015 187.368506,-38.81173 241.335936,-102.47266 116.54697,-67.98459 169.76554,-176.38425 112.24024,-302.47265 7.67021,8.42109 -22.73609,-36.2483 -39.93555,-60.41993 0.39993,-13.3398 -19.02149,-39.6289 -19.02149,-39.6289 -36.86076,-71.17549 -109.02614,-93.59339 -186.501949,-93.86719 z m -10.826172,110.29102 c -23.997705,0.25497 -47.095313,13.91488 -16.078125,48.82226 79.274126,-27.31904 46.932316,-49.15009 16.078125,-48.82226 z m 11.113282,12.23632 c 3.958313,-0.10573 8.349214,3.42217 -0.248047,9.50391 -6.400425,-6.488 -3.244583,-9.41061 0.248047,-9.50391 z m -8.025391,2.65235 1.994141,0 -1.994141,0 z m -34.896484,11.5625 -0.939454,0.0254 0.939454,-0.0254 z M 97,-881.77539 99.023438,-881.39648 97,-881.77539 Z m 230.44727,53.82617 1.30664,0 -1.30664,0 z m -360.494145,96.53906 c -10.822608,-0.27827 -20.073066,5.33884 -23.560547,20.00782 54.6224498,15.67846 1.440102,4.07849 33.794922,61.55664 77.243347,-16.82281 25.1194792,-80.65543 -10.234375,-81.56446 z m -1.623047,10.58204 c 6.121382,0.20755 19.315694,7.58854 -0.224609,5.70703 -3.878181,-4.41297 -2.557837,-5.80138 0.224609,-5.70703 z m -214.878908,6.57617 c -22.24059,0.22413 -42.70468,19.47845 -11.48437,69.19726 71.61058,-38.31637 40.07942,-69.48544 11.48437,-69.19726 z m 6.50391,10.1289 0.80469,1.29688 -0.80469,-1.29688 z m -4.1211,7.13086 c 1.85362,0.0825 -0.68517,3.51584 -14.02929,13.54883 -9.05768,-1.65273 10.49058,-13.7064 14.02929,-13.54883 z m 253.1953169,1.75781 c 7.6661881,-0.0824 12.5233551,6.47413 -6.38671878,22.19141 -14.59833012,-13.4773 -2.30162812,-22.09802 6.38671878,-22.19141 z m -239.7929669,4.79297 c 4.64743,-0.0868 5.63643,6.08363 -10.41602,20.91407 -4.81718,-12.67998 5.14893,-20.81569 10.41602,-20.91407 z m 451.04492,58.32618 c -27.42474,0.10268 -63.90204,22.8443 -4.0625,47.71875 l 8.04883,-3.33204 5.8418,-6.23437 c 23.46237,-27.69365 8.93617,-38.22261 -9.82813,-38.15234 z"
         style="fill:#000000"
         inkscape:connector-curvature="0" />
    </g>
    <g
       id="g8097"
       transform="matrix(0.50783776,0,0,0.50783776,140.90367,857.87563)">
      <path
         sodipodi:nodetypes="cccccccccccccc"
         inkscape:connector-curvature="0"
         id="path8041"
         d="m 722.25907,-615.39964 c -24.1865,-0.50461 -51.76324,4.55115 -66.52348,25.76203 -17.53061,20.46325 -11.7794,49.46696 -20.32066,73.45372 -7.00211,26.30211 -28.97519,50.09157 -23.24729,78.70897 8.38527,18.0094 23.04585,23.98332 39.88696,26.60666 40.34281,6.14085 57.40137,39.51607 133.48579,22.90059 34.95634,11.49391 72.27182,14.30124 108.76928,14.75097 44.32413,8.2217 69.71921,-17.5593 77.69801,-55.50893 17.0611,-33.69593 21.4391,-71.81829 33.29962,-107.33791 6.9249,-16.51749 8.7548,-41.61272 -13.97744,-46.79504 -28.70978,-7.36978 -34.30703,-51.70416 -87.01333,-8.50181 -35.44151,-10.36604 -67.76223,-18.38768 -116.4752,-12.17657 -19.03036,-6.90284 -38.902,-9.59571 -58.97146,-10.38381 -2.22944,-0.365 -4.44204,-0.8436 -6.6108,-1.47887 z"
         style="fill:#e91111;fill-opacity:1;fill-rule:evenodd;stroke:none;stroke-width:1px;stroke-linecap:butt;stroke-linejoin:miter;stroke-opacity:1" />
      <path
         sodipodi:nodetypes="cccccc"
         inkscape:connector-curvature="0"
         id="path8035"
         d="m 1056.6196,-658.83621 c -20.4455,19.63694 -66.9601,41.83272 -66.9561,69.66837 -13.4076,25.61194 45.7037,61.18657 73.9912,55.48792 25.1395,7.68484 42.3471,-11.9483 42.8599,-35.49496 6.2614,-24.95334 11.6425,-55.61584 -6.5848,-76.93254 -11.8354,-10.78261 -29.2476,-7.49569 -43.3102,-12.72879 z"
         style="fill:#e6e3df;fill-opacity:1;fill-rule:evenodd;stroke:none;stroke-width:1px;stroke-linecap:butt;stroke-linejoin:miter;stroke-opacity:1" />
      <path
         sodipodi:nodetypes="cccccccccccccccccc"
         inkscape:connector-curvature="0"
         id="path8026"
         d="m 773.75105,-984.27382 c -57.60547,8.43037 -52.49216,48.35908 -59.85689,82.40242 -20.58478,66.34713 -50.27375,135.5957 -59.62531,203.7841 -5.76688,21.28773 3.49093,40.38932 9.68343,64.0511 12.02907,21.04887 38.93549,15.42454 59.15219,17.37356 40.14419,4.65008 81.65076,-0.99049 121.00033,10.683 39.85033,6.41735 79.30885,16.73083 119.56266,19.79453 30.4635,-3.46642 50.09314,-31.67383 63.87444,-56.35302 23.4097,-44.50128 50.6169,-96.67273 51.0508,-146.04631 2.0966,-39.57194 8.7206,-77.09187 22.4605,-113.76543 5.6051,-17.65298 20.7475,-67.08216 2.6319,-81.67131 -21.7568,-9.84551 -32.1399,4.3801 -82.5737,5.01777 -55.66083,-11.42646 -117.99364,2.55368 -173.86847,-6.82856 -22.40025,-3.20141 -45.12959,-2.35402 -67.32121,1.64688 l -3.08618,0.0477 -3.08449,-0.1364 0,0 z"
         style="fill:#503920;fill-opacity:1;fill-rule:evenodd;stroke:none;stroke-width:1px;stroke-linecap:butt;stroke-linejoin:miter;stroke-opacity:1" />
      <path
         sodipodi:nodetypes="ccccccccccccccccccczcccccccccccccccccccccccccccccccccccccccccccccccccccc"
         inkscape:connector-curvature="0"
         id="path7387"
         d="m 1257.8059,-203.63304 c -1.8617,-4.95069 9.2005,1.63071 0,0 z M 757.44844,-385.71561 c -41.53368,-11.66368 -110.69723,-30.99352 -150.72618,-41.56941 43.06804,-9.36686 135.04607,35.80733 187.23766,33.69307 23.78407,-0.39468 143.83532,33.22543 154.17162,9.02192 -37.79241,19.04356 -147.3447,0.32557 -190.6831,-1.14558 z m 192.56955,2.94213 c 0.25206,-55.22383 44.77373,-146.87809 49.22913,-204.05541 -67.58118,21.14897 -149.30534,-37.12252 -208.25124,-5.69616 -64.26142,-27.00188 -147.72901,-36.18492 -146.68841,56.73 -66.20216,225.06101 -0.9977,-71.65704 -19.11005,-40.41956 28.07531,-108.42328 85.93756,-285.50537 114.01596,-394.64347 14.48911,18.9778 -33.8142,180.39208 -21.54803,148.74556 -39.23441,82.78507 82.84596,67.06907 88.94355,61.80811 26.55946,-66.71549 13.39976,-101.56392 -53.53999,-110.30676 27.911,-16.38708 101.85465,24.7649 90.92535,-46.59068 35.51521,-73.35071 -62.85518,-68.44865 -85.17479,-60.5223 43.26968,-16.705 16.07936,-4.12837 134.0707,-9.65162 41.24407,12.06939 105.47791,9.90372 140.12873,12.50034 34.6508,2.59662 81.8908,-9.54323 70.2918,22.70698 -59.7406,-40.1096 -114.96208,64.55017 -55.9457,73.46689 27.4322,-13.06996 51.9917,-54.24349 39.5816,4.61916 -9.2582,68.60596 -27.6254,145.52457 -40.7392,208.12904 39.8565,-7.11985 107.1995,21.75226 71.709,68.03521 50.2187,13.41649 -17.1793,52.62013 -27.6427,69.8694 -4.0964,-26.7346 -69.3466,28.56913 -65.0962,-9.99611 -39.86818,39.07023 -73.01428,144.26276 -72.30249,155.27436 0,0 3.21428,1.07142 -2.85702,-0.003 z M 1100.4313,-542.6224 c -0.8634,-33.91513 17.4851,-55.29575 -8.8916,-95.3471 -33.9239,-46.221 -60.2604,48.74258 -60.2604,48.74258 -18.3658,47.09403 27.1086,39.37908 69.152,46.60452 z m -146.84491,-61.20035 c 37.40003,-7.65503 -129.43787,-12.58446 0,0 z m -71.03208,-17.5762 c 21.24329,-39.11687 18.0337,-151.4868 9.95837,-116.81541 -87.77319,-36.5231 -132.21365,123.08788 -30.75242,111.94576 5.86779,4.34448 13.34829,7.23665 20.79405,4.86965 z m -107.45276,5.28307 c -38.77495,-22.78084 -213.66345,-12.89026 0,0 z m 161.72391,-7.27585 c 47.2562,4.18583 41.40169,-114.65329 31.19108,-113.76185 -47.23064,-40.93913 -81.75859,54.74519 -69.42448,112.29173 9.6935,10.05875 27.82372,-5.16262 38.2334,1.47012 z m 46.41316,-5.0666 c 38.37198,5.56925 49.45328,-37.79785 55.22578,-65.04681 22.6411,-61.68586 -61.36128,-62.14238 -51.52278,-6.34246 6.03426,29.47067 -34.3182,76.70411 -3.703,71.38927 z m -198.23585,-13.6413 c 10.93213,-40.15124 36.71572,-111.57958 -34.04158,-101.82741 -30.91585,-12.80489 -56.2648,-16.44723 -60.28253,23.14024 -41.00623,78.34292 20.93063,92.86235 94.32411,78.68717 z m 257.15043,-110.60886 c 16.6721,-34.4306 22.0687,-67.76225 18.8783,-106.76927 -83.47388,-62.32419 -32.0607,189.32895 -48.9165,96.25727 6.6511,2.87598 28.3688,5.94431 30.0382,10.512 z m -199.29276,-0.0885 c 66.80304,32.23073 115.59975,-127.45323 35.5778,-100.3582 -50.30137,-26.48388 -74.46086,102.8045 -35.5778,100.3582 z m 111.16849,-15.23834 c 44.40089,14.81393 2.16828,-97.52256 29.86749,-90.83524 -52.19014,-39.62393 -83.3623,124.74282 -29.86749,90.83524 z m -86.50988,-104.00001 c 33.95592,2.20399 70.52339,0.78569 71.87776,-41.0433 11.98077,-77.5457 41.48641,-33.9113 13.84573,16.84124 -2.60947,45.63491 80.71346,12.71907 61.43236,-32.68944 24.8633,-67.4666 -130.29185,-34.85168 -99.96583,-37.3229 -54.8245,-25.9096 -80.69402,89.7435 -47.19002,94.2144 z m -21.64121,-58.9293 c 0.37596,-3.6349 1.21739,2.2457 0,0 z"
         style="fill:#000000" />
    </g>
    <g
       id="g8103"
       transform="matrix(0.40674552,0,0,0.40674552,-557.24151,1070.6433)">
      <path
         sodipodi:nodetypes="ccccccccccccc"
         inkscape:connector-curvature="0"
         id="path8067"
         d="m 2015.2544,-999.25761 c -97.2474,8.43569 -199.3511,4.34458 -293.8843,26.70547 -78.7231,35.99147 -175.1282,79.15634 -183.7105,157.40484 -85.1013,14.81769 -114.8297,129.12442 -130.7128,186.84964 5.9473,87.08968 74.1729,118.08554 52.5435,207.45323 40.5602,68.14836 100.1005,148.96799 157.1641,203.63468 101.8673,59.64738 237.9017,80.69003 354.1976,70.35785 66.4184,-72.29766 13.6786,-193.16347 -44.2268,-254.82852 -47.9374,-59.44828 -84.5361,-160.63784 -33.6469,-227.72912 52.7984,-60.48876 131.3904,-92.82715 214.4651,-82.42464 67.256,-27.78228 182.1506,76.17412 234.0786,5.55162 35.0318,-78.03649 -50.6377,-210.24613 -130.2441,-229.21067 -63.0549,-24.74676 -129.4589,-50.7853 -196.0235,-63.76438 z"
         style="fill:#ebc998;fill-opacity:1;fill-rule:evenodd;stroke:none;stroke-width:1px;stroke-linecap:butt;stroke-linejoin:miter;stroke-opacity:1" />
      <path
         sodipodi:nodetypes="scccccccccccccccccccccccccccccccccssccccccccccccccccccccccccccccccccccccccccccccccscccscccccsccccccccc"
         inkscape:connector-curvature="0"
         id="path7402"
         d="m 1833.5098,-998.16406 c -8.2776,-0.0312 -15.7597,0.30523 -21.3555,1.22265 -84.014,-1.04961 -151.2689,42.5209 -218.2578,85.125 -30.6982,0.0924 -24.0193,36.06847 -48.2012,45.32032 -2.6347,5.63465 -8.9026,36.07692 5.0254,52.61914 -12.758,4.16418 -36.6351,-5.33039 -51.1738,15.49414 -7.0901,5.34517 -26.2888,27.34757 -63.1348,76.87304 -3.8123,4.84609 -5.9165,7.89091 -6.709,9.53516 -26.6958,14.15941 -11.4964,94.04341 -28.9511,115.71289 15.8851,37.45597 34.0722,80.96084 75.1347,100.47852 -35.3494,28.71561 -20.6022,87.78583 7.1192,119.68945 0.2293,-0.14908 0.4039,-0.33303 0.5527,-0.5332 4.9355,7.77949 13.417,19.99261 26.6289,37.91797 0.012,0.0164 0.025,0.0344 0.037,0.0508 22.6016,31.33375 55.4736,71.67863 86.0234,102.35937 63.3434,68.03953 164.9165,75.96653 251.8458,76.11328 -37.1617,0.93651 76.1884,1.84776 115.2558,15.10157 13.0619,-2.17894 16.0985,-4.73098 14.5547,-7.09571 45.9176,-75.17412 7.672,-212.07278 -29.6777,-245.29492 -24.6478,-42.81407 -57.7782,-80.15069 -86.5137,-120.2168 -2.4923,-55.82511 7.3293,-113.13918 56.3008,-148.96093 26.6213,-10.12085 46.9214,-35.62741 84.832,-38.42383 39.3001,-23.25609 31.9474,-5.26027 46.5938,-14.78321 33.4689,-11.74433 50.8184,-3.2276 73.7851,-0.80468 0,0.007 -0.011,0.0126 -0.016,0.0195 53.0945,19.89935 73.7504,39.77409 105.9238,44 23.8912,-5.13284 48.426,-0.58613 63.1758,-3.84961 0.01,0.009 0.018,0.0179 0.027,0.0273 0,0 65.3661,-14.5522 67.584,-24.72265 -6.5302,-34.76533 -13.4434,-76.92452 -29.8965,-108.89258 -15.0471,-31.44124 -10.7826,-24.46196 -14.5644,-40.64649 -21.0117,-47.03431 -92.7597,-84.89266 -149.7481,-111.62304 -40.5344,-4.78313 -68.264,-39.81569 -106.9199,-19.56055 -68.2119,-14.79524 -107.9541,-6.54545 -161.5508,-8.47461 22.9527,3.39816 -27.8609,-3.64203 -63.7304,-3.77734 z m -11.67,11.25586 c 4.4418,-0.0555 6.924,0.35657 6.4454,1.43164 5.6347,4.62176 13.3073,2.67631 14.5957,4.99218 7.2127,-4.97946 60.0212,6.28382 93.2851,1.55274 43.1639,4.26441 69.2156,-9.70751 85.7598,-2.34766 40.8863,4.4779 59.8518,34.78003 96.3281,43.4336 -0.6024,-4.21362 -3.5893,-8.24082 -7.7578,-12.08008 -0.086,-0.57701 -0.4062,-1.16519 -0.7813,-0.69336 -12.7109,-11.2627 -35.0728,-20.89083 -36.2343,-28.8457 53.0762,11.49917 107.3738,38.06083 155.0273,57.95507 8.3902,8.72114 43.6325,26.80545 45.3164,31.74024 17.9813,29.73759 15.721,3.45704 57.1192,120.97265 2.2544,7.62893 8.4552,9.07959 6.8164,48.12305 2.6898,16.3459 -44.4597,21.62865 -48.1328,33.26953 -17.5461,-5.05195 -60.9641,-6.25027 -84.086,-10.03515 -3.2607,-10.61068 -44.3722,-33.32496 -68.4551,-30.49805 -47.2339,-11.34728 -75.9423,-5.16257 -127.5019,2.79102 -26.7038,-21.39018 -43.8094,-64.47608 -65.3985,-89.51954 -18.7715,-43.22921 -28.8677,-81.79559 -51.4375,-117.68359 7.9088,27.52201 -40.4088,-28.75508 -24.873,-7.61133 27.9102,21.55535 34.5691,59.92041 51.9922,93.46094 19.2129,49.89884 39.6886,81.13895 71.166,121.02539 -27.7903,17.62816 -57.9577,33.67815 -86.2539,51.51758 -3.9522,-3.30837 -37.0106,43.03776 -53.7734,77.29687 -10.2199,15.17833 -19.7819,21.90608 -10.1954,37.28516 -76.841,37.59661 -164.8885,52.14856 -241.1875,85.61328 64.9373,-11.35724 129.0835,-34.17457 192.2754,-57.28711 41.4037,-6.81193 56.0999,-12.75587 55.627,12.84961 16.9082,26.61897 40.9013,52.65883 60.8594,81.89453 7.0557,40.06777 57.5334,60.43266 67.2109,94.58399 -64.0191,35.0237 -138.4052,59.85286 -205.4746,83.74804 23.0252,-13.99955 -77.1206,12.57668 -83,32.60938 93.6262,-16.82005 186.2913,-56.02791 271.1309,-99.83594 38.7435,-27.69584 32.7301,132.11486 19.1054,172.375 -3.205,-3.18784 -14.064,-5.93059 -18.5703,-6.79297 -7.4441,-1.0163 -69.6685,-8.33609 -104.2344,-15.11523 -88.7694,-0.76402 -189.9521,-4.2375 -255.6953,-73.10742 -52.6361,-37.57014 -24.3142,-35.10647 -80.1845,-85.58321 -4.4843,-10.42372 -28.4688,-45.22639 -37.9424,-53.2039 -10.3913,-19.52739 -38.9018,-62.47869 12.8984,-111.26758 -41.3734,-16.84552 -55.7953,-58.47693 -81.3516,-89.74805 21.2691,-23.1591 -3.5422,-72.40629 18.5879,-123.24609 4.026,-2.17345 15.3655,-12.34516 26.4356,-22.93164 21.9959,-24.18042 40.0031,-50.93062 44.4394,-61.36719 7.5855,1.35527 28.7115,-0.50658 60.4668,-15.20312 -37.8926,-55.38912 5.7741,-25.59345 15.6778,-80.22657 51.72,-28.85279 102.5967,-62.59104 158.7031,-85.36523 -19.828,3.30029 61.2662,-10.62632 85.2519,-10.92578 z m 249.1778,6.05273 c -0.015,0.0331 -0.1204,0.15896 -0.3535,0.41602 -3.8786,3.70427 0.4581,-0.64765 0.3535,-0.41602 z m 42.4726,49.5 c -20.9844,0.34911 -42.8433,8.98641 -43.2109,29.97656 0.5487,-1.77088 23.3919,-25.33111 53.1621,-17.79687 49.3956,25.68867 100.6954,65.512 123.8281,114.13867 l 2.5371,0.47461 c -18.3774,-50.25582 -58.545,-90.76297 -104.3183,-119.3457 -7.1314,-4.88167 -19.4074,-7.65673 -31.9981,-7.44727 z m -525.6504,30.31445 c 0.2521,-10e-4 0.6784,0.0795 1.3379,0.29493 -0.2823,1.25546 -2.4299,-0.28844 -1.3379,-0.29493 z m -2.2968,143.9336 c 39.2248,71.33389 129.2148,95.46423 205.6914,109.96094 l 0,0.002 8.625,-0.42774 c -23.1541,-15.9078 -74.3725,-20.09112 -103.209,-37.46875 -45.7572,-8.26257 -74.2555,-57.05249 -111.1074,-72.0664 z"
         style="fill:#000000" />
    </g>
  </g>
</svg>
