<?xml version="1.0" encoding="UTF-8" standalone="no"?>
<!-- Created with Inkscape (http://www.inkscape.org/) -->

<svg
   xmlns:dc="http://purl.org/dc/elements/1.1/"
   xmlns:cc="http://creativecommons.org/ns#"
   xmlns:rdf="http://www.w3.org/1999/02/22-rdf-syntax-ns#"
   xmlns:svg="http://www.w3.org/2000/svg"
   xmlns="http://www.w3.org/2000/svg"
   xmlns:sodipodi="http://sodipodi.sourceforge.net/DTD/sodipodi-0.dtd"
   xmlns:inkscape="http://www.inkscape.org/namespaces/inkscape"
   viewBox="0 0 744.09448819 1052.3622047"
   id="svg3432"
   version="1.1"
   inkscape:version="0.91 r13725"
   sodipodi:docname="grumpy.svg">
  <defs
     id="defs3434" />
  <sodipodi:namedview
     id="base"
     pagecolor="#ffffff"
     bordercolor="#666666"
     borderopacity="1.0"
     inkscape:pageopacity="0.0"
     inkscape:pageshadow="2"
     inkscape:zoom="0.70000001"
     inkscape:cx="175.53422"
     inkscape:cy="606.17577"
     inkscape:document-units="px"
     inkscape:current-layer="layer1"
     showgrid="false"
     inkscape:window-width="1920"
     inkscape:window-height="1138"
     inkscape:window-x="-8"
     inkscape:window-y="-8"
     inkscape:window-maximized="1" />
  <metadata
     id="metadata3437">
    <rdf:RDF>
      <cc:Work
         rdf:about="">
        <dc:format>image/svg+xml</dc:format>
        <dc:type
           rdf:resource="http://purl.org/dc/dcmitype/StillImage" />
        <dc:title></dc:title>
      </cc:Work>
    </rdf:RDF>
  </metadata>
  <g
     inkscape:label="Layer 1"
     inkscape:groupmode="layer"
     id="layer1">
    <path
       style="fill:#000000"
       d="M 299.38426,6.5135139 C 268.97635,6.4619376 236.04452,10.702928 211.51753,29.748138 197.25823,47.37893 202.94975,70.549687 173.3906,58.380749 131.54832,47.911611 89.868093,74.462252 73.118122,112.14206 c -15.295808,21.80117 -9.159848,48.7817 0.774994,71.59499 16.432921,29.26165 50.296204,49.36627 84.305954,43.68649 24.4559,0.425 42.45276,-18.72189 62.16646,-28.30346 17.57449,24.90001 22.65324,55.05354 33.61765,82.95644 3.44952,22.67278 12.67668,43.70474 11.16701,66.91514 -27.45243,4.26469 -51.32366,20.57785 -69.41664,41.08925 -21.45244,17.542 -35.79115,44.4289 -33.65654,71.66977 0.40292,22.50788 3.20613,26.97301 -11.84924,42.55543 -16.62327,22.80179 13.61442,46.72841 35.5237,36.10717 -1.18136,15.92446 4.75271,36.50775 13.96772,52.3849 12.99327,27.31447 41.11337,41.75908 66.94207,54.43159 11.94503,10.81489 36.66646,9.12996 33.50995,31.58892 4.71175,26.00381 -21.41896,22.93304 -37.00487,23.97669 -17.27959,-1.56112 -44.4828,-7.60227 -55.47587,11.56793 -7.16206,5.42062 -21.08567,0.84542 -27.29507,11.16701 -35.27031,21.37969 -26.87449,68.53666 -27.20233,103.50705 -3.54667,30.86736 -0.18703,57.8624 -0.56255,92.06481 -2.32351,31.28262 -4.52169,62.16282 9.05451,90.78692 4.47325,17.1725 11.76259,25.0547 18.64455,31.4275 6.88194,6.3726 12.5318,7.7268 20.16162,8.0729 7.62979,0.3461 18.84008,0.6083 37.57037,-4.8592 18.73028,-5.4676 54.64244,-11.7425 72.65125,-15.5117 18.00876,-3.7694 21.32336,-7.8967 34.64098,-11.7326 13.31764,-3.8357 30.14059,-13.1681 47.04075,-15.3442 6.76346,0.7522 18.19486,-9.44426 24.07544,-3.4768 10.6746,14.7819 29.29807,23.0408 46.84629,28.0938 16.23435,2.843 36.5827,6.2557 50.28136,-0.9664 18.11076,-3.0454 32.74141,-16.1798 40.41,-32.55234 5.096,-18.87908 0.0781,-46.32947 0.74805,-59.4884 0.67001,-13.15906 0.24316,-16.12604 0.71814,-21.63383 0.47498,-5.50777 -0.1234,-10.86459 -0.15858,-16.07722 -0.0352,-5.21265 -1.84704,-60.96374 -1.3794,-91.31674 -9.71632,-29.02049 -2.65322,-65.70536 -24.50336,-91.03547 -11.96694,-20.71735 -35.14828,-25.40208 -57.17544,-26.02339 -13.48965,-4.06835 -48.47002,4.11998 -39.30586,-20.31121 10.30209,-12.00633 25.36005,-15.10676 40.79,-27.95935 15.42996,-12.85261 31.97596,-31.82679 42.80977,-51.5411 10.60842,-8.99579 9.08615,-27.27704 22.79179,-32.9025 18.61988,5.85938 34.28236,-13.2343 37.03477,-29.85345 11.6566,-19.59572 -18.48286,-10.9941 -21.43331,-23.14484 13.31827,-21.32804 8.85352,-47.69094 9.88032,-70.8918 -9.41483,-24.77988 -16.16903,-51.35561 -34.7906,-70.76914 -9.23386,-7.89967 -19.22659,-19.49021 -27.8217,-17.4327 -3.11306,-14.20345 -8.95019,-27.45368 -11.65474,-42.05871 -2.66334,-36.76811 -10.45781,-74.08385 -0.81088,-110.67345 15.46902,3.95573 29.66784,13.7657 45.89475,16.52906 36.81834,11.49317 85.86913,3.57168 113.08814,-5.88572 27.21901,-9.4574 29.22374,-17.45351 36.59504,-31.08323 7.37131,-13.6297 4.00343,-31.66354 -5.48491,-43.87499 C 670.35128,115.40043 658.74421,105.83031 644.48964,98.889493 638.86445,75.462253 634.69208,68.57058 623.07416,57.144967 611.45625,45.719355 611.84355,47.380761 604.53732,43.536329 597.23108,39.691897 561.87958,33.005975 549.45647,33.503397 537.03336,34.000794 528.25663,35.239348 521.72452,43.120417 509.9222,53.858113 506.58744,35.565772 496.73047,30.214928 462.99446,8.0142627 418.87998,6.9775316 380.95231,17.327417 369.16405,17.322597 359.05443,35.208426 349.14795,26.585381 338.57653,12.841849 322.89768,9.3501602 305.42854,6.5763454 c -2.00152,-0.038321 -4.01712,-0.05953 -6.04428,-0.062904 z m -8.42914,6.8492071 c 2.83421,0.07809 5.07395,0.372169 6.35251,0.984432 7.07818,1.001905 9.83816,0.541647 15.8259,2.229203 8.67891,1.742916 14.41597,5.213878 17.45962,7.139456 12.55422,6.108052 25.03919,18.323095 21.51709,33.985697 7.64097,3.923532 8.99716,0.450039 22.89053,0.296226 -9.68277,-3.996196 -20.1695,-20.066613 -7.56732,-27.642178 33.12493,-18.094182 75.84376,-15.766839 110.27545,-1.690592 13.02074,2.101829 17.55256,12.20063 20.8558,17.773807 3.30324,5.573176 -0.77256,16.527469 5.48475,23.022173 8.62365,-18.008238 10.7618,8.317781 21.52608,8.004227 4.81876,-7.657244 -9.44593,-15.241533 -6.33157,-22.914466 15.35869,-19.090496 46.54418,-15.703286 67.77382,-11.517076 18.2351,9.959087 34.62309,26.664494 45.06295,44.278945 9.03187,17.424945 -18.59469,9.326314 -26.39741,14.763655 6.3058,6.69752 27.94397,4.73988 39.19218,6.58887 12.21731,12.02375 31.41597,21.03449 30.98167,40.49079 4.69271,16.09818 -6.62177,28.14912 -15.81994,38.97671 -2.72679,2.99875 -6.51692,1.62036 -14.63802,4.62299 -16.18482,7.66949 -16.77939,5.59101 -30.4847,11.3944 -36.14065,9.08434 -76.91226,1.47036 -107.77109,-18.96473 -6.91642,-2.66194 -9.76232,-4.08255 -14.56617,-6.05624 -16.54241,-5.31218 -30.84909,-7.88311 -49.99111,-19.42554 -19.14202,-11.54241 -51.08166,-10.05955 -88.63566,-8.97068 -37.55406,1.08886 -95.04632,13.072 -135.26956,38.36331 -18.6265,16.92008 -41.79688,31.13129 -67.97139,31.88216 -14.35409,0.48954 -30.3086,-1.48952 -42.34,-10.31718 C 78.270374,191.27533 60.530742,147.70488 80.051105,114.37127 95.705393,77.072011 138.54329,54.92514 178.20211,65.212001 c 21.21428,4.010826 23.25135,17.101098 31.7086,18.135877 7.0083,-12.457162 -0.46657,-13.136281 -4.22802,-29.95518 1.98744,-24.904057 32.01587,-34.914407 53.46508,-37.627222 9.43542,-0.921769 23.30479,-2.636559 31.80735,-2.402755 z m 94.44063,144.958369 c 18.92381,0.0443 37.75105,1.47392 54.48244,10.73909 12.92003,8.69279 33.50358,8.04431 42.3699,20.61043 -6.65259,44.78656 -6.00114,91.75938 7.06166,135.47002 0.54678,13.37949 12.17928,27.7574 -10.13768,29.48241 -35.07448,7.86878 -70.49706,17.80485 -107.02289,16.88212 -12.19161,0.30377 -24.38,-2.54235 -36.62184,-2.42071 -20.48243,-3.96513 -46.35343,-2.05683 -61.36757,-17.93239 -2.6207,-23.06708 -7.53091,-45.5248 -13.82707,-67.8547 -4.34527,-21.35932 -14.67214,-41.15 -20.18854,-62.59437 -2.74819,-10.23054 -20.55162,-25.08419 -5.66729,-33.02221 36.4804,-17.48291 77.27632,-23.89557 117.18155,-29.33576 10.99461,0.42266 22.38306,-0.0506 33.73733,-0.0241 z m 117.14563,198.73163 c 26.22788,4.66192 34.39963,34.45292 44.1353,54.76669 2.70346,11.03833 7.26114,22.17483 7.36087,33.70745 3.533,22.29328 -1.69216,46.85836 -14.4614,64.13831 -4.44325,7.45865 -4.4024,-0.92425 -6.67867,-3.95571 -6.15124,-12.40609 -7.02908,-28.16697 -23.61463,-32.89953 -7.6377,-15.15298 -25.35675,-19.29299 -37.85765,-28.42611 -19.49286,-2.98969 -39.01819,-11.57041 -56.87621,-21.60985 -23.78369,-0.86796 -20.61267,-33.0555 -36.19991,-35.00906 1.46889,7.12112 -11.43807,26.93691 -23.59669,34.80258 -12.30135,8.02202 -24.91244,16.03313 -38.489,21.80435 -38.55349,21.26771 -83.29891,32.16607 -127.14266,30.43392 -32.5694,11.91824 -9.72179,-23.3062 -14.28788,-39.45847 11.83357,-37.24435 46.24289,-63.36478 81.19104,-77.54652 15.34266,3.84255 40.22016,14.02715 56.32867,15.96054 38.01802,2.16471 76.58024,7.70655 114.65608,-0.14967 24.90658,-7.05655 51.50191,-8.40184 75.53274,-16.55897 z m 44.00964,53.8481 c 0.0646,-0.0364 0.18172,0.0284 0.37103,0.3022 -0.2788,0.84248 -0.56469,-0.1928 -0.37103,-0.3022 z m -166.02959,1.64273 c 8.01741,0.35788 16.29381,7.81604 27.82467,17.46859 18.87803,13.95798 42.17411,19.13696 62.95944,28.50394 -17.10888,4.02991 -41.2446,0.59883 -58.51597,11.06525 1.4558,7.74213 19.94085,35.855 -8.28248,33.52488 -12.00676,13.89752 23.33879,2.32882 31.30465,1.90907 23.25769,-5.08944 47.42734,-15.10403 71.62791,-12.85162 11.56446,10.52732 -12.63724,20.48137 -19.80555,25.85882 -8.35181,8.79995 -18.35223,10.58894 -29.6739,17.08261 -11.32166,6.49365 -25.884,8.09217 -39.47343,14.05747 -10.0659,4.71581 -33.50792,0.0586 -16.84025,13.15682 32.78871,-9.30491 75.18804,-25.90541 94.65307,-37.95338 19.46502,-12.048 24.67353,-29.81137 29.11135,-7.36088 5.07472,21.85552 16.41441,4.73914 25.76307,-0.48773 13.73955,9.4408 -2.35504,25.61526 -12.28607,28.95875 -10.70981,-10.10059 -12.65607,3.32609 -16.17,14.86237 -16.95782,29.26922 -39.66923,67.25355 -61.98395,81.44239 -22.31471,14.18887 -54.91835,22.21445 -76.89719,24.84446 -21.97882,2.63003 -46.56088,-1.59036 -65.24248,-6.16698 -18.6816,-4.5766 -44.50259,-17.68054 -72.78588,-35.25739 -27.58588,-13.77359 -46.79996,-42.11166 -52.08566,-72.20838 6.26341,-29.41612 -2.71424,-19.0247 -22.88752,-19.05748 -21.68888,-3.47489 -16.8511,-34.89423 3.38121,-37.28913 30.55927,9.10195 5.25364,-13.81381 0.76299,-15.01197 25.14311,3.72662 51.64567,-0.94517 77.00194,-5.43689 23.9572,-9.09943 30.44826,6.74548 32.97432,26.81633 14.13077,29.79848 53.96941,25.40285 76.02048,7.93238 15.57967,-10.43296 3.95469,-30.56467 14.95815,-41.98392 -28.07522,-8.12102 -58.17631,0.66828 -86.40652,-3.34829 25.11823,-10.22793 49.18297,-23.54854 71.34666,-38.7134 7.332,-10.6183 13.41116,-14.63506 19.64694,-14.35669 z M 480.6682,469.2073 c 5.43119,0.26434 10.5425,2.79177 13.24958,8.33634 2.1757,9.88368 -20.14796,3.48222 -26.72955,9.24599 l -2.48055,0.30818 c -5.3901,-5.93221 -23.94274,-8.9412 -2.14244,-9.29983 3.61046,-5.53081 11.11999,-8.93057 18.10296,-8.59068 z m -134.93139,7.72292 c 3.96178,0.0899 7.9466,0.73188 12.06764,2.61523 16.25062,18.46578 -10.37555,33.83998 -26.42435,36.78342 -8.67091,0.47913 -18.76773,0.0306 -26.3226,-4.83843 -7.03937,-1.88017 -21.91946,-28.63133 -10.6673,-26.33457 3.05256,26.45431 44.63647,19.88185 52.89959,-0.33214 -0.46318,0.0716 -44.44346,17.44808 -28.64758,-7.84263 9.76406,2.22323 18.37867,-0.24843 27.0946,-0.0509 z m 89.96722,8.31243 c 1.2945,-0.12556 2.95038,1.56973 4.26093,6.98384 -8.20412,2.3733 -7.10885,-6.70766 -4.26093,-6.98384 z m -73.34539,71.52616 c -4.60066,0.0899 -9.61064,0.74231 -15.30825,0.9545 -19.81787,8.15411 -11.15096,21.86525 1.93895,25.23643 8.95482,-7.3352 24.37116,-2.18322 36.03836,-6.16997 14.47847,7.22355 35.92781,-2.30835 47.92645,-7.25015 -16.41026,-6.61658 -35.53214,1.4015 -49.76068,-3.85998 -6.643,-7.64295 -13.16713,-9.06052 -20.83483,-8.91083 z m 24.50029,31.6248 c -13.35924,0.0632 -26.7804,0.76121 -39.79357,0.35909 -11.4279,1.15504 -40.30974,11.05551 -25.17059,23.16581 20.49284,-2.20696 40.57979,-8.1898 61.25679,-10.06585 16.31574,-9.2101 47.26596,12.03973 53.9259,-6.86119 -15.96758,-5.70947 -33.04231,-6.67905 -50.21853,-6.59786 z m -71.57699,79.61117 c 0.2374,0.002 0.48198,0.0193 0.73311,0.0508 55.02994,16.05418 77.07475,8.7149 105.42803,0.0241 4.86904,-0.36653 5.22282,15.05523 7.60624,19.89829 2.3834,4.84308 27.69891,20.34466 28.07605,36.17002 -37.17894,7.77532 -74.8655,20.63537 -113.91698,18.88094 -9.46277,1.21766 -18.59845,-1.84065 -27.95937,-2.24716 -19.56684,3.75114 -42.15743,-22.11017 -36.61585,-30.39801 33.3411,11.6993 21.69091,-42.59653 36.64877,-42.37889 z m 164.27913,31.942 c 3.13766,0.0754 6.96506,0.80992 11.63676,2.32795 -4.48205,13.18947 -10.69745,25.27849 -14.48536,42.53448 -3.7879,17.25602 -11.16371,31.28477 -7.41175,50.37114 8.29413,33.67031 15.98302,69.16428 13.99167,103.96787 -7.87145,-11.82013 -25.42078,0.97173 -37.03479,1.19688 -23.6671,6.22634 -47.32346,13.4374 -70.93966,19.25498 -37.24546,-3.03868 -75.95195,-26.7191 -113.65968,-12.17836 -10.85856,-8.33983 5.85326,-47.85465 -1.05926,-66.98096 -4.70012,-24.18724 2.66242,-45.71553 -0.95453,-69.1354 -0.94975,-25.68269 -21.61655,-42.52644 -41.60387,-54.69188 2.16635,-12.20352 29.18074,-12.57716 39.90431,-4.3058 26.19916,11.97025 22.1181,45.44035 22.44467,69.1563 1.30751,23.49058 12.9334,21.06004 38.4202,23.43811 25.4868,2.37808 83.90868,-21.20879 116.07737,-23.56377 32.16867,-2.35501 25.89563,-10.52178 28.38124,-30.1437 6.2327,-20.08462 -5.67096,-51.7751 16.29268,-51.24784 z m 19.68885,6.28069 c 15.74503,2.28724 25.58802,18.77602 31.69964,32.19634 7.32342,25.6797 13.62741,56.25085 12.96232,79.27601 -0.66507,23.02519 2.34997,43.75579 0.24236,59.41962 -2.10762,15.66383 -0.17739,13.90843 1.53502,34.29988 1.71243,20.39137 1.93898,49.07476 -0.13762,73.75521 -5.53218,22.87407 -32.00203,31.66857 -53.01623,34.70697 -23.25371,0.551 -55.13249,-4.291 -66.69671,-27.16936 17.60124,-7.24165 33.19762,-13.72772 50.45491,-25.05402 17.2573,-11.32629 14.60274,-30.0263 15.99643,-45.75103 1.39367,-15.72481 2.1194,-31.56234 0.41292,-48.31248 1.87576,-17.2398 -7.14244,-37.31931 -7.09757,-51.8822 -1.48872,-6.15763 -1.2413,-8.37386 -4.96708,-17.26814 -2.32647,-6.45701 -3.20778,-15.07707 -3.13287,-21.91507 3.19387,-26.09547 8.87232,-52.86779 21.7445,-76.30173 z m -293.52833,17.81569 c 11.37625,0.28803 21.58816,6.50353 31.3286,15.69724 9.20583,12.41052 15.77554,17.51768 15.03294,46.63981 -0.74258,29.12215 6.25155,86.32618 -4.83243,127.77699 -14.66313,7.83414 -23.45609,21.65475 -33.51891,34.07836 -20.36725,-2.27948 -38.7176,6.71914 -52.7649,20.19452 -7.75406,1.77625 -5.11808,-5.86258 -3.17476,-23.57565 1.94329,-17.71298 -2.55093,-111.36099 3.71633,-165.7543 -2.70693,-23.07614 11.29484,-44.88651 32.42378,-53.26161 4.07641,-1.33069 7.99726,-1.89135 11.78935,-1.79536 z m 245.74249,9.37168 c 13.58825,-0.42814 5.26837,36.98083 -9.623,38.01023 -17.0187,1.17645 -75.44005,24.58927 -115.37719,25.60448 l 0,0.002 c -36.87819,-1.64133 -38.76781,-9.97036 -37.14851,-53.18681 51.23163,14.5581 104.65724,4.74499 154.94043,-7.71396 2.88018,-1.82194 5.26707,-2.65579 7.20827,-2.71693 z m 6.52905,0.8827 c 0.0788,0.0145 0.17352,0.0528 0.28424,0.12556 -0.62756,0.92324 -0.83522,-0.21739 -0.28424,-0.12556 z m 19.89231,170.02423 c 13.54945,0.22535 -1.1174,32.92612 5.60441,44.43462 -11.12883,15.71124 -30.94846,21.40945 -47.1395,30.29912 -28.10578,9.86216 -55.58306,21.28559 -84.33885,29.33869 -41.72797,16.4133 -85.93053,22.6825 -129.01281,34.8357 -8.26892,1.4781 -12.2931,0.966 -25.39203,-0.437 -13.0989,-1.4029 -27.55859,-26.5986 -31.37345,-44.33579 -10.33138,-17.63017 4.4399,-37.19878 22.73192,-39.99691 30.78865,-16.84351 17.41307,24.69177 41.69666,28.29126 12.43603,4.03404 22.81091,-18.88101 29.12633,-8.36909 3.70864,22.80443 29.39545,18.63928 39.91331,3.40211 9.9593,-15.03473 27.7395,9.11622 39.23404,-12.38795 4.59202,-6.38244 21.83452,-29.29387 24.51314,-32.97723 5.35031,-2.61376 15.38908,-9.64363 24.23619,-11.09811 28.3956,-4.54695 55.79293,-16.85931 85.03306,-19.9671 2.06045,-0.73115 3.76589,-1.05562 5.16758,-1.03232 z m -196.17628,6.3884 c 11.86203,-0.0737 24.46429,3.29271 35.40102,4.84142 12.43826,7.47513 31.17751,4.85046 41.68172,14.21316 1.9611,3.10036 -29.41947,39.52574 -33.01023,41.41526 -16.46992,0.96597 -13.99788,-22.78538 -3.39618,-27.18431 -1.6234,-3.6219 9.38936,-24.92521 -3.63256,-11.94207 -23.59989,5.54951 -5.60694,44.78941 -34.64998,53.16886 -18.58963,1.68442 -20.25687,-25.56544 -14.59011,-37.47449 16.06145,-7.4747 2.49752,-26.32373 -6.65172,-7.39396 -5.88027,16.10143 -14.02091,44.61973 -37.33099,34.99112 -11.74151,-11.49524 -1.99201,-32.14768 8.14184,-41.74159 6.88157,-7.46002 13.32446,-9.05325 22.83067,-14.0065 7.20269,-6.69245 15.98049,-8.82959 25.20652,-8.8869 z"
       id="path3347-0"
       inkscape:connector-curvature="0"
       sodipodi:nodetypes="scccccccccccccccccccccssssscccccsssccccsccccccccccssscssscccccsssccccccscccccccccccccssccccccccsscccccccccccsccsccccccccccccccscsccccccccsccsccccssscccccccccccssccccssccscccsscsccccccssccccscccccccccscscsccccccccsscsccssccccsscccccscscccsccsssccccscccsccscscccccccccsscccccscccccscccccs"
       inkscape:export-xdpi="300.052"
       inkscape:export-ydpi="300.052" />
    <g
       id="g4312"
       style="fill:#d40000"
       transform="matrix(1.5320194,0,0,1.5320194,-53.868939,-226.58683)"
       inkscape:export-xdpi="300.052"
       inkscape:export-ydpi="300.052">
      <path
         style="opacity:1;fill:#d40000;fill-opacity:1;fill-rule:nonzero;stroke:none;stroke-width:1;stroke-linecap:butt;stroke-linejoin:round;stroke-miterlimit:4;stroke-dasharray:none;stroke-dashoffset:0;stroke-opacity:1"
         d="m 360.87305,608.79492 c -7.64067,13.65998 -11.33645,29.14222 -13.58789,44.52149 -1.13739,7.57095 -0.67732,15.47762 2.38867,22.56836 2.38608,6.45674 2.15328,13.38796 3.90625,19.99609 1.675,6.95898 2.98048,13.98001 3.03515,21.1543 0.75358,15.83097 0.19025,31.72516 -1.62109,47.45507 -0.90995,6.14407 -4.2811,12.01119 -9.76758,15.13868 -10.01921,6.47551 -20.92412,11.40957 -31.97656,15.84375 -0.52462,1.2959 1.09016,2.74375 1.74805,3.91796 6.73465,9.06337 18.36093,12.46575 29.06445,13.9004 7.69177,1.09384 15.60568,0.79386 23.0293,-1.63086 9.41259,-2.61346 19.17324,-7.85302 23.25195,-17.21485 2.01102,-5.43364 1.5892,-11.39833 1.92969,-17.0957 0.16672,-15.52831 0.23706,-31.14734 -1.98047,-46.54297 -0.70949,-6.04314 1.00283,-12.02992 0.60937,-18.09766 -0.21323,-11.88824 -0.32866,-23.78009 -0.40429,-35.66796 -0.77122,-15.43926 -3.82439,-30.71776 -8.12891,-45.53907 -2.91549,-7.81236 -7.32071,-15.67121 -14.49219,-20.29687 -2.10607,-1.16434 -4.64384,-2.53696 -7.0039,-2.41016 z M 167.75,620.42188 c -8.46,0.11252 -15.53938,6.00851 -20.70703,12.19531 -5.06137,6.30502 -7.24085,14.49361 -6.90039,22.49804 -0.63061,11.48396 -1.77524,22.97284 -1.73242,34.5 -0.41246,24.82295 0.0101,49.65737 -0.66993,74.47461 -0.0673,4.88906 -1.64271,9.7903 -0.86328,14.66211 0.4072,1.50709 2.24338,2.49694 3.47657,1.19336 4.96351,-3.8241 9.90222,-7.76434 15.80078,-10.0664 5.83968,-2.74737 12.28681,-2.82722 18.61328,-2.95703 4.50175,-5.09501 8.45864,-10.84488 13.44726,-15.58008 2.43774,-2.56359 5.35996,-4.68447 8.33789,-6.53907 2.42409,-7.07197 3.04205,-14.64825 3.71485,-22.06054 1.55811,-20.96424 -0.18035,-41.97266 -0.34961,-62.95313 -0.19913,-7.20965 0.0253,-14.98372 -4.13867,-21.25976 -4.72791,-7.9104 -11.94663,-14.89905 -20.99414,-17.42188 -2.29858,-0.56462 -4.67537,-0.71258 -7.03516,-0.68554 z m 162.01172,6.02734 c -3.12704,0.49465 -5.8845,2.28866 -9.05274,2.7207 -16.09702,3.79361 -32.39617,7.14012 -48.9082,8.25391 -11.99965,0.23733 -24.13047,0.76918 -35.94726,-1.64063 -3.87962,-0.63743 -7.77476,-1.52243 -11.53321,-2.49218 -1.27315,1.09378 -0.39855,3.27508 -0.67578,4.76171 0.27019,6.05984 -0.3073,12.22873 0.8457,18.21094 1.06435,4.81041 4.70804,8.89131 9.51172,10.17383 8.71404,2.7497 18.02494,1.8706 26.9375,0.76758 20.18754,-3.18852 39.50108,-10.26977 59.32032,-14.92383 3.26415,-0.39367 6.81483,-1.03832 8.94921,-3.82617 4.15944,-5.07406 6.15779,-12.10856 4.89844,-18.57813 -0.52685,-1.93635 -2.21441,-3.6422 -4.3457,-3.42773 z m 17.17969,111.45703 c -14.02564,1.85796 -27.66835,5.77397 -41.24219,9.63672 -6.84826,2.09125 -13.9502,3.15862 -20.8457,5.03125 -4.52819,1.5648 -8.61077,4.17302 -12.7754,6.47656 -6.17802,8.16436 -12.12615,16.51383 -18.29101,24.67774 -1.88268,2.41778 -5.04833,2.95051 -7.87695,2.48828 -3.71811,0.019 -7.51408,-1.91049 -11.21875,-0.83789 -4.83594,2.57894 -7.37658,8.29431 -12.81836,9.98242 -4.74988,2.09575 -11.30628,1.75839 -14.47266,-2.89258 -1.76376,-1.95141 -1.57271,-4.80463 -3.04883,-6.85937 -1.98049,-2.16383 -5.03745,-0.40078 -6.80664,1.14062 -3.47001,2.42182 -7.30356,6.28555 -11.95312,4.90039 -4.02155,-0.63178 -7.20148,-3.58975 -8.77539,-7.24805 -2.41855,-4.21164 -3.00252,-9.85648 -7.16993,-12.88672 -4.023,-2.17661 -8.36099,0.62349 -12.18945,1.87696 -8.83372,1.86648 -16.70374,9.98864 -16.25,19.3457 0.47453,4.29112 2.56745,8.20365 3.77735,12.31445 3.14492,8.39225 7.51196,16.96386 15.02734,22.23438 4.45332,2.29829 9.68941,2.22557 14.58594,2.35937 7.92663,-0.23981 15.38841,-3.28557 23.09765,-4.82226 22.09968,-5.36849 44.52621,-9.85495 65.88086,-17.82617 14.85874,-4.60438 29.53924,-9.80593 44.11524,-15.26172 6.38652,-2.34183 12.87745,-4.44567 18.86914,-7.73047 8.16645,-4.21164 17.21208,-7.81799 23.22461,-15.07422 2.01323,-1.66901 0.033,-4.05209 0.19726,-6.08789 -0.49737,-7.29327 2.07518,-14.54725 0.8711,-21.80859 -0.35988,-1.8271 -2.02957,-3.24125 -3.91211,-3.12891 z"
         id="path4294"
         inkscape:connector-curvature="0" />
    </g>
    <path
       style="opacity:1;fill:#ffff00;fill-opacity:1;fill-rule:nonzero;stroke:none;stroke-width:1;stroke-linecap:butt;stroke-linejoin:round;stroke-miterlimit:4;stroke-dasharray:none;stroke-dashoffset:0;stroke-opacity:1"
       d="m 502.94611,357.09186 c -8.43578,1.17071 -16.46129,4.42332 -24.89748,5.73533 -17.80174,3.40039 -35.75047,6.30546 -53.32892,10.64712 -33.91431,6.71829 -68.70724,2.7374 -102.90296,0.46759 -12.62575,-0.40206 -24.81443,-3.70248 -36.78102,-7.57354 -9.70159,-2.78442 -19.12004,-6.7897 -29.04225,-8.6834 -8.31475,2.62533 -15.85197,7.38953 -23.55958,11.42395 -22.28644,12.67113 -42.02784,31.11852 -53.35237,54.36442 -2.67478,5.37133 -4.91305,11.12196 -4.41032,17.24375 0.33129,10.82159 -4.63054,21.20178 -3.33313,32.02322 1.24588,5.34436 7.93284,5.27324 12.19439,4.16348 4.08864,-1.34862 8.3146,-2.07729 12.61427,-1.47245 39.099,0.19112 78.13382,-9.20193 112.96459,-26.93925 18.10647,-8.97945 36.64604,-17.82728 52.2662,-30.85253 7.68715,-7.30995 14.26349,-16.36681 17.16362,-26.67247 0.1634,-1.29681 -0.0786,-3.51247 1.78359,-2.29228 7.33564,3.08392 9.36956,11.63597 13.16362,17.87 3.76482,7.38198 9.32874,15.52932 18.34876,16.36107 10.60205,3.75854 20.45734,10.07993 31.18831,13.91634 9.01789,3.79387 18.59703,5.84323 28.00538,8.3394 6.56438,3.22503 12.71849,7.31182 19.21973,10.70041 7.14128,4.0122 14.11418,8.93093 18.18203,16.17723 2.66254,2.56096 6.75572,2.96173 9.37422,5.7141 8.02151,6.83221 9.81827,17.93157 14.21946,27.01215 1.63053,2.44939 1.74246,5.79399 3.84824,7.84513 2.92254,0.48448 4.13237,-3.47233 5.73971,-5.21609 9.92116,-14.9637 14.47071,-33.14672 13.59871,-51.02483 0.17714,-22.5866 -7.42944,-44.35005 -17.0312,-64.50176 -6.10702,-13.89807 -15.02762,-28.30797 -30.00028,-33.76194 -1.66528,-0.64897 -3.43437,-1.10653 -5.23532,-1.01415 z"
       id="path4302"
       inkscape:connector-curvature="0"
       inkscape:export-xdpi="300.052"
       inkscape:export-ydpi="300.052" />
    <path
       style="opacity:1;fill:#ffd5d5;fill-opacity:1;fill-rule:nonzero;stroke:none;stroke-width:1;stroke-linecap:butt;stroke-linejoin:round;stroke-miterlimit:4;stroke-dasharray:none;stroke-dashoffset:0;stroke-opacity:1"
       d="m 379.51006,412.27126 c -8.23869,0.15713 -13.41528,7.3641 -18.2406,13.02814 -7.84294,6.95313 -17.27079,11.80939 -26.173,17.26814 -14.36937,8.24887 -29.17742,15.68856 -44.39864,22.14545 -1.13728,2.16119 3.33067,1.70339 4.8025,1.927 22.40326,0.3961 44.84658,-1.44276 67.22335,0.0807 4.08604,0.70008 8.4131,1.27263 12.25915,2.58527 -6.44855,8.34682 -4.23126,19.57526 -6.41235,29.21012 -1.27828,8.73697 -9.37609,13.5387 -16.32257,17.59129 -14.39199,7.95079 -32.34571,10.60092 -47.95042,4.89526 -10.62393,-4.19942 -19.03905,-13.93523 -20.26336,-25.37407 -1.57587,-8.47391 -5.00495,-18.51504 -14.03055,-21.5081 -8.60447,-2.86085 -17.1206,1.91676 -25.6344,2.83963 -18.98741,3.39061 -38.20649,6.20094 -57.56742,5.24237 -3.60063,-0.033 -7.28698,-0.31548 -10.77799,-0.82585 -0.50914,2.00379 2.92112,2.62097 3.99463,4.12326 3.36255,3.12839 7.52126,6.24241 8.44706,10.94858 -0.70833,2.8225 -4.70374,1.6561 -6.82528,1.50807 -4.37885,-0.85132 -9.14642,-2.65547 -13.33936,-0.10484 -10.35762,4.81906 -15.56275,19.42478 -9.17115,29.22806 3.25702,5.25692 9.54359,7.66045 15.55058,7.04669 5.98357,0.15931 12.00445,-2.24034 17.92943,-1.02933 3.76557,2.29299 2.33479,7.66743 2.13644,11.23581 -0.85626,5.11046 -1.89526,10.39662 -0.007,15.42791 6.85545,27.49357 25.0502,52.4653 50.36215,65.66439 22.17415,12.98252 44.44235,26.5719 69.12341,34.26997 24.32425,6.60034 49.89646,10.05617 75.01806,6.6188 24.0468,-3.7442 47.97877,-10.57186 69.18623,-22.73195 17.57071,-10.58964 29.51447,-27.94409 40.94261,-44.50036 8.31552,-12.86486 16.79171,-25.71691 23.71342,-39.39566 2.53969,-5.45732 2.76128,-12.35206 7.31896,-16.66969 3.28184,-1.88193 6.23692,1.66268 8.93479,2.72891 6.76047,-2.799 12.27551,-8.29237 16.08321,-14.44345 2.18626,-4.53917 1.8528,-10.52273 -2.307,-13.863 -2.21529,-2.71537 -4.84525,1.00801 -6.84323,2.10653 -4.31698,2.90309 -8.24798,7.48406 -13.74628,7.73193 -5.01482,-1.4349 -5.65625,-7.69522 -7.0437,-11.90009 -1.19674,-3.15359 -1.36075,-8.45062 -5.41293,-9.29385 -4.15095,0.26827 -6.7334,4.49603 -9.92821,6.68463 -14.08114,13.71574 -32.71625,21.01915 -50.43395,28.71638 -18.89802,7.81491 -38.22083,14.67154 -57.89358,20.30823 -2.08609,-1.84691 -5.71335,-4.03416 -5.22743,-7.18135 5.44169,-2.98956 12.15147,-2.09411 18.03415,-3.89885 10.58159,-3.55428 21.19491,-6.96752 31.84924,-10.31718 11.0338,-4.02285 21.35016,-9.75765 31.86422,-14.93721 6.92939,-4.01384 12.74466,-9.68079 19.8175,-13.50691 4.76924,-3.40299 10.69818,-6.73458 12.57632,-12.64213 0.47655,-2.7246 -0.95968,-6.27722 -3.59665,-7.33697 -9.26656,-1.43228 -18.72654,0.29138 -27.90251,1.69961 -19.16902,4.18103 -37.88118,10.22275 -57.23826,13.54879 -6.04524,0.96993 -12.3053,2.56214 -18.4441,1.71455 -2.5599,-1.58915 0.28584,-5.34918 2.66907,-5.24537 5.02538,-0.28449 11.86938,-0.72321 13.63558,-6.48714 2.2107,-9.61755 -4.19076,-18.31211 -6.19691,-27.36391 2.76082,-2.37195 6.93816,-3.33505 10.44289,-4.56913 14.88573,-4.21399 30.69504,-3.12665 45.82891,-6.1999 1.86157,-1.76523 -2.13444,-2.38205 -3.24656,-3.05803 -20.60095,-8.5547 -43.07659,-14.21411 -60.67634,-28.58174 -7.32966,-5.44339 -14.04843,-12.80226 -23.24658,-14.9402 -1.07081,-0.1863 -2.16066,-0.25303 -3.24658,-0.21835 z m -14.3537,145.02117 c 6.06958,0.22342 12.02045,2.48243 16.22982,7.01078 6.7381,5.27088 15.92983,3.40695 23.84204,3.39319 8.69412,-0.43597 18.34233,-1.11092 26.25078,1.88511 -8.35969,3.48405 -16.97867,7.05019 -26.00543,8.48596 -6.88398,0.77757 -13.91942,0.79719 -20.56856,-1.25974 -9.22721,1.39769 -18.72754,1.03745 -28.03713,2.25015 -2.98576,0.41993 -5.71901,2.02022 -8.21964,3.40516 -6.00668,-1.98964 -13.52211,-6.64425 -12.53443,-14.01558 1.67163,-6.36866 8.38905,-10.17284 14.7008,-10.38602 3.91286,-0.41051 7.80995,-0.69599 11.7385,-0.73908 0.86725,-0.0504 1.73614,-0.0619 2.60325,-0.0299 z m 20.60443,31.72658 c 16.8705,0.0256 34.3158,0.25053 50.25145,6.30759 -0.43977,4.15548 -5.23174,6.76861 -9.11133,7.03473 -13.99298,0.94096 -28.0051,-5.85429 -41.92408,-1.8881 -10.40371,2.54524 -21.14157,3.36846 -31.64276,5.6583 -10.32916,1.79283 -20.58007,4.24663 -30.99647,5.13466 -2.5363,-1.08267 -4.32346,-4.42712 -4.21605,-7.1604 1.7174,-5.78032 8.13127,-8.28871 13.11493,-10.62239 5.51059,-2.14032 11.10092,-4.4688 17.13947,-3.83304 12.46082,-0.23016 24.92136,-0.58847 37.38484,-0.63135 z m -71.30469,78.68056 c -5.72562,1.09881 -6.65722,7.99738 -8.00421,12.65712 -2.5234,9.18434 -3.26952,19.61935 -9.72175,27.12452 -4.33257,4.73518 -11.42679,4.74925 -17.07962,2.7768 -3.17447,-0.0774 -2.3344,4.17086 -1.7774,6.14003 3.64121,10.16768 12.45817,17.93447 22.02878,22.48957 8.69263,4.18242 18.61202,1.7352 27.71699,3.82107 11.33996,1.57672 22.88448,0.95901 34.29091,0.49073 30.3475,-2.32853 59.83912,-10.43104 89.38371,-17.28012 1.83843,-0.94877 6.75799,-0.25254 6.13406,-3.5787 -2.64967,-12.24628 -13.16752,-20.28118 -21.79237,-28.43811 -3.17579,-3.0304 -7.27085,-5.89613 -7.44764,-10.74806 -1.41615,-4.854 -1.64313,-10.46001 -4.72474,-14.62602 -3.12094,-1.70288 -6.69725,1.00063 -9.85936,1.45423 -15.30157,4.95716 -31.324,7.64585 -47.40582,6.78638 -17.12597,-0.2822 -33.77319,-4.93269 -50.32623,-8.98564 -0.46805,-0.0665 -0.94226,-0.11063 -1.41531,-0.0839 z m -33.06112,242.72035 c -8.22068,-0.0901 -16.59006,2.03087 -23.13887,7.1544 -8.92699,5.57002 -19.55413,8.93187 -26.33159,17.43579 -7.86936,8.5055 -13.94646,20.45095 -11.44827,32.28312 1.12854,5.39792 5.59321,10.32417 11.42133,10.14655 6.14254,0.93247 12.29513,-1.64345 16.23881,-6.37955 9.02013,-9.40038 11.15495,-22.84805 17.21427,-33.90489 1.84342,-3.13627 6.48584,-6.42775 9.61702,-3.01311 3.20851,3.59684 0.67712,8.70892 -2.55237,11.34654 -1.79835,1.30724 -3.94809,2.34093 -4.3507,4.83852 -2.78189,9.76141 -2.84867,21.37113 3.36624,29.86531 3.87495,5.24993 11.55063,7.05173 17.20532,3.60263 9.31966,-4.09983 13.32107,-14.47727 14.79955,-23.88102 2.00097,-7.88996 2.30989,-16.98691 7.9264,-23.37826 3.09518,-3.11507 7.80448,-3.56672 10.75107,-6.90905 0.50892,-0.33236 3.0083,-2.36866 2.70795,-0.44563 -0.94252,4.90697 -2.42599,9.98964 -3.21064,14.76647 -7.63093,4.59342 -10.48772,16.0959 -5.61639,23.63567 2.41174,3.09048 7.36227,5.16968 11.01437,3.24039 10.7517,-11.22989 21.14873,-22.95072 29.8983,-35.83466 1.14112,-1.80686 3.52278,-4.76357 0.86776,-6.42438 -8.65351,-6.5921 -20.16268,-6.51958 -30.21848,-9.47935 -5.79141,-1.6397 -11.25973,-4.30368 -17.29808,-5.09576 -9.51225,-1.79088 -19.15288,-3.54076 -28.863,-3.56973 z"
       id="path4306"
       inkscape:connector-curvature="0"
       inkscape:export-xdpi="300.052"
       inkscape:export-ydpi="300.052" />
    <path
       style="opacity:1;fill:#ffffff;fill-opacity:1;fill-rule:nonzero;stroke:none;stroke-width:1;stroke-linecap:butt;stroke-linejoin:round;stroke-miterlimit:4;stroke-dasharray:none;stroke-dashoffset:0;stroke-opacity:1"
       d="m 287.06825,13.590115 c -1.47311,-0.0096 -2.93758,0.0024 -4.39259,0.03904 -21.06765,1.010413 -43.54073,3.351493 -61.52315,15.317211 -9.01922,6.598243 -19.14273,18.518698 -13.63258,30.305248 1.91344,7.147771 8.91593,17.29193 1.60981,23.417166 -8.35933,-3.030729 -13.44656,-12.023268 -22.11853,-14.910261 -38.27031,-14.779733 -85.41282,3.871473 -103.779343,40.421961 -8.483019,14.2999 -13.999558,31.14473 -10.415948,47.84272 5.324623,33.18527 33.424531,63.9778 68.258631,65.036 28.49844,2.47127 55.09304,-12.08543 75.90081,-30.29031 19.5822,-13.53182 42.67309,-20.8402 65.14373,-28.08202 28.45837,-8.50876 58.0705,-12.20998 87.72608,-11.5111 20.29977,0.77276 41.46358,-2.22546 61.05335,3.78517 17.49041,7.51061 34.32119,16.78222 52.8367,21.74149 16.87617,4.35591 31.2847,14.19379 47.14849,20.94857 30.10437,12.43263 64.66295,13.99457 95.38023,2.72294 10.59555,-3.65411 20.8732,-8.31345 31.75049,-10.91265 7.19007,-5.87984 12.87503,-13.95743 16.99872,-22.27711 2.5041,-9.8374 2.13728,-20.93331 -1.77432,-30.37109 -6.72613,-11.91065 -18.81955,-19.5256 -28.71039,-28.48897 -12.42578,-1.62644 -25.83079,-0.0472 -37.36989,-5.25437 -2.15897,-2.2654 4.10103,-2.30445 5.35019,-2.74685 7.04088,-0.930249 17.03126,0.82624 21.2687,-6.232795 0.29837,-7.499887 -6.47836,-13.249026 -10.3261,-19.12631 -10.77895,-12.682097 -22.56798,-26.143116 -38.55494,-32.094607 -21.28967,-4.71354 -47.12017,-6.268227 -64.31789,9.670863 -5.3975,6.365402 3.5678,12.748326 4.89526,18.946781 1.80978,2.737977 -0.56714,7.42086 -3.74325,4.464384 -5.08964,-3.137115 -6.57443,-10.71092 -12.17836,-12.854589 -2.75095,0.478406 -3.75569,5.60581 -6.34053,5.023938 -4.17216,-10.211473 -2.11311,-23.426614 -11.22683,-31.487188 -8.67209,-8.881746 -21.96587,-10.196748 -33.17781,-14.183135 -27.11945,-6.961735 -56.90623,-6.955758 -83.06415,3.758222 -6.56563,2.538372 -16.19644,7.531557 -13.77621,16.155036 1.41613,6.757719 6.83292,11.562217 11.95396,15.703188 -6.62317,-0.147257 -14.08811,2.370821 -20.22146,-0.107731 -1.75042,-6.949854 -1.04062,-14.975337 -6.29865,-20.754072 -14.46986,-17.777952 -38.23596,-23.455077 -60.33223,-23.61465 z m 72.83374,144.808765 c -27.45968,0.31033 -54.43335,7.00609 -81.03246,13.28848 -16.26067,4.7241 -33.19642,9.15877 -47.50755,18.48296 -6.65119,5.82829 0.42169,14.73833 3.43806,20.59549 8.05458,15.00987 11.55564,31.95323 17.80075,47.72301 9.79188,28.89755 16.28663,58.69603 21.25976,88.73443 2.33448,10.55332 14.57389,13.40973 23.48897,16.17299 22.81568,4.22884 46.00936,7.22354 69.23114,7.67505 29.83607,1.1436 59.44682,-3.53302 88.34541,-10.60145 11.26074,-3.28018 23.45272,-3.84017 34.19516,-8.61461 7.14948,-4.52343 2.02519,-14.085 1.48116,-20.52668 -8.94241,-32.87119 -13.68415,-66.89501 -11.88811,-100.95468 0.35835,-13.70863 2.44736,-27.36376 3.44105,-40.9516 -9.50404,-11.50235 -25.82882,-11.93908 -38.3753,-18.49794 -16.7578,-9.57767 -36.20391,-12.98703 -55.33521,-12.40277 -7.68098,-0.11279 -15.36447,-0.10773 -23.0461,-0.0988 -1.83501,-0.0381 -3.66606,-0.0446 -5.49673,-0.0241 z m 117.74405,541.53293 c -6.42136,0.11039 -11.17582,5.85261 -11.09516,12.25019 -1.94336,19.6365 -1.64552,39.684 -6.11012,58.94684 -5.40688,10.09929 -18.8693,8.36242 -28.36331,10.5446 -34.09037,4.48092 -66.48568,17.53357 -100.40112,22.34294 -13.36009,0.27229 -27.39286,1.08103 -40.29031,-3.12687 -7.10689,-2.74191 -10.80185,-10.29427 -10.01799,-17.69903 -1.98549,-18.98035 1.29438,-39.72922 -8.076,-57.18739 -8.61485,-13.58032 -26.04104,-21.10706 -41.8343,-18.97072 -4.8244,1.24282 -13.19157,3.50458 -12.92342,9.65592 17.37547,11.62898 36.03441,26.14719 39.89234,48.06411 4.95802,26.58916 -2.76714,53.94721 2.85159,80.46992 2.6783,19.47435 -5.65635,39.02554 -2.4177,58.48304 1.14502,5.20791 6.65348,2.70238 9.91322,1.40336 12.78889,-1.86012 26.28907,-0.94756 39.27895,-0.74805 22.05121,5.16828 43.77003,12.5192 66.28678,15.28427 32.1342,-7.62775 63.7312,-17.53634 95.94869,-24.73374 4.55453,-0.85655 9.08022,0.32484 12.66607,3.07901 2.40997,-32.89927 -4.88065,-66.15514 -12.36386,-98.19885 -3.72822,-15.86618 -0.80908,-32.19052 4.26991,-47.46269 3.68941,-16.55762 10.43103,-32.20639 15.26332,-48.37829 0.44898,-4.78064 -8.5339,-3.48044 -11.16995,-3.9647 -0.44199,-0.0441 -0.87952,-0.0612 -1.30763,-0.054 z"
       id="path4322"
       inkscape:connector-curvature="0"
       inkscape:export-xdpi="300.052"
       inkscape:export-ydpi="300.052" />
    <path
       style="opacity:1;fill:#ffffff;fill-opacity:1;fill-rule:nonzero;stroke:none;stroke-width:1;stroke-linecap:butt;stroke-linejoin:round;stroke-miterlimit:4;stroke-dasharray:none;stroke-dashoffset:0;stroke-opacity:1"
       d="m 477.8645,469.0158 c -6.14814,0.0658 -11.52836,3.97554 -15.73014,8.11791 -3.21518,1.02627 -7.39331,-0.50675 -10.19453,1.70855 0.0217,2.04136 3.18729,2.33206 4.47338,3.51586 2.97901,1.42252 5.81491,3.2676 8.41114,5.16758 3.90454,-0.80365 7.33017,-2.90242 11.44229,-2.8486 5.55371,-0.85224 11.85107,0.10821 16.83127,-2.91143 3.0241,-3.33631 -0.54582,-7.76086 -3.41712,-9.83844 -3.29038,-2.70848 -7.73174,-3.04502 -11.81629,-2.91143 z m -159.12953,7.4686 -0.48474,0.25733 -0.28427,0.14943 c -1.54847,3.6817 -4.73046,8.87943 -1.50808,12.55539 3.93867,2.34641 9.03108,1.33667 13.36329,0.85875 5.643,-0.92225 11.19171,-3.22231 16.58589,-4.46737 -7.46639,12.79624 -24.15124,18.69523 -38.09999,15.12269 -7.01839,-1.8157 -12.49445,-8.05937 -13.39323,-15.2364 -1.48409,-2.67038 -5.7347,-0.25092 -4.98205,2.51646 1.14222,8.18164 5.85803,15.74055 11.83727,21.31363 6.67059,5.85735 15.79542,7.35241 24.38962,7.04368 9.53503,0.65039 18.61539,-3.72711 26.30165,-8.96769 6.23227,-4.39462 12.55913,-11.67914 10.29626,-19.8654 -1.30435,-5.15574 -5.02936,-10.36037 -10.81091,-10.5835 -11.02918,-1.17593 -22.23446,1.1053 -33.21071,-0.69717 z m 116.98702,8.36027 c -4.10386,1.19158 -2.59542,8.44571 1.70257,8.2376 2.31341,0.43389 3.24947,-2.29259 2.00179,-3.96768 -0.801,-1.52476 -1.54669,-4.32002 -3.70436,-4.26992 z"
       id="path4332"
       inkscape:connector-curvature="0"
       inkscape:export-xdpi="300.052"
       inkscape:export-ydpi="300.052" />
  </g>
</svg>
