<?xml version="1.0" encoding="UTF-8" standalone="no"?>
<!-- Created with Inkscape (http://www.inkscape.org/) -->

<svg
   xmlns:dc="http://purl.org/dc/elements/1.1/"
   xmlns:cc="http://creativecommons.org/ns#"
   xmlns:rdf="http://www.w3.org/1999/02/22-rdf-syntax-ns#"
   xmlns:svg="http://www.w3.org/2000/svg"
   xmlns="http://www.w3.org/2000/svg"
   xmlns:sodipodi="http://sodipodi.sourceforge.net/DTD/sodipodi-0.dtd"
   xmlns:inkscape="http://www.inkscape.org/namespaces/inkscape"
   viewBox="0 0 744.09448819 1052.3622047"
   id="svg3364"
   version="1.1"
   inkscape:version="0.91 r13725"
   sodipodi:docname="happy.svg">
  <defs
     id="defs3366" />
  <sodipodi:namedview
     id="base"
     pagecolor="#ffffff"
     bordercolor="#666666"
     borderopacity="1.0"
     inkscape:pageopacity="0.0"
     inkscape:pageshadow="2"
     inkscape:zoom="0.98994949"
     inkscape:cx="156.96502"
     inkscape:cy="759.88477"
     inkscape:document-units="px"
     inkscape:current-layer="layer1"
     showgrid="false"
     inkscape:window-width="1920"
     inkscape:window-height="1138"
     inkscape:window-x="-8"
     inkscape:window-y="-8"
     inkscape:window-maximized="1" />
  <metadata
     id="metadata3369">
    <rdf:RDF>
      <cc:Work
         rdf:about="">
        <dc:format>image/svg+xml</dc:format>
        <dc:type
           rdf:resource="http://purl.org/dc/dcmitype/StillImage" />
        <dc:title />
      </cc:Work>
    </rdf:RDF>
  </metadata>
  <g
     inkscape:label="Layer 1"
     inkscape:groupmode="layer"
     id="layer1">
    <path
       style="opacity:1;fill:#000000;fill-opacity:1;fill-rule:nonzero;stroke:none;stroke-width:1;stroke-linecap:butt;stroke-linejoin:round;stroke-miterlimit:4;stroke-dasharray:none;stroke-dashoffset:0;stroke-opacity:1"
       d="m 254.85976,2.8970113 c -32.19112,1.3074314 -58.54099,23.2795977 -80.04951,45.2421507 -22.88113,-8.336614 -49.01466,0.375407 -64.86682,18.152774 -9.10427,9.176041 -14.579581,21.087155 -19.455832,32.781599 -18.127793,-0.61855 -36.86755,6.074115 -49.182936,19.856775 -22.189573,23.37874 -27.65089,64.64094 -4.70571,89.38708 17.061396,18.86817 45.25125,21.18282 68.570198,14.89781 15.17503,-3.45989 29.4599,-9.86174 43.16892,-17.10297 26.16956,19.09874 41.14863,50.29853 47.68471,81.35256 2.43001,18.56622 -13.84062,31.70228 -22.7477,45.98604 -8.36675,10.72655 -10.55473,24.39774 -11.03094,37.61917 -0.14015,4.98569 -2.46286,12.13393 -8.8891,10.35567 -6.93167,-1.86185 -15.05707,-3.2913 -21.21258,1.8939 -14.2362,9.98377 -11.80735,30.06561 -7.15876,44.51415 5.62323,16.01762 13.39162,33.86263 30.38654,40.48904 8.58305,3.93958 18.38984,8.22376 21.22836,18.17387 2.81409,3.83075 -1.52081,3.70479 -4.18871,3.6295 -35.12503,1.44795 -71.36675,-6.16224 -105.44022,5.62362 -18.094476,6.80809 -36.394801,14.45175 -52.047488,25.93936 -12.539159,11.79764 -15.28232065,30.89961 -9.432467,46.67184 11.07117,34.53021 21.034217,70.01336 39.238698,101.63134 9.97812,16.58467 25.273718,29.02097 34.591065,46.03349 16.633716,26.25009 28.252872,55.51786 46.550522,80.69315 6.82237,14.70534 -3.059,31.43119 2.18927,46.30781 0.46862,1.32828 1.01294,2.64479 1.7462,3.94079 6.68896,7.90856 19.05185,3.81453 26.98914,0.058 4.08309,-0.73292 7.7152,-9.51031 10.19741,-3.29716 2.75543,5.49987 11.27742,10.41453 5.97181,16.71786 -6.3944,16.71077 6.45842,36.79258 23.11172,41.04821 2.86117,1.00556 7.1234,-0.46373 8.97879,-1.2239 -4.55828,9.1722 -5.90267,21.76875 1.78837,29.65331 10.45333,2.31372 13.11039,14.99511 16.41719,23.59691 2.11905,6.16956 6.34144,15.315 14.51273,12.39741 0.45745,-0.16966 0.82467,-0.40005 1.12366,-0.67001 -0.0462,2.54163 2.14565,7.02152 2.38976,8.51991 7.41205,22.76063 15.48123,45.50003 26.04486,66.99263 7.03152,12.1574 23.77192,10.1944 34.3906,4.2785 18.96943,-10.482 33.45943,-27.228 49.67882,-41.3068 10.33452,-10.58276 25.3185,-21.36991 25.37487,-37.66645 -0.39638,-6.7319 -4.83464,-12.39742 -9.73317,-16.65996 18.51822,6.7759 36.98038,21.00658 57.69749,16.09541 5.29874,-1.17111 10.56343,-7.16759 13.97461,0.0786 14.38596,15.46376 37.88001,13.26389 56.36809,8.02915 15.8303,-4.10002 31.92636,-9.54867 43.5646,-21.64513 9.06055,-7.72671 18.74344,-16.24564 30.96685,-17.81508 C 628.81854,914.3162 679.19053,873.57915 718.18062,825.5539 733.436,805.32543 740.55193,776.70778 728.82648,753.09046 710.78425,713.695 689.35843,675.88138 672.09964,636.11284 656.56812,602.8579 642.69773,568.39265 621.888,537.9791 c -18.30052,-21.21703 -37.9248,-42.17517 -61.95477,-56.97476 -15.90341,-8.9458 -34.75632,-9.8749 -52.33765,-13.24665 -10.41984,0.35112 -18.30601,-8.84243 -21.49743,-17.9365 -2.18096,-12.62553 3.53179,-25.44153 2.15766,-38.31552 0.3013,-7.1239 -2.44885,-15.03863 -0.8335,-21.57129 14.10164,-13.37575 13.44362,-34.83942 13.47347,-52.81241 -1.33795,-13.41689 -0.29265,-28.09751 -6.87389,-40.26743 -8.12823,-12.86804 -28.30812,-10.271 -35.58813,2.04686 -2.23699,2.41648 -2.4626,7.73938 -4.20982,9.00516 -17.16461,-20.86408 -37.18183,-41.02489 -63.05206,-50.87106 -16.96133,-5.50164 -33.65818,-13.59009 -44.80959,-28.04425 -21.8254,-26.1929 -29.01234,-61.50682 -28.11284,-94.82075 0.84715,-7.22451 -1.44862,-15.84423 2.83293,-22.07775 21.35006,-10.48091 46.29642,-15.150395 64.55556,-31.315027 9.48991,-9.97812 10.77821,-26.550906 4.97476,-38.726977 C 378.37788,18.439888 349.90999,3.3116844 323.54074,8.1297847 311.57622,9.8759847 300.86005,22.457755 288.27442,16.69182 279.13927,11.356219 271.19603,2.3792415 259.63405,2.9862158 258.0437,2.9085186 256.45179,2.8772919 254.85976,2.8964708 Z m 3.34465,5.8029634 c 13.39506,0.0654 25.71431,10.3163013 27.7488,23.7025583 2.80839,4.336033 7.4818,-4.080442 11.22086,-5.486471 21.45088,-14.999339 53.91575,-19.3798753 74.37844,-0.891528 10.26011,8.763212 21.53677,22.044922 16.3486,36.511272 -7.02034,20.682931 -28.75137,31.810999 -49.13018,34.970919 -42.91973,9.351395 -80.25475,34.326275 -113.18984,62.440155 -22.21851,14.95142 -47.19738,25.24276 -70.9969,37.37649 -24.6269,11.35625 -50.64874,22.53562 -78.145098,23.31218 -22.913781,-0.93139 -43.912125,-19.82921 -47.974839,-42.16661 -0.119496,-10.69538 -0.818602,-21.73033 0.332328,-32.21183 8.959522,-21.45536 29.560944,-41.36343 54.199903,-39.97731 6.302614,-0.1168 10.755709,5.13063 16.0426,7.31703 0.512754,-5.08721 -3.176448,-11.30412 -1.361057,-17.097705 7.063683,-24.095278 29.779433,-44.864882 55.371043,-45.653658 10.05572,0.128594 20.3075,4.466914 26.47215,12.597728 4.0622,-0.757624 3.97762,-7.744516 6.38855,-10.756619 5.11018,-13.977421 15.16334,-25.759941 28.71421,-32.000814 12.49734,-6.868009 26.59072,-11.8418753 40.88994,-11.8591603 0.89984,-0.08827 1.79749,-0.131053 2.69049,-0.126627 z M 313.20086,112.31489 c -4.89879,39.32901 4.37628,79.87615 23.36492,114.48762 2.01964,3.99925 5.09176,7.52258 6.63122,11.71676 -37.25736,3.42821 -72.90069,16.86162 -104.88629,35.94684 -11.00191,5.9531 -21.0221,14.01612 -30.94047,21.18617 -4.59629,-10.76517 -4.25312,-23.24886 -9.42718,-33.99491 -8.29936,-22.45128 -24.35054,-40.52468 -38.62679,-59.26432 22.41048,-11.27637 46.13214,-20.89211 66.18567,-36.448 27.76354,-20.02415 53.8063,-44.59302 87.69892,-53.63016 z m 18.80167,135.55247 c 29.0924,1.71298 57.20166,13.23652 81.16794,29.41585 14.62841,10.69307 26.86634,24.46869 37.60863,38.98551 4.41309,4.43105 10.10499,-0.10424 11.5796,-4.87978 3.41492,-7.96116 11.53093,-19.20666 21.54488,-13.90607 11.25161,14.44838 9.4437,34.62438 7.20625,51.72571 -1.88795,14.62098 -7.34088,28.49589 -10.57199,42.66247 0.90326,19.18005 5.08127,39.63793 -4.53689,57.38097 -4.2184,15.09418 -6.71045,30.98659 -15.97928,44.17128 -22.42913,34.35668 -64.66513,52.06099 -104.78611,50.9449 -17.8438,0.0636 -35.34613,-4.78621 -53.26611,-4.83228 -37.41844,-2.55918 -77.92839,-9.84678 -105.81478,-37.04414 -11.64336,-10.26438 -19.08504,-24.43467 -24.56245,-38.53709 -4.46527,-0.45746 -9.41845,0.84045 -13.81637,-1.44549 -6.58256,-2.52244 -13.84192,-5.93852 -16.41191,-12.90372 -7.45799,-12.71266 -12.11519,-26.91181 -14.95057,-41.29087 -2.9235,-14.69923 15.63827,-26.76113 27.82791,-18.02089 8.84991,5.55625 6.49111,18.50474 14.91897,24.5519 2.42725,-5.1613 -0.54701,-12.92323 -0.46953,-19.08129 -5.24182,-27.57793 2.18357,-58.2938 23.52847,-77.34324 29.76933,-30.86593 67.23096,-53.76875 108.71101,-65.06199 10.18313,-2.82123 20.55962,-5.57242 31.07233,-5.49174 z m 44.45615,81.76931 c -0.46416,-0.0123 -0.91503,-0.007 -1.35579,0.005 -0.45495,0.0197 -0.89815,0.0497 -1.32412,0.10003 -22.1915,1.38397 -29.30086,8.82411 -35.12392,19.10766 3.42459,0.21613 6.65772,7.19833 5.50758,5.4073 6.55955,29.72719 45.13218,28.42317 52.69637,-4.33114 18.78535,-5.12832 -6.00996,-19.83642 -20.40012,-20.28935 z m -2.08381,10.17106 c 1.46887,-0.0814 3.00495,0.048 4.42084,0.29013 16.64602,-2.6984 0.11802,20.57602 -10.75662,8.6834 -1.87261,-6.59887 1.92928,-8.7296 6.33578,-8.97353 z m 17.63053,2.24735 c 1.38163,0.46648 -0.68094,17.24969 -3.1811,8.63061 1.51577,-6.09861 2.48561,-8.40865 3.03866,-8.62535 0.0516,-0.0222 0.0981,-0.0222 0.14237,-0.005 z m -34.25872,0.52227 c 1.75816,-0.39476 0.82058,18.45166 11.82225,18.56953 34.04139,-2.21098 -15.2946,25.89163 -14.25422,-2.58496 l -0.76493,-7.7707 c 1.72725,-5.81309 2.6108,-8.08233 3.1969,-8.21387 z m -99.50008,10.27657 c -16.81826,-0.5938 -36.16817,11.94172 -39.55526,30.29683 -3.54135,6.07943 7.74307,19.34444 11.14174,8.06614 -13.88106,-5.11357 8.37396,-33.59884 5.81883,-9.20564 8.8782,31.6317 43.81226,1.28589 44.28204,-16.36441 -4.76153,-8.56744 -12.87774,-12.48194 -21.68735,-12.79292 z m 23.99269,0.16891 c 10.07913,21.65088 7.19472,45.18152 3.03341,69.4301 7.14973,33.11516 60.68117,14.77935 67.88436,-5.88214 -5.82299,-6.31633 -25.62442,22.91602 -43.98134,18.40074 -41.76863,-5.87997 5.15933,-65.46185 -26.93643,-81.9487 z m -21.84029,7.8393 c 11.19221,0.2937 1.48866,25.2347 -10.7461,9.98644 l -0.15294,-2.10492 2.41089,-5.09609 c 3.62222,-2.04796 6.41539,-2.83982 8.48817,-2.78543 z m 10.84103,12.55556 c 0.12465,-0.034 0.22153,-0.0305 0.29539,0 2.2967,0.92297 -19.11386,31.1728 -28.77224,12.55025 0.51113,-6.21166 22.61772,3.41087 21.0068,-5.31763 4.22039,-4.92292 6.54977,-6.98238 7.47005,-7.23262 z m 141.37651,23.91886 c -0.61598,-0.033 -1.24516,-0.0147 -1.8886,0.0632 -0.99551,5.24034 8.8314,7.10457 10.61947,13.22553 16.11139,39.28538 10.36329,-12.27079 -8.73087,-13.28884 z m -3.06503,19.51912 c -4.04663,0.1458 -9.67768,2.68965 -14.49691,7.31703 -40.89134,26.15384 -95.73716,40.89857 -142.79564,36.50606 0.50961,9.3219 17.73375,6.82641 24.03492,11.31581 26.33077,23.52179 47.52989,49.06561 86.89177,43.06872 40.64785,-10.07605 48.92015,-50.84675 49.02469,-86.20601 5.12975,-8.41465 2.54402,-12.18942 -2.65883,-12.00161 z m -5.9243,10.44538 c 3.45825,-0.0646 4.13412,3.81328 -0.40622,15.50449 -21.60612,18.99905 -48.2335,33.16872 -76.55719,42.48842 -17.7046,7.53297 -32.00089,-2.25951 -42.27737,-15.97402 23.81359,-7.4754 59.75677,-11.16313 85.83667,-25.48038 10.04517,-1.92276 26.80202,-16.41513 33.40411,-16.53851 z m -167.33169,16.60709 c -1.68934,-0.007 -4.98108,7.07342 -8.17166,22.32038 -0.54383,15.20496 15.46072,26.69743 5.2596,3.50287 4.68594,-16.6837 4.82661,-25.81145 2.91206,-25.82325 z m 163.5017,11.33691 c 9.25201,0.81742 -4.17156,39.20754 -15.84214,42.7891 -22.4231,19.8004 -51.79264,7.14745 -70.23721,-2.21042 22.79829,-5.58993 52.52732,-19.57606 75.7553,-34.25342 4.851,-4.70289 8.189,-6.5139 10.32405,-6.32526 z m 83.59991,3.28134 c 3.99412,3.55599 9.35074,7.12697 6.52573,13.16751 -2.01863,18.47528 -5.5517,38.06167 0.2058,56.1623 5.26634,11.12467 18.32322,17.66477 20.91184,30.08058 1.61296,11.72769 -11.57559,16.69455 -18.97575,22.61582 -12.5844,9.27786 -20.76805,24.50171 -19.11293,40.35184 -1.09358,19.45086 6.76522,37.71226 15.90017,54.39506 2.48276,4.33003 -6.26554,1.74883 -8.8047,2.6641 -18.91541,1.02296 -38.18671,-0.55663 -55.5029,-8.90493 -8.39707,-4.5035 -18.08346,-9.22086 -23.07478,-17.65163 2.60584,-16.15904 13.54804,-29.58478 20.54256,-44.06574 9.27929,-16.43478 18.11564,-35.20558 13.39432,-54.54807 -0.99598,-7.63664 -3.77177,-15.58966 -4.13594,-22.95344 23.91404,-16.98738 43.53045,-41.1238 51.2984,-69.76772 0.23604,-0.36219 0.44039,-1.55146 0.82823,-1.54568 z m 23.85555,15.50979 c 24.88671,0.41275 47.89729,13.23607 68.24839,26.82033 27.27738,20.2059 46.67736,49.16939 62.65112,78.51967 16.3672,31.51741 26.85522,65.78857 43.9075,96.93621 7.91411,11.23171 11.67939,24.84488 18.4535,36.79094 11.56571,25.37563 27.92566,52.47951 22.09882,81.25761 -5.33009,27.07636 -28.22518,45.33929 -46.44501,64.29178 -17.75219,18.53795 -38.35855,34.17426 -61.40612,45.69588 -14.67937,6.93998 -27.60655,18.03622 -44.09213,20.53725 -9.03139,1.52567 -18.72724,4.10296 -27.85433,2.53745 -11.57863,-27.36517 -27.28696,-53.06869 -41.15897,-79.27924 -2.3804,-6.72755 -8.98045,-13.53431 -7.048,-20.98571 5.2308,-9.12648 17.65726,-7.85214 26.27171,-11.51103 17.3248,-4.95997 33.41285,-13.1735 50.7761,-18.11058 15.79693,-5.18765 31.62437,-10.6311 47.95375,-13.74252 1.4361,-4.01899 -3.87383,-8.03131 -5.1541,-11.77478 -12.35287,-22.17586 -25.18222,-44.72825 -32.30152,-69.22433 -6.81303,-32.48539 -15.89913,-64.51606 -19.85149,-97.49541 -0.76555,-3.29187 1.30674,-11.52167 -3.76665,-11.1259 -4.49485,7.67692 -1.73561,17.62116 -0.97069,26.05009 2.9827,17.04864 9.07738,33.33048 10.38734,50.66534 6.42216,36.43943 21.87389,70.58206 39.05407,103.03992 0.14777,6.78249 -9.20698,7.14049 -14.14341,8.85747 -20.87428,3.92114 -39.26914,15.05686 -59.74967,20.33681 -15.4564,5.01127 -31.20982,10.11058 -44.54054,19.70906 -8.89493,-10.33194 -22.136,-16.47817 -35.86247,-15.188 -19.94624,0.20531 -39.04392,7.85261 -58.81587,8.21387 -10.67652,-1.68741 -11.09197,-14.74332 -13.19917,-22.99037 -5.61499,-33.97694 -13.84266,-69.4744 -4.85339,-103.40391 3.67964,-11.92879 9.92949,-23.45541 19.48748,-31.6843 24.93667,24.77378 62.36764,31.326 96.18183,28.48211 5.51394,0.0396 10.10129,-5.36006 7.34868,-10.6564 -6.27975,-14.96838 -18.28292,-27.14937 -21.31275,-43.52241 -4.34946,-11.25924 -1.11257,-23.8607 7.60717,-32.31207 10.5312,-13.13229 26.21234,-22.88545 32.44397,-39.02771 1.86846,-6.01555 0.8736,-13.51355 -5.8874,-15.8738 -12.5756,-8.28398 -19.7805,-23.32539 -18.56957,-38.25221 0.57231,-10.44438 0.27255,-22.98164 7.7127,-31.26228 1.92766,-1.22875 4.26864,-1.26449 6.39912,-1.31883 z M 125.21053,495.2118 c 25.89557,0.87345 54.86365,1.78067 75.99801,18.95994 21.57669,20.08663 33.39809,47.92952 48.01177,72.95932 2.24886,3.24884 6.43164,11.17241 -0.44839,11.89086 -14.84059,-0.11286 -29.32679,-6.39892 -44.40338,-6.83171 -20.9238,-2.10792 -41.93318,-5.65065 -62.02337,-11.71147 -2.9736,2.81627 3.57819,6.03991 5.01696,8.34573 7.00458,6.14201 17.20516,16.26743 10.39789,26.07654 -10.58558,4.00609 -25.41589,12.53554 -30.65031,14.67626 -5.23442,2.14069 -11.92009,4.06751 -18.84389,8.53567 -6.92377,4.46817 -28.898838,23.94458 -36.331974,41.21172 -0.717988,3.15084 -0.28957,9.8889 -4.478838,10.06556 C 56.955775,679.78497 49.734611,666.44989 42.634074,653.98672 27.981005,624.50164 18.822987,592.43439 10.016033,560.86467 6.3276178,549.81592 8.8202053,536.82715 17.776186,529.02736 34.078334,513.53297 55.996949,505.5829 77.209305,499.61151 c 15.731072,-3.24945 31.913275,-4.4255 48.001225,-4.39971 z m 105.78317,38.38409 c 0.1463,-0.0147 0.39706,0.1018 0.80185,0.41151 25.31716,10.88732 55.09342,4.10444 79.61165,16.99218 8.24422,4.2556 7.44447,15.19791 12.22321,22.21487 11.94775,26.20001 30.3135,49.7517 53.45605,66.94009 4.22959,2.62969 12.5337,3.13123 10.83048,10.17104 -3.82798,11.91119 -14.92632,19.60171 -22.51029,29.09405 -9.64631,9.02826 -17.50169,20.82924 -29.54248,26.81507 -7.54728,0.061 -7.38038,-10.28852 -8.58842,-15.63115 -4.27823,-25.62237 -22.54106,-47.46027 -45.99658,-58.08787 -3.7389,-2.46492 -8.63437,-3.62436 -12.2179,-5.76077 -8.37775,-32.08508 -26.97415,-60.50517 -37.98316,-91.46558 -0.0332,-0.47339 -0.52379,-1.65515 -0.0843,-1.69344 z m 195.43922,0.55392 c 5.80041,20.23865 2.40558,42.32424 -4.45773,62.13416 -6.43675,17.38119 -18.16977,34.671 -35.54594,41.86062 -32.453,-20.8024 -54.07745,-54.91848 -66.17511,-90.89585 19.08244,3.03649 38.60935,6.11854 57.85048,2.07324 16.68997,-2.10968 32.04374,-9.1087 47.52643,-15.09828 0.2639,-0.0359 0.53306,-0.10401 0.80187,-0.074 z m -262.95961,60.93651 c 1.60829,0.0658 3.21348,0.1345 4.82176,0.20039 14.00248,-0.0767 30.39179,-0.66433 40.48373,11.0204 13.30802,13.48093 15.892,34.81573 11.88028,52.16354 -11.41951,-23.0507 -40.18414,-28.54168 -54.07328,-49.36228 -2.2781,-4.2872 -3.0119,-9.21966 -3.11249,-14.02215 z m 50.95021,5.68691 c 13.78603,2.81646 29.52888,0.62687 41.63905,8.75195 6.07444,6.09065 -2.02628,18.6978 7.79711,21.4605 20.88238,10.51308 43.52017,23.3004 53.77783,45.43738 5.4637,11.32218 2.12757,24.76797 7.8182,35.85716 6.36015,6.4665 15.84868,-0.34105 21.27058,-4.72678 6.71198,-5.32753 12.46822,-11.65053 18.97575,-17.19795 0.96227,25.87557 -0.54169,52.08097 0.36403,77.92884 6.70661,20.24775 12.52189,41.93382 8.95241,63.32111 -6.1771,7.21989 -16.65624,1.61813 -24.22483,0.058 -11.49118,-4.06454 -23.28852,-7.55831 -35.58812,-7.37508 -15.70781,-2.82054 -27.67686,-14.55819 -41.49134,-21.72954 -20.67188,-31.37688 -34.10938,-67.24286 -39.79266,-104.42736 -2.98937,-13.20529 -7.93892,-25.87955 -7.31174,-39.63964 -1.50853,-17.47855 1.95498,-37.33674 -9.81761,-52.16357 -0.5665,-1.5094 -7.17144,-5.94651 -2.36866,-5.55502 z m -52.73858,21.87198 c 8.08141,0.30626 18.03154,7.13478 14.67626,15.90018 -8.96545,23.73172 -33.04392,34.76633 -51.78898,49.5311 -9.86917,8.52354 -22.14749,16.14806 -27.543089,28.46101 -2.368591,10.03475 6.959179,21.59366 17.593599,19.67212 15.31485,1.44142 29.74493,-4.94787 41.75514,-13.92715 2.40845,-1.90315 5.87589,-3.53364 3.20216,0.97593 -6.07244,13.33082 -21.28036,24.42758 -18.03146,40.58926 3.16342,5.99947 9.87682,11.9131 17.02388,8.52513 8.90263,-1.82429 16.64652,-8.68795 25.70194,-9.12652 0.85071,3.81263 -1.47291,8.87282 2.67992,11.79061 6.91915,9.21439 20.72033,5.95196 29.09404,0.6647 11.00617,-7.18696 19.51883,-18.25186 22.08302,-31.30446 12.29098,23.51648 21.68961,48.3933 32.82378,72.4529 -31.55088,6.19927 -64.09312,12.73067 -91.3179,30.84022 C 161.14607,829.63587 145.7015,808.67899 127.72166,790.11935 113.98278,771.40651 103.93705,750.05688 94.639369,728.81874 90.746163,713.55161 81.254587,700.14152 77.604947,684.9429 c 3.429506,-14.05207 17.244427,-22.34959 24.847333,-33.75228 10.33694,-5.39997 18.34211,-7.26667 24.23539,-12.91429 9.53251,-7.4441 21.00578,-14.53631 33.40937,-15.60474 0.51767,-0.0388 1.04916,-0.0467 1.5879,-0.027 z m 26.06068,14.76595 c 18.38807,6.2151 27.84245,25.4832 34.23235,42.27212 0.41954,10.70422 4.51238,20.70223 6.42545,31.14619 1.33128,3.88684 -0.78953,7.21944 -1.49823,10.6722 3.68116,7.93754 5.9144,16.85567 3.08614,25.3802 -3.95376,13.12437 -15.09152,28.18955 -30.57645,25.80215 -3.40231,-1.23896 -11.20652,-2.50024 -7.56497,-7.67576 6.12942,-19.51905 23.08177,-34.40192 27.1685,-54.80656 0.12565,-6.177 1.55584,-14.04819 -2.86984,-19.00214 -4.28729,0.24876 -3.16609,7.32515 -4.83228,10.19215 -4.19721,15.70613 -9.46306,32.58761 -20.27353,44.85706 -9.34591,9.66239 -21.70602,19.34952 -35.8466,18.51683 -3.24446,-0.38606 -7.21707,-2.22914 -5.27547,-6.19866 6.71813,-30.23436 33.47107,-52.83039 37.05471,-84.22241 -0.53589,-2.6829 1.91861,-9.61316 -2.27372,-9.65405 -6.06921,7.35054 -4.62652,18.26605 -8.13471,26.88363 -4.81726,13.28043 -17.79475,21.22403 -28.81446,28.96218 -11.21008,6.43645 -26.7043,13.59616 -38.95913,5.72384 -4.19071,-2.55986 -7.49185,-8.63251 -2.54806,-12.26537 20.59587,-24.01878 49.42103,-38.91626 70.84393,-61.99173 4.1255,-4.37382 6.96872,-10.46788 10.65637,-14.59187 z m 203.35768,74.89016 c -1.33352,0.0952 -3.168,0.78818 -5.61834,2.32122 -0.22277,25.61583 14.95336,-2.98659 5.61834,-2.32122 z m 3.44487,82.24938 c -1.31931,0.10672 -3.27205,0.89825 -6.04565,2.73798 1.71605,16.21225 13.16971,-3.3122 6.04565,-2.73798 z m -118.97174,16.9289 c 3.96307,1.90115 11.54052,1.68448 12.68742,6.67873 -4.00757,4.97108 -12.49805,-3.7651 -12.68742,-6.67873 z m -138.92346,3.32882 c 8.43811,5.50908 16.57485,12.47616 22.55252,20.47398 -4.45617,5.11954 -10.72798,11.09595 -17.93122,10.93072 -12.04282,-4.3719 -11.07158,-23.00945 -4.6213,-31.4047 z m 321.40094,3.90911 c 8.98227,0.13965 18.18825,2.64781 23.57595,10.42427 14.50811,18.05719 23.35844,39.89524 34.63327,59.93428 8.35569,17.53624 14.2515,36.74803 27.63276,51.36696 -14.06611,14.78512 -33.44792,23.87572 -53.28194,27.94918 -11.66275,1.44355 -24.59278,3.773 -35.84135,-1.03392 -35.67557,-30.11045 -57.89796,-73.47592 -68.46994,-118.32281 -0.99173,-6.29748 -6.5322,-16.51508 1.97827,-19.98339 12.41426,-6.48548 27.23421,-4.43288 40.55234,-7.87095 8.41664,-1.53298 16.82869,-2.37515 25.39594,-2.38978 1.26236,-0.0684 2.54154,-0.0937 3.8247,-0.0738 z m -189.16146,7.31175 c 16.01944,1.39491 32.0467,3.05083 48.01706,4.78483 18.20003,3.59218 36.18305,8.74184 54.37396,12.5397 5.94324,5.44494 7.70677,14.45336 11.45297,21.51326 10.28086,25.00692 17.77127,52.39811 37.15493,72.3739 3.53565,5.49462 11.90421,10.5184 10.40846,17.73074 -7.65633,5.4971 -18.56197,4.50154 -27.45869,2.70097 -20.63032,-6.97802 -36.77675,-24.84571 -59.25375,-26.99985 -19.94459,-3.03979 -39.84629,-10.57125 -60.36687,-7.02678 -20.35589,2.68432 -40.11415,15.07953 -47.71108,34.76525 -2.11475,1.99801 -4.14955,-6.20866 -5.25431,-8.00824 -4.84254,-18.44921 8.30546,-38.24435 25.07944,-45.70642 4.11418,-1.79371 -0.68767,-4.67121 -3.27608,-3.12833 -13.58118,3.87968 -23.9507,15.03952 -30.84018,26.8626 -11.47501,-1.79195 -15.68214,-16.47298 -10.44013,-25.87609 5.78701,-12.35525 16.20003,-23.45606 29.74294,-26.77286 2.6874,-3.9327 -4.85837,-3.9055 -7.20626,-3.49232 -11.76548,2.20033 -18.77823,13.50429 -25.46983,22.33092 -15.84737,3.97452 -30.18026,-13.91711 -27.33732,-28.94106 3.32139,-15.5998 20.46078,-21.55545 33.06119,-27.75937 17.5262,-7.2742 36.40098,-11.90902 55.32355,-11.89085 z m 201.4585,21.56602 c -1.96957,-0.0197 -4.15204,0.9542 -6.33578,3.46595 -1.48564,2.72873 1.32152,5.27786 2.29481,7.3645 17.08118,7.84991 12.57584,-10.76158 4.04097,-10.83045 z m -176.0942,81.48448 c 25.16205,0.51659 51.06044,9.82774 69.10301,27.73306 3.50181,4.51899 10.52925,10.93272 4.77955,16.6334 -16.95666,22.67954 -39.4924,40.76316 -61.22676,58.76836 -7.16928,5.8341 -17.16436,12.7964 -26.37193,6.8053 -15.83367,-7.7926 -17.4754,-27.127 -23.53373,-41.74982 -4.46281,-10.75027 -8.50042,-24.87398 -16.17451,-33.82615 -0.36764,-0.0467 -0.6575,0 -0.91267,0.0516 0.68064,-2.09907 0.44765,-4.86348 2.67467,-6.37808 10.81939,-14.95183 27.18139,-28.73059 46.64543,-28.02295 1.6684,-0.0443 3.33946,-0.0492 5.01694,-0.0246 z"
       id="path4368"
       inkscape:connector-curvature="0"
       inkscape:export-xdpi="300.052"
       inkscape:export-ydpi="300.052" />
    <path
       style="opacity:1;fill:#ffeeaa;fill-opacity:1;fill-rule:nonzero;stroke:none;stroke-width:1;stroke-linecap:butt;stroke-linejoin:round;stroke-miterlimit:4;stroke-dasharray:none;stroke-dashoffset:0;stroke-opacity:1"
       d="m 161.86957,622.33924 c -0.62492,-0.0322 -1.25161,-0.0322 -1.87804,0.0101 -14.29288,1.42974 -26.16404,10.34018 -37.46619,18.4271 -6.66806,4.71806 -15.26041,6.44345 -21.50268,11.82756 -7.802842,9.84412 -18.488623,18.04639 -23.080073,30.08583 -1.281074,5.47488 2.386319,10.67987 3.988263,15.7261 8.075884,16.98245 13.724757,34.98197 22.09882,51.83119 8.78335,18.56521 19.29605,36.56353 33.72058,51.35117 13.76924,15.42406 26.82299,31.56506 41.62325,46.04405 4.28565,-1.18398 7.92953,-4.73966 12.12822,-6.51517 24.62546,-12.84157 52.1253,-18.12082 79.02083,-23.98743 1.02041,-2.64909 -2.2067,-5.45613 -2.65354,-8.12947 -9.55363,-21.31088 -18.42457,-42.94769 -28.83555,-63.87505 -2.54948,-0.36114 -2.26308,4.73664 -3.62424,6.80005 -5.72325,13.46673 -17.67806,25.64342 -32.5442,28.09173 -6.68889,1.16019 -14.30776,-1.46045 -17.42478,-7.79711 -1.18009,-3.01096 -0.0689,-6.42455 -0.87572,-9.42195 -8.53921,0.78347 -15.93822,6.27872 -24.16151,8.57261 -5.02178,2.24631 -11.41316,1.56016 -14.97697,-3.01228 -3.09542,-2.55897 -4.61121,-6.45282 -3.677,-10.41371 0.58032,-10.5805 8.61419,-18.52091 13.77417,-27.23182 1.53126,-3.1839 5.18862,-6.19619 4.78486,-9.93895 -2.12332,-1.34554 -4.48752,2.10041 -6.47827,2.80126 -11.293,8.46656 -25.37936,13.00618 -39.48139,12.23904 -5.33846,0.60074 -10.56206,-1.77691 -13.74778,-6.17229 -4.355579,-5.40581 -4.441981,-14.03002 0.41673,-19.18148 7.563,-10.39382 18.62192,-17.43102 28.47157,-25.44876 16.79294,-12.68054 36.95088,-23.66078 46.04934,-43.67536 2.4459,-4.45472 2.34204,-10.40055 -1.86751,-13.78999 -3.15944,-2.99254 -7.42662,-4.9917 -11.80119,-5.21742 z m 126.24656,306.30264 c -14.41059,0.38553 -27.52319,8.32838 -37.02831,18.87555 -3.42574,4.49342 -9.56432,7.97997 -10.74078,13.75294 1.52139,5.44202 6.0916,9.66423 7.80762,15.15641 8.08095,16.32261 12.0524,34.28032 19.81457,50.68652 4.82565,7.4452 13.08044,15.152 22.57362,14.2594 12.63715,-3.9434 21.83277,-14.3932 32.16965,-22.1516 16.84976,-14.6622 34.31774,-29.42373 46.7826,-48.15938 2.94222,-6.01221 -3.87735,-11.40579 -7.40144,-15.43597 -18.86503,-18.12415 -45.25555,-26.68119 -71.07603,-26.95756 -0.97156,-0.0443 -1.94076,-0.0516 -2.9015,-0.027 z"
       id="path4407"
       inkscape:connector-curvature="0"
       inkscape:export-xdpi="300.052"
       inkscape:export-ydpi="300.052" />
    <path
       style="opacity:1;fill:#e9c6af;fill-opacity:1;fill-rule:nonzero;stroke:none;stroke-width:1;stroke-linecap:butt;stroke-linejoin:round;stroke-miterlimit:4;stroke-dasharray:none;stroke-dashoffset:0;stroke-opacity:1"
       d="m 329.42285,247.94119 c -18.2347,0.75945 -35.67349,7.35126 -52.72803,13.33633 -36.83562,14.58633 -69.78792,38.85626 -95.08455,69.28237 -14.06509,18.84332 -16.83607,43.91837 -13.15695,66.60772 0.0964,5.30523 2.11839,11.66771 0.1372,16.55431 -7.577,-7.24228 -6.71608,-21.53971 -17.95231,-25.39596 -12.52517,-5.03217 -27.64236,7.70426 -24.00326,20.98044 3.15633,16.09883 8.52065,32.37851 18.36381,45.66946 6.67197,6.85887 16.66102,9.78614 26.07122,9.0685 8.3609,20.2283 21.49325,39.00325 40.27274,50.77613 29.49854,19.12172 65.46858,23.37957 99.76382,25.59114 26.25298,3.23199 53.29055,6.1412 79.42177,0.34291 34.08808,-8.63391 66.94909,-31.5769 78.56188,-65.94828 4.14504,-12.93644 7.13769,-26.21098 12.53441,-38.72174 0.37295,-16.7907 -0.65162,-33.77399 0.58559,-50.44377 7.25076,-24.20855 14.18096,-50.1903 8.24551,-75.42298 -2.21427,-5.45116 -4.5344,-14.61896 -11.96998,-14.30171 -10.42209,1.33465 -13.99111,12.72618 -19.59826,19.89369 -3.38208,3.48121 -8.29311,0.53644 -10.33459,-3.0017 -16.10901,-20.32584 -35.30948,-38.96066 -59.32759,-49.56808 -18.70661,-8.68441 -39.01628,-15.13391 -59.80241,-15.29878 z m 42.75217,82.86138 c 1.33343,-0.0222 2.66466,-0.0123 4.02515,0.0101 10.21313,-0.29471 21.85727,3.73673 26.9786,13.1675 0.36379,4.51619 -6.47391,4.21361 -7.21678,8.56732 -3.2999,11.86517 -13.78151,21.90955 -26.28226,22.52087 -11.48604,1.09988 -21.98353,-7.94877 -24.77348,-18.85444 -0.74115,-3.21145 -3.71723,-6.04822 -5.43896,-7.90259 5.31111,-10.72979 16.86464,-17.30589 28.6773,-17.34039 1.3632,-0.0927 2.69699,-0.1458 4.03043,-0.16891 z m -115.44775,22.4892 c 8.71962,-0.14187 18.86085,3.96422 22.38896,12.42365 -0.19154,9.70858 -7.69166,17.56097 -14.49689,23.69727 -5.2567,4.20213 -14.33082,8.28867 -20.22606,4.28894 -0.57519,-4.24468 -4.50497,-7.67856 -4.84284,-12.20736 -1.1061,-3.81279 -1.68969,-12.02031 -7.52277,-10.86213 -10.1349,2.73566 -11.99765,17.79736 -3.89855,23.66563 -4.95303,2.383 -11.00569,-4.42441 -9.27421,-9.4325 2.30153,-18.10979 20.28519,-31.23913 37.87236,-31.5735 z m 26.40359,0.73858 0.37985,0.22153 c 9.20618,5.21039 11.35375,16.99181 10.06026,26.62514 -0.027,14.42654 -5.96986,29.58461 -0.79133,43.68063 6.75252,12.73265 25.34345,13.67582 35.99961,5.41261 7.58459,-4.0555 13.65254,-11.11858 21.94056,-13.71087 4.24681,-0.32421 -0.23849,4.55479 -1.08146,5.89795 -10.76036,12.25578 -27.92927,19.27429 -44.26622,17.8257 -9.72688,-0.75233 -19.0517,-8.74 -19.71435,-18.44822 4.07266,-22.23349 5.9443,-46.02586 -2.52692,-67.50453 z m 129.48568,43.87054 c 10.38499,1.1231 15.00647,12.52067 17.18211,21.38136 0.21096,1.57808 0.73565,5.17168 -0.39037,5.69221 -5.81844,-7.09336 -7.41485,-16.95627 -15.34099,-22.46811 -0.46929,-0.55772 -5.14096,-5.08208 -1.45075,-4.60546 z m -2.25259,19.49801 c 5.1502,-0.20259 5.0966,5.93024 2.89093,9.01574 -2.77894,15.84375 -2.04885,32.40338 -7.8182,47.65306 -6.96288,22.26682 -27.84179,41.62853 -52.04749,41.47552 -20.16823,0.78631 -39.05343,-9.53767 -53.67763,-22.82156 -9.21382,-7.01058 -16.63849,-16.46004 -26.70429,-22.27821 -6.54793,-2.80035 -16.12583,-1.27586 -20.22604,-8.10833 10.66272,-2.19763 22.03009,-0.26956 32.95571,-1.4824 38.11894,-3.089 75.33776,-15.97893 107.95132,-35.79914 5.15191,-3.04856 10.28234,-7.91943 16.67569,-7.65468 z m -174.232,27.40064 0.0173,0 c 2.06631,8.7448 -2.28659,17.33644 -2.24206,26.04487 0.59333,3.76933 3.61954,8.32435 1.63538,11.88557 -5.00673,-3.37311 -6.9877,-10.47804 -7.0638,-16.20617 1.81013,-7.28373 2.68006,-15.72876 7.59665,-21.70843 l 0.058,-0.0172 z m 189.31975,89.99904 c -13.53311,3.72301 -26.30178,10.06501 -40.21469,12.67687 -20.11568,4.98536 -40.79886,3.59346 -60.99466,0.21097 -3.41354,-0.94011 -4.06261,2.92661 -2.35809,5.10664 12.86384,32.79104 32.50826,64.85458 62.79885,84.12216 4.49937,2.65755 8.77602,-2.90878 12.45003,-4.83757 19.28641,-14.67911 27.89917,-39.21532 31.46798,-62.37682 1.2952,-11.47219 1.89691,-23.75552 -2.16293,-34.69128 -0.28133,-0.20629 -0.65077,-0.22966 -0.98649,-0.21097 z M 187.56099,637.43757 c -5.99714,8.55475 -12.4209,16.92045 -20.56368,23.65505 -20.13729,18.42658 -43.8337,33.30389 -61.82816,54.11021 -4.77171,5.17061 2.60779,11.4105 7.35396,12.94065 16.22437,5.11485 32.17764,-5.06843 44.77793,-14.23842 10.88892,-7.90281 20.78406,-18.82503 22.04608,-32.83434 1.45884,-5.28945 1.42865,-12.45753 6.05619,-15.9846 2.32581,3.32439 0.79967,8.49907 0.67528,12.50809 -4.08162,23.43806 -20.44606,42.18108 -29.86955,63.59545 -2.69101,6.62223 -6.9727,13.62333 -6.45188,20.91711 5.00002,5.17703 13.41781,2.03555 19.31341,0.20039 21.92433,-8.72969 34.11879,-31.03426 40.0353,-52.7122 2.21732,-5.8811 2.59945,-13.19026 6.67873,-18.03143 4.98229,6.19561 3.27069,15.54114 1.74615,22.74767 -5.74596,18.88979 -21.02669,33.61478 -26.2242,52.72276 0.56595,5.13128 7.62337,5.90976 11.77476,6.1248 15.53061,-1.51916 25.8256,-17.15797 28.09702,-31.49966 1.44826,-7.12132 -2.20103,-13.62085 -3.51345,-20.33156 3.04441,-12.13026 -3.09548,-23.92861 -4.74261,-35.80968 -1.61579,-11.79929 -7.87981,-22.56989 -14.46527,-32.28571 -5.42564,-6.89184 -12.35163,-13.36444 -20.89601,-15.79463 z m -50.58093,178.44176 c -4.35752,1.63558 -4.25036,8.04914 -4.85341,11.97525 0.007,6.59361 1.13818,17.09165 9.35335,18.03674 7.36836,0.15662 14.2591,-5.38596 17.69381,-11.20505 -6.13642,-7.17971 -13.03927,-14.32015 -21.44992,-18.7331 -0.24366,-0.0546 -0.49372,-0.0846 -0.74383,-0.0738 z m 127.17504,10.06554 c -25.98703,1.44923 -51.95082,9.70455 -73.39192,24.56774 -9.95056,6.62113 -13.75326,20.6059 -7.6705,31.06707 4.30148,8.37488 13.98551,15.31982 23.63397,13.47347 8.03426,-7.63099 14.10089,-19.49398 25.81273,-22.10939 2.31089,0.30578 6.75705,-0.97544 7.97649,1.4455 -2.75871,3.32975 -8.23581,3.3963 -11.47409,6.49408 -10.69636,7.7373 -21.32104,19.61013 -20.3421,33.67841 0.81277,5.74452 5.04738,13.08014 11.42661,13.28889 5.14057,-2.58688 6.7254,-9.21919 11.41077,-12.5609 6.62909,-6.0705 14.82216,-14.16762 24.53079,-12.89846 -2.02106,4.24991 -8.13014,5.38102 -11.15756,9.14234 -11.94224,9.76548 -20.08621,27.16147 -13.45237,42.17182 0.48963,2.11062 2.85604,7.41396 4.70042,3.21805 9.29649,-18.59525 28.57779,-31.88028 49.36756,-32.92928 22.52964,-2.42147 44.60417,4.64374 66.59191,8.66753 19.68375,5.74272 34.99083,21.42777 55.0334,26.05543 7.60281,0.73321 17.02274,1.48314 22.95341,-4.12533 1.68768,-6.18482 -5.27624,-10.7525 -8.34047,-15.2673 -22.85025,-23.76238 -30.23864,-56.83269 -43.97077,-85.88406 -2.20758,-6.05592 -6.99045,-11.16288 -13.66341,-11.90139 -25.26297,-6.39706 -50.72838,-12.48657 -76.83678,-14.04323 -7.69415,-0.70333 -15.401,-1.60428 -23.13809,-1.55099 z"
       id="path4412"
       inkscape:connector-curvature="0"
       inkscape:export-xdpi="300.052"
       inkscape:export-ydpi="300.052" />
    <path
       style="opacity:1;fill:#ffffff;fill-opacity:1;fill-rule:nonzero;stroke:none;stroke-width:1;stroke-linecap:butt;stroke-linejoin:round;stroke-miterlimit:4;stroke-dasharray:none;stroke-dashoffset:0;stroke-opacity:1"
       d="m 233.05084,370.54984 c -3.98573,0.35498 -7.04966,3.58872 -8.64182,7.05952 -1.36017,3.00068 -2.10716,6.51706 -1.16751,9.74275 0.63328,1.59541 2.28871,2.56195 2.66276,4.30741 0.19646,1.21704 0.61255,2.16168 2.05987,2.28308 5.71848,1.40268 11.89523,0.7173 17.73679,0.17555 0.8797,-0.33038 0.90473,-0.41664 0.0327,-1.03185 -1.1157,-0.96199 -1.71153,-1.56191 -2.73401,-2.72725 -3.12567,-3.04911 -3.32279,-7.67993 -4.22536,-11.6926 -0.61411,-2.6412 -1.21483,-5.57248 -3.2318,-7.52847 -0.71494,-0.51375 -1.63983,-0.58282 -2.49167,-0.58821 z"
       id="path4383"
       inkscape:connector-curvature="0"
       sodipodi:nodetypes="cccccccccccc"
       inkscape:export-xdpi="300.052"
       inkscape:export-ydpi="300.052" />
    <path
       inkscape:connector-curvature="0"
       style="opacity:1;fill:#ffffff;fill-opacity:1;fill-rule:nonzero;stroke:#000000;stroke-width:0.86930972;stroke-linecap:butt;stroke-linejoin:round;stroke-miterlimit:4;stroke-dasharray:none;stroke-dashoffset:0;stroke-opacity:1"
       d="m 258.35562,8.4502857 c -0.74365,0.0074 -1.48795,0.04475 -2.23305,0.119989 -17.87326,-0.287308 -34.87225,7.2102223 -49.73265,16.5199233 -11.60791,8.400026 -18.79471,21.112332 -23.87705,34.22119 -0.62508,1.913373 -2.09776,4.574657 -3.95711,2.055392 -9.7869,-9.945123 -24.97479,-13.173401 -38.13028,-8.831443 -20.32493,6.231112 -37.23177,23.366836 -42.918191,43.864248 -0.994821,5.363975 0.105236,10.809655 0.739577,16.145325 -6.276034,-3.87172 -13.152772,-7.66188 -20.813197,-6.40627 -19.363305,0.91835 -34.634119,15.71358 -44.637391,31.11413 -3.069835,4.66273 -5.744667,9.48624 -4.706276,15.27612 0.04795,13.45137 -2.302867,28.08339 5.253723,40.15686 9.597574,17.52541 29.337957,30.58726 49.799892,27.88697 37.582913,-4.05133 71.319553,-22.79175 104.675793,-39.2156 17.01696,-8.44409 34.09178,-17.14172 48.50807,-29.72145 30.95843,-24.86697 66.09881,-46.26422 105.43455,-54.198795 16.1926,-3.633683 32.46551,-11.22804 41.82807,-25.519425 5.88642,-8.562599 8.34873,-20.679783 2.10821,-29.750269 -10.19921,-18.606074 -31.53886,-30.963184 -52.92139,-28.434453 -16.36214,1.023737 -31.51967,8.711799 -43.96026,19.002724 -3.43762,0.924107 -2.74174,-4.821568 -4.21644,-6.64158 -4.29901,-10.20841 -15.0896,-17.7352493 -26.2446,-17.6436603 z M 312.00216,112.26166 c -29.29257,8.29511 -53.08891,28.23943 -77.09618,46.01566 -18.45588,14.5151 -38.94224,26.23101 -60.25928,36.10373 -4.84924,2.67483 -10.24395,4.68267 -14.63742,8.03424 2.19286,5.86947 7.53334,10.54102 11.02129,15.84761 13.79916,17.71051 26.73445,36.92678 31.08049,59.36124 1.83546,5.56741 1.75758,12.22818 5.03762,17.14423 4.16013,0.43612 6.9743,-4.57571 10.54585,-6.22857 36.75594,-26.41594 79.87471,-44.61303 124.96073,-49.64622 1.46317,-2.99701 -3.23226,-6.59095 -4.29806,-9.84953 -19.0532,-34.87175 -29.47511,-75.2883 -24.95275,-115.05837 0.20457,-0.90281 -0.35788,-1.96318 -1.40229,-1.72402 z m 171.77358,346.91358 c -3.35732,2.4547 -3.4369,7.8734 -5.36417,11.45828 -8.78084,23.60607 -26.6348,42.45545 -45.80917,58.03584 -3.49377,4.34405 0.42192,10.25521 0.59549,15.12245 3.8996,15.63727 3.90776,32.64273 -3.61613,47.24505 -7.78865,18.40141 -20.03735,34.63648 -26.87369,53.44484 -1.6627,3.9337 -2.35657,8.91433 1.85849,11.54955 14.39188,13.78846 34.49849,20.43314 54.04513,22.19624 10.02751,0.0679 20.29183,0.80745 30.18726,-0.74917 0.9027,-3.49407 -2.66932,-7.10843 -3.64976,-10.48342 -7.94584,-15.01941 -12.36139,-31.76819 -11.50151,-48.74818 -0.88287,-14.44125 6.7242,-28.41778 18.3496,-36.84807 7.12244,-6.14069 18.73789,-10.63902 19.46375,-21.38467 -0.84744,-12.40113 -12.98356,-19.41831 -18.96911,-29.26044 -6.5887,-12.54823 -4.75032,-27.46018 -4.01472,-41.05007 0.16547,-7.89541 2.74783,-15.7996 2.20907,-23.66096 -1.48828,-2.63719 -3.772,-6.17584 -6.91053,-6.86727 z m 22.21546,14.52216 c -8.13799,-0.14998 -10.67254,9.6681 -11.71762,16.09251 -1.0202,10.2257 -2.52214,20.85397 -0.25451,30.98926 3.44981,11.03465 10.83662,21.11445 21.03888,26.6864 6.17571,7.75721 0.89606,18.06284 -4.71586,24.47253 -9.87852,13.05868 -23.60859,22.97754 -32.16103,37.04977 -6.72506,15.19614 0.7396,31.91313 8.29358,45.28093 4.11408,8.35037 11.07794,15.80739 12.48598,25.20249 -1.23168,7.07287 -10.07615,6.31022 -15.49703,6.81445 -30.46977,1.19795 -62.73891,-6.06097 -85.918,-26.94092 -3.26814,-3.68322 -6.12708,2.52333 -8.62975,4.5382 -17.53977,21.09988 -19.16689,50.44696 -16.5103,76.59673 2.60502,21.97391 5.55946,44.04993 11.0837,65.4986 1.30753,6.49934 7.51726,11.18995 14.1524,10.05602 23.3383,-1.42082 46.52149,-11.35495 69.8927,-6.25259 8.0991,1.83701 14.44126,7.66112 20.8228,12.48119 6.60509,-1.73002 11.95817,-6.93251 18.54169,-9.06196 20.22214,-8.30725 41.48283,-14.02994 61.70959,-22.3499 11.52051,-4.80707 24.21742,-6.68601 35.67153,-11.72723 4.57962,-2.01143 3.50975,-6.19002 0.93163,-9.5806 -16.79848,-33.77084 -33.13068,-68.60766 -37.82773,-106.40463 -3.15061,-20.3984 -10.9222,-40.24172 -10.6179,-61.03728 0.43853,-2.34064 0.46641,-6.89948 3.15511,-7.38114 2.99843,4.84641 1.01678,11.23435 2.75172,16.57756 5.81533,34.16196 12.70937,68.2372 22.3163,101.5495 8.62817,21.95387 19.49951,43.05357 31.4647,63.36638 1.94076,1.84195 4.34363,7.36308 -0.12491,7.65487 -31.64584,7.46023 -61.87553,19.59001 -92.52118,30.2065 -8.94971,3.74157 -20.00502,3.29033 -27.36354,10.2385 -4.88173,3.99997 -1.70816,10.29447 0.54748,14.77669 14.39812,29.65832 31.92224,57.76529 45.27611,87.92541 4.14161,2.96037 10.07467,0.62921 14.79589,0.58101 13.97139,-1.65181 27.80179,-5.29781 39.79188,-12.88937 23.01479,-12.48287 46.74674,-24.49649 65.79637,-42.84614 17.74002,-16.997 36.0282,-33.83268 50.45781,-53.83382 14.00324,-19.6386 13.36951,-46.36271 4.37968,-67.94297 -9.36104,-22.95064 -20.37499,-45.20778 -31.15733,-67.51559 -20.04006,-34.48436 -31.55352,-73.09479 -50.45779,-108.13825 -18.8716,-33.7239 -43.02131,-66.60904 -77.98461,-84.93353 -15.92497,-8.57119 -33.51102,-15.93235 -51.89848,-15.79958 z m -378.85368,21.19256 c -2.5754,-0.0312 -5.15205,-0.0287 -7.72691,0.0101 -22.848107,0.13499 -45.873664,3.46917 -66.939304,12.65888 -15.45178,6.55575 -31.920634,14.59888 -41.083717,29.31325 -6.0903472,10.33678 -2.546853,22.5365 0.763574,33.12629 11.334235,38.14646 22.191761,77.79521 46.510317,110.07839 2.937453,3.17672 5.618556,8.28494 10.08483,9.12439 4.559142,-3.59366 2.361903,-10.6238 6.228579,-14.85354 9.729266,-14.89988 22.061102,-28.71178 37.419551,-37.93817 15.55925,-7.40664 31.84603,-13.6689 46.51511,-22.75333 3.62382,-6.758 -0.62373,-14.78577 -5.77718,-19.45893 -3.49911,-4.33821 -8.31315,-7.85058 -10.95405,-12.75973 12.8482,2.67852 25.6206,6.35178 38.71136,8.09669 19.31408,2.74706 38.69796,4.68894 57.77651,8.89866 4.41739,0.21686 11.07469,3.02484 14.02753,-1.53673 0.71689,-5.39451 -4.02044,-9.95432 -5.80119,-14.8007 -11.71601,-20.67576 -22.26636,-42.42216 -37.92377,-60.49942 -14.38235,-17.22294 -37.21089,-23.44016 -58.69855,-25.38977 -7.68474,-0.80545 -15.40657,-1.22231 -23.13269,-1.31582 z m 104.51253,39.03792 -0.2449,0.0101 c -2.15773,2.16029 1.48848,5.71854 1.81527,8.26957 11.47534,27.73682 26.09848,54.15709 35.2537,82.82531 2.20292,4.94388 8.71504,4.95431 12.66847,7.98623 22.4876,10.37413 40.41829,31.14074 45.13204,55.69711 1.91253,5.55177 1.00625,13.47693 6.39667,17.13943 4.98438,2.31728 9.24904,-3.48372 12.9134,-6.01248 14.36704,-13.62254 28.54092,-27.77168 40.08961,-43.90266 2.41017,-3.6232 4.64347,-9.92469 -0.53786,-12.36114 -20.6863,-10.06258 -35.38159,-28.93668 -48.17188,-47.53319 -8.29925,-12.07602 -14.26087,-25.46639 -19.58861,-39.05233 -4.90455,-8.78305 -16.15135,-10.47565 -25.0488,-12.78852 -20.19423,-3.71049 -41.12378,-3.67566 -60.67709,-10.27694 z m -67.60684,60.29773 -0.72515,0.31693 c -1.21267,11.79061 7.20335,21.51483 16.0637,28.12229 13.73556,10.88167 30.40291,19.09936 40.17608,34.15879 3.23952,0.70158 2.28945,-4.68039 2.7037,-6.59836 1.49789,-16.89577 -2.53837,-35.60462 -16.18858,-46.83687 -11.43273,-10.13619 -27.98375,-7.86716 -42.02975,-9.16278 z m 50.36657,6.63678 c -3.37908,1.33689 1.53808,4.96337 2.54041,6.6704 9.1302,12.04534 7.72181,28.14358 8.92747,42.39471 0.079,13.69901 1.63365,27.33128 5.48903,40.50264 5.48338,26.01958 11.04621,52.33727 22.41237,76.57752 6.09368,12.58332 11.9559,25.68514 20.98125,36.46868 12.64823,7.36213 24.47928,17.35773 38.99951,20.76998 12.62455,0.88798 25.02933,3.42982 36.91047,7.74132 7.26907,2.26906 16.79861,5.90288 23.67537,0.82117 3.05899,-4.70511 0.86714,-11.06123 1.57517,-16.32781 0.74796,-16.50338 -4.38175,-32.35004 -9.50378,-47.79734 -0.1822,-25.49157 0.39623,-51.02281 -0.49463,-76.49107 -2.44498,-1.69751 -4.72926,2.81249 -6.85768,3.81303 -8.41859,6.78829 -16.04888,16.28035 -27.18104,18.3832 -8.06458,0.28067 -8.23165,-9.78116 -9.27806,-15.30494 -1.0421,-10.27042 -2.30481,-20.8771 -8.45685,-29.55337 -11.92274,-19.32878 -33.18336,-29.61776 -52.10499,-40.37296 -5.04577,-3.35758 -1.97913,-10.54647 -3.51528,-15.54024 -1.63963,-6.65407 -9.92717,-8.32415 -15.68433,-9.64784 -9.41283,-1.43277 -18.91031,-2.81751 -28.43441,-3.10708 z m 175.4089,112.45072 c 0.36275,-0.0101 0.75733,0.007 1.18616,0.0528 4.66434,0.13154 1.84657,6.22683 0.60029,8.60091 -0.94402,2.07253 -3.99529,4.46083 -4.57178,0.67233 -0.924,-3.1868 -2.6558,-9.18443 2.78533,-9.32607 z m 4.65824,82.16261 c 3.81236,0.96775 -0.06,7.50385 -2.83818,7.53961 -3.2938,-1.35027 -2.92299,-7.27211 1.14776,-7.3043 0.55101,-0.14482 1.11823,-0.25372 1.69042,-0.23531 z m -118.65051,15.4538 c -1.45442,0.19522 -0.85204,1.97076 -0.19203,2.7037 2.12703,3.02577 5.0359,6.01781 8.79781,6.75684 1.62131,0.14557 3.83684,-0.38039 4.44694,-2.06979 0.0246,-2.50521 -2.39704,-4.20602 -4.5526,-4.95118 -2.73485,-0.9762 -5.57508,-1.65264 -8.36081,-2.43957 l -0.13916,0 z m 183.76493,7.59244 c -1.99966,-0.0558 -4.0009,-0.0172 -5.96446,0.0433 -17.45175,0.12883 -34.55113,4.07878 -51.84568,5.94046 -6.61088,1.46803 -16.47182,2.40932 -18.364,10.31533 0.7622,11.79703 5.13396,23.15042 8.21195,34.51895 11.59519,37.23516 32.47436,72.23163 62.46837,97.49632 10.58538,6.38373 23.78044,3.48189 35.28251,1.94023 20.33962,-3.57015 39.82677,-12.85401 54.39568,-27.65659 -1.55073,-5.08796 -6.56003,-8.90226 -8.86024,-14.00349 -10.96451,-19.93328 -19.08588,-41.38996 -30.41298,-61.22451 -8.38301,-14.59183 -15.38763,-30.79741 -28.14631,-42.21225 -4.79405,-3.95758 -10.76584,-4.99033 -16.76484,-5.15768 z m 11.54955,29.87994 c 4.27498,0.56725 8.61458,7.74818 4.59101,10.79557 -4.93143,1.84951 -11.98159,-1.35422 -11.34787,-7.15541 1.28044,-2.29154 4.14829,-3.75587 6.75686,-3.64016 z"
       id="path3370"
       inkscape:export-xdpi="300.052"
       inkscape:export-ydpi="300.052" />
    <path
       style="opacity:1;fill:#ffffff;fill-opacity:1;fill-rule:nonzero;stroke:#000000;stroke-width:0.43465486;stroke-linecap:butt;stroke-linejoin:round;stroke-miterlimit:4;stroke-dasharray:none;stroke-dashoffset:0;stroke-opacity:1"
       d="m 259.99054,360.41596 c -4.06586,0.15269 -8.83997,1.73135 -10.18891,6.013 -1.21923,2.01005 -1.18235,4.66555 0.76574,6.23118 2.56215,3.46196 7.96684,5.05139 11.45639,2.05188 3.69107,-3.15929 5.75809,-9.73699 1.71824,-13.43101 -1.08282,-0.75292 -2.47137,-0.86849 -3.75146,-0.86505 z"
       id="path3395"
       inkscape:connector-curvature="0"
       inkscape:export-xdpi="300.052"
       inkscape:export-ydpi="300.052" />
    <path
       style="opacity:1;fill:#ffffff;fill-opacity:1;fill-rule:nonzero;stroke:#000000;stroke-width:0.43465486;stroke-linecap:butt;stroke-linejoin:round;stroke-miterlimit:4;stroke-dasharray:none;stroke-dashoffset:0;stroke-opacity:1"
       d="m 270.84418,373.10329 c -3.15213,1.71197 -5.52832,4.76509 -7.59371,7.65826 -0.37851,1.14188 -0.2213,2.81921 -2.02643,2.64441 -5.84966,0.75126 -11.85058,-0.82548 -17.64681,0.3362 -2.40249,0.86669 -1.11535,3.53127 0.0882,4.8593 2.33365,3.33875 6.74372,5.12547 10.62178,3.45405 7.63761,-2.96069 13.53648,-9.47149 17.39987,-16.53529 0.48839,-0.87018 0.6441,-2.55357 -0.84299,-2.41693 z"
       id="path3397"
       inkscape:connector-curvature="0"
       inkscape:export-xdpi="300.052"
       inkscape:export-ydpi="300.052" />
    <path
       style="opacity:1;fill:#ffffff;fill-opacity:1;fill-rule:nonzero;stroke:#000000;stroke-width:0.43465486;stroke-linecap:butt;stroke-linejoin:round;stroke-miterlimit:4;stroke-dasharray:none;stroke-dashoffset:0;stroke-opacity:1"
       d="m 357.4653,342.26825 c -2.00346,1.7836 -2.27169,4.91304 -3.15636,7.36623 -0.80249,4.0179 0.44463,8.12133 0.63247,12.1627 0.34546,4.84854 3.82491,9.68294 8.97581,9.95122 6.28498,0.55797 13.55013,-0.89976 17.63067,-6.09622 1.75023,-2.64795 -1.56,-4.92368 -3.97555,-4.93315 -4.12156,-0.87955 -8.87703,0.55421 -12.57019,-1.84814 -4.51007,-4.21988 -4.36283,-10.85308 -6.48673,-16.23759 -0.22055,-0.33215 -0.67036,-0.49007 -1.05012,-0.36505 z"
       id="path3399"
       inkscape:connector-curvature="0"
       inkscape:export-xdpi="300.052"
       inkscape:export-ydpi="300.052" />
    <path
       style="opacity:1;fill:#ffffff;fill-opacity:1;fill-rule:nonzero;stroke:#000000;stroke-width:0.43465486;stroke-linecap:butt;stroke-linejoin:round;stroke-miterlimit:4;stroke-dasharray:none;stroke-dashoffset:0;stroke-opacity:1"
       d="m 375.80654,339.27069 c -3.49552,-0.3223 -7.76989,0.95189 -8.78477,4.71837 -0.43683,2.75791 0.1849,6.04186 3.04004,7.24735 6.13631,4.23564 15.13392,-0.91718 16.35303,-7.7618 0.52264,-2.8711 -2.5587,-4.23948 -4.9459,-4.06385 -1.88446,-0.12269 -3.7745,-0.14187 -5.6624,-0.14015 z"
       id="path3401"
       inkscape:connector-curvature="0"
       inkscape:export-xdpi="300.052"
       inkscape:export-ydpi="300.052" />
    <path
       style="opacity:1;fill:#ffffff;fill-opacity:1;fill-rule:nonzero;stroke:#000000;stroke-width:0.30734739;stroke-linecap:butt;stroke-linejoin:round;stroke-miterlimit:4;stroke-dasharray:none;stroke-dashoffset:0;stroke-opacity:1"
       d="m 399.28793,454.58256 c -5.39178,0.70525 -8.61706,5.74715 -13.16192,8.19154 -17.22869,10.43747 -35.34239,19.52529 -54.22761,26.60235 -5.75354,2.19531 -11.69455,3.84395 -17.58844,5.58929 -1.35429,1.37813 0.99119,2.27093 1.97728,2.82184 12.80899,6.45755 26.80549,11.77803 41.36051,11.4692 9.41299,-0.35586 18.55308,-3.97983 25.89583,-9.83391 3.63733,-2.03478 6.83357,-4.81798 9.12689,-8.32496 5.47905,-8.15065 9.33225,-17.52605 10.72884,-27.2685 0.23162,-2.9649 0.64452,-7.06921 -2.30091,-8.87946 -0.55667,-0.28288 -1.18973,-0.392 -1.81047,-0.36739 z"
       id="path3360"
       inkscape:connector-curvature="0"
       inkscape:export-xdpi="300.052"
       inkscape:export-ydpi="300.052" />
    <path
       style="opacity:1;fill:#ffffff;fill-opacity:1;fill-rule:nonzero;stroke:#000000;stroke-width:0.30734739;stroke-linecap:butt;stroke-linejoin:round;stroke-miterlimit:4;stroke-dasharray:none;stroke-dashoffset:0;stroke-opacity:1"
       d="m 403.33267,426.6986 c -4.63566,0.50147 -8.44785,3.60437 -12.4532,5.72284 -6.72746,3.99473 -13.29747,8.46144 -20.80515,10.88171 -8.04161,3.97706 -16.3423,7.45086 -24.96332,9.97444 -19.40845,6.01421 -39.53231,9.25061 -59.06308,14.79102 -2.33385,-0.007 -2.82118,2.07461 -0.96359,3.34847 6.20347,7.63889 14.15359,14.63028 24.04755,16.69698 5.80353,1.42415 11.75026,0.027 17.24509,-1.93174 27.2083,-9.03325 53.23595,-22.37531 75.166,-40.98488 1.52951,-1.06915 2.92738,-2.30156 3.14569,-4.27187 1.07264,-3.90234 3.08127,-7.97789 2.1983,-12.10135 -0.44332,-1.54333 -2.04782,-2.25515 -3.55429,-2.12562 z"
       id="path3362"
       inkscape:connector-curvature="0"
       inkscape:export-xdpi="300.052"
       inkscape:export-ydpi="300.052" />
  </g>
</svg>
